<svg width="316" height="57" viewBox="0 0 316 57" fill="none" xmlns="http://www.w3.org/2000/svg">
<path opacity="0.05" d="M0.9 4V53H16.3V4H0.9ZM10.84 16.25H20.15C22.0633 16.25 23.51 16.6467 24.49 17.44C25.47 18.2333 25.96 19.3533 25.96 20.8C25.96 22.2467 25.47 23.3667 24.49 24.16C23.51 24.9533 22.0633 25.35 20.15 25.35H10.84V37.6H20.15C24.9567 37.6 28.8533 36.9233 31.84 35.57C34.8733 34.2167 37.09 32.28 38.49 29.76C39.9367 27.24 40.66 24.2533 40.66 20.8C40.66 17.3 39.9367 14.3133 38.49 11.84C37.09 9.32 34.8733 7.38333 31.84 6.03C28.8533 4.67666 24.9567 4 20.15 4H10.84V16.25ZM62.0078 32L73.9078 53H91.7578L77.7578 32H62.0078ZM47.6578 4V53H63.0578V4H47.6578ZM57.5978 16.95H66.9078C68.2145 16.95 69.2878 17.1367 70.1278 17.51C70.9678 17.8367 71.5978 18.35 72.0178 19.05C72.4845 19.7033 72.7178 20.52 72.7178 21.5C72.7178 22.4333 72.4845 23.25 72.0178 23.95C71.5978 24.65 70.9678 25.1867 70.1278 25.56C69.2878 25.8867 68.2145 26.05 66.9078 26.05H57.5978V37.6H68.3078C73.1145 37.6 77.0111 36.8767 79.9978 35.43C83.0311 33.9833 85.2478 32 86.6478 29.48C88.0945 26.9133 88.8178 24.02 88.8178 20.8C88.8178 17.5333 88.0945 14.64 86.6478 12.12C85.2478 9.6 83.0311 7.61667 79.9978 6.17C77.0111 4.72333 73.1145 4 68.3078 4H57.5978V16.95ZM96.6715 4V53H112.421V4H96.6715ZM144.638 27.94L135.188 4H116.988L144.638 56.5L172.288 4H154.088L144.638 27.94ZM179.474 46.7H205.374V35.64H179.474V46.7ZM192.284 26.26L198.304 39.77L197.254 43.76L202.434 53H219.934L192.284 0.499996L164.634 53H182.134L187.454 43.27L186.264 39.77L192.284 26.26ZM236.524 28.5C236.524 25.98 237.084 23.88 238.204 22.2C239.371 20.4733 240.888 19.19 242.754 18.35C244.668 17.51 246.768 17.09 249.054 17.09C251.388 17.09 253.394 17.3933 255.074 18C256.754 18.56 258.224 19.3067 259.484 20.24C260.791 21.1733 261.958 22.13 262.984 23.11V7.29C261.071 5.93666 258.971 4.81666 256.684 3.93C254.444 3.04333 251.528 2.6 247.934 2.6C243.688 2.6 239.814 3.20667 236.314 4.42C232.814 5.63333 229.828 7.38333 227.354 9.67C224.881 11.9567 222.968 14.6867 221.614 17.86C220.261 21.0333 219.584 24.58 219.584 28.5C219.584 32.42 220.261 35.9667 221.614 39.14C222.968 42.3133 224.881 45.0433 227.354 47.33C229.828 49.6167 232.814 51.3667 236.314 52.58C239.814 53.7933 243.688 54.4 247.934 54.4C251.528 54.4 254.444 53.9333 256.684 53C258.971 52.1133 261.071 51.0167 262.984 49.71V33.89C261.958 34.87 260.791 35.8267 259.484 36.76C258.224 37.6467 256.754 38.3933 255.074 39C253.394 39.6067 251.388 39.91 249.054 39.91C246.768 39.91 244.668 39.49 242.754 38.65C240.888 37.81 239.371 36.55 238.204 34.87C237.084 33.1433 236.524 31.02 236.524 28.5ZM297.963 4L290.263 19.82L282.562 4H264.712L282.423 33.89V53H298.173V33.75L315.813 4H297.963Z" fill="#2A3342"/>
</svg>
