<svg width="38" height="38" viewBox="0 0 38 38" fill="none" xmlns="http://www.w3.org/2000/svg">
<path d="M12.7572 21.5658C13.2117 21.5658 13.6476 21.3852 13.969 21.0638C14.2904 20.7424 14.471 20.3065 14.471 19.852C14.471 19.3974 14.2904 18.9615 13.969 18.6401C13.6476 18.3187 13.2117 18.1381 12.7572 18.1381C12.3026 18.1381 11.8667 18.3187 11.5453 18.6401C11.2239 18.9615 11.0434 19.3974 11.0434 19.852C11.0434 20.3065 11.2239 20.7424 11.5453 21.0638C11.8667 21.3852 12.3026 21.5658 12.7572 21.5658ZM14.4721 25.5773C14.4721 26.0318 14.2916 26.4677 13.9702 26.7891C13.6488 27.1105 13.2129 27.2911 12.7583 27.2911C12.3038 27.2911 11.8679 27.1105 11.5465 26.7891C11.2251 26.4677 11.0445 26.0318 11.0445 25.5773C11.0445 25.1228 11.2251 24.6868 11.5465 24.3654C11.8679 24.044 12.3038 23.8635 12.7583 23.8635C13.2129 23.8635 13.6488 24.044 13.9702 24.3654C14.2916 24.6868 14.4721 25.1228 14.4721 25.5773ZM19.0584 21.5635C19.5126 21.5635 19.9482 21.383 20.2694 21.0619C20.5906 20.7407 20.771 20.305 20.771 19.8508C20.771 19.3966 20.5906 18.961 20.2694 18.6398C19.9482 18.3186 19.5126 18.1381 19.0584 18.1381C18.6038 18.1381 18.1679 18.3187 17.8465 18.6401C17.5251 18.9615 17.3445 19.3974 17.3445 19.852C17.3445 20.3065 17.5251 20.7424 17.8465 21.0638C18.1679 21.3852 18.6038 21.5658 19.0584 21.5658V21.5635ZM20.7733 25.575C20.7733 26.0295 20.5928 26.4655 20.2714 26.7869C19.95 27.1083 19.514 27.2888 19.0595 27.2888C18.605 27.2888 18.1691 27.1083 17.8477 26.7869C17.5262 26.4655 17.3457 26.0295 17.3457 25.575C17.3457 25.1205 17.5262 24.6845 17.8477 24.3631C18.1691 24.0417 18.605 23.8612 19.0595 23.8612C19.514 23.8612 19.95 24.0417 20.2714 24.3631C20.5928 24.6845 20.7733 25.1205 20.7733 25.575ZM25.3527 21.5635C25.8072 21.5635 26.2431 21.3829 26.5645 21.0615C26.8859 20.7401 27.0665 20.3042 27.0665 19.8497C27.0665 19.3951 26.8859 18.9592 26.5645 18.6378C26.2431 18.3164 25.8072 18.1358 25.3527 18.1358C24.8981 18.1358 24.4622 18.3164 24.1408 18.6378C23.8194 18.9592 23.6389 19.3951 23.6389 19.8497C23.6389 20.3042 23.8194 20.7401 24.1408 21.0615C24.4622 21.3829 24.8981 21.5635 25.3527 21.5635ZM32.7964 11.2691C32.7964 9.75096 32.1933 8.29499 31.1198 7.2215C30.0463 6.148 28.5904 5.54492 27.0722 5.54492H11.0445C9.52635 5.54492 8.07038 6.148 6.99689 7.2215C5.92339 8.29499 5.32031 9.75096 5.32031 11.2691V27.2968C5.32031 28.815 5.92339 30.271 6.99689 31.3444C8.07038 32.4179 9.52635 33.021 11.0445 33.021H27.0722C28.5904 33.021 30.0463 32.4179 31.1198 31.3444C32.1933 30.271 32.7964 28.815 32.7964 27.2968V11.2691ZM7.60999 14.7036H30.5067V27.2968C30.5067 28.2077 30.1449 29.0813 29.5008 29.7254C28.8567 30.3695 27.9831 30.7313 27.0722 30.7313H11.0445C10.1336 30.7313 9.26003 30.3695 8.61593 29.7254C7.97184 29.0813 7.60999 28.2077 7.60999 27.2968V14.7036ZM11.0445 7.8346H27.0722C27.9831 7.8346 28.8567 8.19645 29.5008 8.84054C30.1449 9.48464 30.5067 10.3582 30.5067 11.2691V12.4139H7.60999V11.2691C7.60999 10.3582 7.97184 9.48464 8.61593 8.84054C9.26003 8.19645 10.1336 7.8346 11.0445 7.8346Z" fill="#E8604C"/>
</svg>
