<svg width="33" height="32" viewBox="0 0 33 32" fill="none" xmlns="http://www.w3.org/2000/svg">
<path d="M6.19414 6.74838C6.19414 5.73628 6.59619 4.76563 7.31185 4.04997C8.02752 3.33431 8.99816 2.93225 10.0103 2.93225C11.0224 2.93225 11.993 3.33431 12.7087 4.04997C13.4243 4.76563 13.8264 5.73628 13.8264 6.74838C13.8264 7.76048 13.4243 8.73112 12.7087 9.44679C11.993 10.1624 11.0224 10.5645 10.0103 10.5645C8.99816 10.5645 8.02752 10.1624 7.31185 9.44679C6.59619 8.73112 6.19414 7.76048 6.19414 6.74838ZM10.0103 0.642578C8.3909 0.642578 6.83787 1.28587 5.69281 2.43093C4.54775 3.57598 3.90446 5.12902 3.90446 6.74838C3.90446 8.36774 4.54775 9.92077 5.69281 11.0658C6.83787 12.2109 8.3909 12.8542 10.0103 12.8542C11.6296 12.8542 13.1827 12.2109 14.3277 11.0658C15.4728 9.92077 16.1161 8.36774 16.1161 6.74838C16.1161 5.12902 15.4728 3.57598 14.3277 2.43093C13.1827 1.28587 11.6296 0.642578 10.0103 0.642578ZM21.4586 8.27483C21.4586 7.66757 21.6999 7.08518 22.1293 6.65578C22.5587 6.22639 23.1411 5.98515 23.7483 5.98515C24.3556 5.98515 24.938 6.22639 25.3674 6.65578C25.7968 7.08518 26.038 7.66757 26.038 8.27483C26.038 8.88209 25.7968 9.46448 25.3674 9.89387C24.938 10.3233 24.3556 10.5645 23.7483 10.5645C23.1411 10.5645 22.5587 10.3233 22.1293 9.89387C21.6999 9.46448 21.4586 8.88209 21.4586 8.27483ZM23.7483 3.69548C22.5338 3.69548 21.369 4.17794 20.5102 5.03674C19.6514 5.89553 19.169 7.06031 19.169 8.27483C19.169 9.48935 19.6514 10.6541 20.5102 11.5129C21.369 12.3717 22.5338 12.8542 23.7483 12.8542C24.9628 12.8542 26.1276 12.3717 26.9864 11.5129C27.8452 10.6541 28.3277 9.48935 28.3277 8.27483C28.3277 7.06031 27.8452 5.89553 26.9864 5.03674C26.1276 4.17794 24.9628 3.69548 23.7483 3.69548ZM4.28608 15.9071C3.37519 15.9071 2.5016 16.2689 1.85751 16.913C1.21341 17.5571 0.851563 18.4307 0.851562 19.3416V19.7659C0.853356 19.8721 0.860489 19.978 0.872933 20.0834C0.998986 21.2193 1.40724 22.3055 2.06051 23.2432C3.30915 25.0261 5.69346 26.5922 10.0103 26.5922C12.1 26.5922 13.7363 26.2259 15.0109 25.6458C14.779 24.8767 14.6417 24.0822 14.6018 23.2798C13.6173 23.8599 12.1671 24.3026 10.0103 24.3026C6.3132 24.3026 4.68906 23.0051 3.93499 21.9289C3.50719 21.3124 3.23821 20.5999 3.15192 19.8545C3.14732 19.8144 3.14375 19.7742 3.14124 19.7339V19.3416C3.14124 19.038 3.26185 18.7468 3.47655 18.5321C3.69125 18.3174 3.98245 18.1968 4.28608 18.1968H15.707C16.0871 17.4686 16.5542 16.7939 17.0945 16.1864C16.665 16.0014 16.2021 15.9063 15.7345 15.9071H4.28608ZM32.907 22.7761C32.907 25.0027 32.0225 27.1381 30.448 28.7126C28.8736 30.2871 26.7382 31.1716 24.5115 31.1716C22.2849 31.1716 20.1495 30.2871 18.575 28.7126C17.0006 27.1381 16.1161 25.0027 16.1161 22.7761C16.1161 20.5495 17.0006 18.4141 18.575 16.8396C20.1495 15.2651 22.2849 14.3806 24.5115 14.3806C26.7382 14.3806 28.8736 15.2651 30.448 16.8396C32.0225 18.4141 32.907 20.5495 32.907 22.7761ZM29.6313 19.1828C29.5604 19.1118 29.4761 19.0554 29.3834 19.0169C29.2907 18.9784 29.1913 18.9586 29.0909 18.9586C28.9905 18.9586 28.8911 18.9784 28.7984 19.0169C28.7056 19.0554 28.6214 19.1118 28.5505 19.1828L22.9851 24.7498L20.4726 22.2357C20.3292 22.0924 20.1349 22.0119 19.9322 22.0119C19.7295 22.0119 19.5351 22.0924 19.3918 22.2357C19.2485 22.3791 19.168 22.5734 19.168 22.7761C19.168 22.9788 19.2485 23.1732 19.3918 23.3165L22.4447 26.3694C22.5156 26.4404 22.5998 26.4968 22.6926 26.5353C22.7853 26.5738 22.8847 26.5936 22.9851 26.5936C23.0855 26.5936 23.1849 26.5738 23.2776 26.5353C23.3703 26.4968 23.4546 26.4404 23.5255 26.3694L29.6313 20.2636C29.7023 20.1927 29.7587 20.1084 29.7972 20.0157C29.8357 19.923 29.8555 19.8236 29.8555 19.7232C29.8555 19.6228 29.8357 19.5234 29.7972 19.4307C29.7587 19.338 29.7023 19.2537 29.6313 19.1828Z" fill="#E8604C"/>
</svg>
