<svg width="30" height="30" viewBox="0 0 30 30" fill="none" xmlns="http://www.w3.org/2000/svg">
<path d="M8.27017 16.6927C10.4563 16.6927 12.5529 15.8243 14.0987 14.2784C15.6446 12.7326 16.513 10.636 16.513 8.44986C16.513 6.26373 15.6446 4.16713 14.0987 2.6213C12.5529 1.07547 10.4563 0.207031 8.27017 0.207031C6.08404 0.207031 3.98744 1.07547 2.44161 2.6213C0.895782 4.16713 0.0273438 6.26373 0.0273438 8.44986C0.0273438 10.636 0.895782 12.7326 2.44161 14.2784C3.98744 15.8243 6.08404 16.6927 8.27017 16.6927ZM6.62893 4.97688L4.98586 6.61812H7.81224C9.14821 6.61812 10.4295 7.14883 11.3741 8.09351C12.3188 9.03818 12.8495 10.3194 12.8495 11.6554V12.1133C12.8495 12.3562 12.753 12.5892 12.5813 12.761C12.4095 12.9327 12.1766 13.0292 11.9337 13.0292C11.6907 13.0292 11.4578 12.9327 11.286 12.761C11.1143 12.5892 11.0178 12.3562 11.0178 12.1133V11.6554C11.0178 10.8052 10.6801 9.9899 10.0789 9.38874C9.47774 8.78759 8.6624 8.44986 7.81224 8.44986H4.98586L6.62893 10.0911C6.80091 10.2631 6.89753 10.4963 6.89753 10.7395C6.89753 10.9827 6.80091 11.216 6.62893 11.388C6.45696 11.5599 6.22371 11.6566 5.9805 11.6566C5.73729 11.6566 5.50404 11.5599 5.33206 11.388L2.12285 8.1751C2.03819 8.09013 1.97111 7.98929 1.92547 7.87837C1.87982 7.76744 1.8565 7.6486 1.85684 7.52865C1.85718 7.4087 1.88118 7.29 1.92745 7.17933C1.97373 7.06867 2.04137 6.96821 2.12652 6.88372L5.33206 3.67818C5.50404 3.5062 5.73729 3.40959 5.9805 3.40959C6.22371 3.40959 6.45696 3.5062 6.62893 3.67818C6.80091 3.85015 6.89753 4.0834 6.89753 4.32661C6.89753 4.56982 6.80091 4.80307 6.62893 4.97505V4.97688ZM3.69082 17.4254C4.27148 17.7221 4.88329 17.9639 5.52256 18.1453V24.0196C5.52256 24.7029 5.7094 25.3422 6.03545 25.888L14.5878 17.484C15.1016 16.9795 15.7929 16.6968 16.513 16.6968C17.2331 16.6968 17.9244 16.9795 18.4382 17.484L26.9924 25.888C27.3281 25.3227 27.5047 24.6771 27.5034 24.0196V9.36573C27.5034 8.39411 27.1175 7.46229 26.4304 6.77526C25.7434 6.08822 24.8116 5.70225 23.84 5.70225H17.9656C17.7864 5.06951 17.5452 4.45597 17.2457 3.87051H23.84C25.2974 3.87051 26.6951 4.44947 27.7257 5.48002C28.7562 6.51058 29.3352 7.90831 29.3352 9.36573V24.0196C29.3352 25.4771 28.7562 26.8748 27.7257 27.9054C26.6951 28.9359 25.2974 29.5149 23.84 29.5149H9.18604C7.72862 29.5149 6.33089 28.9359 5.30034 27.9054C4.26978 26.8748 3.69082 25.4771 3.69082 24.0196V17.4254ZM23.84 12.1133C23.84 12.4742 23.7689 12.8314 23.6308 13.1648C23.4927 13.4982 23.2903 13.8011 23.0352 14.0562C22.7801 14.3113 22.4772 14.5137 22.1438 14.6518C21.8105 14.7899 21.4532 14.8609 21.0924 14.8609C20.7315 14.8609 20.3742 14.7899 20.0409 14.6518C19.7075 14.5137 19.4046 14.3113 19.1495 14.0562C18.8944 13.8011 18.692 13.4982 18.5539 13.1648C18.4158 12.8314 18.3447 12.4742 18.3447 12.1133C18.3447 11.3846 18.6342 10.6858 19.1495 10.1705C19.6648 9.65521 20.3636 9.36573 21.0924 9.36573C21.8211 9.36573 22.5199 9.65521 23.0352 10.1705C23.5505 10.6858 23.84 11.3846 23.84 12.1133ZM22.0082 12.1133C22.0082 11.8704 21.9117 11.6375 21.74 11.4657C21.5682 11.294 21.3353 11.1975 21.0924 11.1975C20.8494 11.1975 20.6165 11.294 20.4447 11.4657C20.273 11.6375 20.1765 11.8704 20.1765 12.1133C20.1765 12.3562 20.273 12.5892 20.4447 12.761C20.6165 12.9327 20.8494 13.0292 21.0924 13.0292C21.3353 13.0292 21.5682 12.9327 21.74 12.761C21.9117 12.5892 22.0082 12.3562 22.0082 12.1133ZM7.33232 27.1812C7.89426 27.5112 8.53438 27.6845 9.18604 27.6831H23.84C24.5177 27.6831 25.1497 27.5 25.6937 27.1812L17.1541 18.7919C16.9829 18.6241 16.7527 18.5301 16.513 18.5301C16.2733 18.5301 16.0431 18.6241 15.8719 18.7919L7.33232 27.1812Z" fill="#E8604C"/>
</svg>
