<svg width="22" height="22" viewBox="0 0 22 22" fill="none" xmlns="http://www.w3.org/2000/svg">
<path d="M15.3871 7.5293L11.7754 11.0799C11.3858 10.8922 10.9424 10.8483 10.5236 10.9559C10.1048 11.0635 9.73744 11.3157 9.48655 11.6679C9.23567 12.0202 9.11737 12.4497 9.15257 12.8808C9.18776 13.3118 9.37418 13.7165 9.67889 14.0233C9.98359 14.3302 10.387 14.5195 10.8177 14.5577C11.2485 14.5959 11.6789 14.4807 12.0329 14.2323C12.3868 13.9839 12.6416 13.6184 12.7522 13.2003C12.8628 12.7822 12.822 12.3385 12.6371 11.9476L16.2549 8.39707L15.3871 7.5293Z" fill="white"/>
<path d="M11.0009 2.59766C9.07754 2.59546 7.19374 3.14371 5.57197 4.17767C3.95019 5.21163 2.65818 6.68811 1.84852 8.43273C1.03886 10.1773 0.74538 12.1172 1.00274 14.0233C1.26009 15.9293 2.05753 17.7219 3.30088 19.1893L3.48422 19.4032H18.5175L18.7009 19.1893C19.9442 17.7219 20.7417 15.9293 20.999 14.0233C21.2564 12.1172 20.9629 10.1773 20.1532 8.43273C19.3436 6.68811 18.0516 5.21163 16.4298 4.17767C14.808 3.14371 12.9242 2.59546 11.0009 2.59766ZM17.9309 18.181H4.07088C2.97435 16.8089 2.31256 15.1406 2.17033 13.3899H4.27866V12.1677H2.17033C2.27267 10.2272 3.01394 8.37511 4.27866 6.89989L5.77588 8.39711L6.63755 7.53544L5.15255 6.03211C6.60899 4.74482 8.45042 3.97559 10.3898 3.84433V5.98322H11.612V3.85044C13.7542 4.0058 15.7667 4.93554 17.2736 6.46607C18.7805 7.9966 19.6789 10.0233 19.8009 12.1677H17.6742V13.3899H19.8314C19.6892 15.1406 19.0274 16.8089 17.9309 18.181Z" fill="white"/>
</svg>
