<svg width="479" height="73" viewBox="0 0 479 73" fill="none" xmlns="http://www.w3.org/2000/svg">
<path opacity="0.05" d="M14.4982 21.62H43.2942V4.6H14.4982V21.62ZM14.4982 46.46H42.3742V30.82H14.4982V46.46ZM0.514219 4.6V69H19.8342V4.6H0.514219ZM68.3146 69H100.791V52.9H68.3146V69ZM68.3146 20.7H100.791V4.6H68.3146V20.7ZM68.3146 43.7H98.9506V28.06H68.3146V43.7ZM54.3306 4.6V69H73.6506V4.6H54.3306ZM125.333 60.72H159.373V46.184H125.333V60.72ZM142.169 33.856L150.081 51.612L148.701 56.856L155.509 69H178.509L142.169 -5.48363e-06L105.829 69H128.829L135.821 56.212L134.257 51.612L142.169 33.856ZM171.605 22.54H190.005V69H210.245V22.54H228.645V4.6H171.605V22.54ZM234.636 4.6V47.84C234.636 52.44 235.372 56.3347 236.844 59.524C238.378 62.652 240.463 65.1973 243.1 67.16C245.738 69.0613 248.743 70.4413 252.116 71.3C255.551 72.22 259.17 72.68 262.972 72.68C266.775 72.68 270.363 72.22 273.736 71.3C277.171 70.4413 280.207 69.0613 282.844 67.16C285.482 65.1973 287.536 62.652 289.008 59.524C290.542 56.3347 291.308 52.44 291.308 47.84V4.6H271.068V46C271.068 48.576 270.394 50.692 269.044 52.348C267.756 53.9427 265.732 54.74 262.972 54.74C260.212 54.74 258.158 53.9427 256.808 52.348C255.52 50.692 254.876 48.576 254.876 46V4.6H234.636ZM322.597 41.4L338.237 69H361.697L343.297 41.4H322.597ZM303.737 4.6V69H323.977V4.6H303.737ZM316.801 21.62H329.037C330.754 21.62 332.165 21.8653 333.269 22.356C334.373 22.7853 335.201 23.46 335.753 24.38C336.366 25.2387 336.673 26.312 336.673 27.6C336.673 28.8267 336.366 29.9 335.753 30.82C335.201 31.74 334.373 32.4453 333.269 32.936C332.165 33.3653 330.754 33.58 329.037 33.58H316.801V48.76H330.877C337.194 48.76 342.316 47.8093 346.241 45.908C350.228 44.0067 353.141 41.4 354.981 38.088C356.882 34.7147 357.833 30.912 357.833 26.68C357.833 22.3867 356.882 18.584 354.981 15.272C353.141 11.96 350.228 9.35333 346.241 7.452C342.316 5.55066 337.194 4.6 330.877 4.6H316.801V21.62ZM382.139 69H414.615V52.9H382.139V69ZM382.139 20.7H414.615V4.6H382.139V20.7ZM382.139 43.7H412.775V28.06H382.139V43.7ZM368.155 4.6V69H387.475V4.6H368.155ZM436.489 44.528L422.873 54.464C424.345 57.7147 426.523 60.6587 429.405 63.296C432.288 65.9333 435.692 67.988 439.617 69.46C443.604 70.9933 447.897 71.76 452.497 71.76C455.809 71.76 459.029 71.3 462.157 70.38C465.285 69.46 468.076 68.1107 470.529 66.332C473.044 64.5533 475.037 62.3147 476.509 59.616C477.981 56.856 478.717 53.6973 478.717 50.14C478.717 47.6253 478.349 45.356 477.613 43.332C476.877 41.2467 475.773 39.376 474.301 37.72C472.891 36.064 471.173 34.6227 469.149 33.396C467.125 32.108 464.825 31.004 462.249 30.084C459.735 29.164 457.435 28.3667 455.349 27.692C453.264 26.956 451.577 26.1893 450.289 25.392C449.063 24.5333 448.449 23.46 448.449 22.172C448.449 21.1293 448.879 20.3627 449.737 19.872C450.657 19.3813 451.823 19.136 453.233 19.136C454.399 19.136 455.595 19.3507 456.821 19.78C458.048 20.2093 459.244 20.884 460.409 21.804C461.636 22.6627 462.74 23.8587 463.721 25.392L478.717 17.112C477.552 14.904 475.835 12.696 473.565 10.488C471.357 8.28 468.505 6.44 465.009 4.968C461.575 3.496 457.435 2.76 452.589 2.76C448.112 2.76 444.003 3.496 440.261 4.968C436.52 6.44 433.515 8.61733 431.245 11.5C428.976 14.3827 427.841 17.94 427.841 22.172C427.841 25.4227 428.424 28.244 429.589 30.636C430.816 33.028 432.319 35.052 434.097 36.708C435.937 38.364 437.839 39.7133 439.801 40.756C441.825 41.7987 443.604 42.6267 445.137 43.24C448.633 44.5893 451.24 45.6627 452.957 46.46C454.675 47.2573 455.809 47.9627 456.361 48.576C456.975 49.1893 457.281 49.9253 457.281 50.784C457.281 52.1947 456.729 53.2373 455.625 53.912C454.521 54.5253 453.172 54.832 451.577 54.832C449.676 54.832 447.775 54.4333 445.873 53.636C444.033 52.8387 442.316 51.6733 440.721 50.14C439.127 48.5453 437.716 46.6747 436.489 44.528Z" fill="white"/>
</svg>
