<svg width="163" height="110" viewBox="0 0 163 110" fill="none" xmlns="http://www.w3.org/2000/svg">
<path d="M161.95 4.79312C162.254 5.07395 162.273 5.54844 161.992 5.85292L157.416 10.8148C157.135 11.1192 156.661 11.1384 156.356 10.8576C156.052 10.5768 156.033 10.1023 156.313 9.7978L160.381 5.38728L155.971 1.31944C155.666 1.03861 155.647 0.564128 155.928 0.259645C156.209 -0.0448375 156.683 -0.0640172 156.988 0.216809L161.95 4.79312ZM2.17394 109.323C2.01283 109.705 1.57287 109.884 1.19128 109.723C0.80968 109.561 0.630945 109.121 0.792059 108.74L2.17394 109.323ZM161.471 6.09383C159.897 6.15745 158.246 6.25543 156.523 6.3901L156.406 4.89466C158.147 4.7586 159.817 4.65947 161.411 4.59505L161.471 6.09383ZM146.606 7.48197C143.464 7.92149 140.17 8.46617 136.752 9.12542L136.468 7.65255C139.911 6.98849 143.231 6.43957 146.398 5.99643L146.606 7.48197ZM126.991 11.2507C123.841 12.0143 120.616 12.8709 117.334 13.8265L116.915 12.3864C120.219 11.4242 123.466 10.5618 126.637 9.79293L126.991 11.2507ZM107.796 16.8401C104.7 17.8959 101.572 19.04 98.4232 20.2772L97.8746 18.8811C101.045 17.6353 104.195 16.4834 107.312 15.4204L107.796 16.8401ZM89.2137 24.147C86.2089 25.4939 83.1988 26.9284 80.1953 28.4544L79.5158 27.117C82.5418 25.5797 85.5738 24.1348 88.6001 22.7782L89.2137 24.147ZM71.4132 33.1975C68.5486 34.8403 65.7007 36.5714 62.8798 38.3941L62.0657 37.1342C64.9095 35.2967 67.7801 33.5519 70.667 31.8963L71.4132 33.1975ZM54.6518 44.037C51.9798 45.9811 49.3429 48.0147 46.7505 50.1408L45.7992 48.981C48.4147 46.836 51.0745 44.7848 53.7693 42.8241L54.6518 44.037ZM39.2298 56.6951C36.8081 58.9383 34.437 61.2718 32.1253 63.6984L31.0393 62.6638C33.373 60.214 35.7664 57.8586 38.2104 55.5946L39.2298 56.6951ZM25.4762 71.1419C23.3632 73.6671 21.3135 76.2821 19.3349 78.9895L18.1238 78.1044C20.1221 75.37 22.1921 72.7292 24.3258 70.1793L25.4762 71.1419ZM13.7188 87.2357C11.9588 90.0145 10.2714 92.8813 8.66359 95.8384L7.34578 95.1219C8.96964 92.1353 10.6739 89.2398 12.4516 86.4331L13.7188 87.2357ZM4.19679 104.742C3.50235 106.248 2.82782 107.775 2.17394 109.323L0.792059 108.74C1.45228 107.176 2.13343 105.634 2.83469 104.114L4.19679 104.742Z" fill="#2A3342"/>
</svg>
