<svg width="22" height="23" viewBox="0 0 22 23" fill="none" xmlns="http://www.w3.org/2000/svg">
<path d="M6.41667 14.668L2.75 11.0013M2.75 11.0013L6.41667 7.33464M2.75 11.0013H15.5833M10.0833 14.668V15.5846C10.0833 16.314 10.3731 17.0135 10.8888 17.5292C11.4045 18.0449 12.104 18.3346 12.8333 18.3346H16.5C17.2293 18.3346 17.9288 18.0449 18.4445 17.5292C18.9603 17.0135 19.25 16.314 19.25 15.5846V6.41797C19.25 5.68862 18.9603 4.98915 18.4445 4.47343C17.9288 3.9577 17.2293 3.66797 16.5 3.66797H12.8333C12.104 3.66797 11.4045 3.9577 10.8888 4.47343C10.3731 4.98915 10.0833 5.68862 10.0833 6.41797V7.33464" stroke="white" stroke-width="1.5" stroke-linecap="round" stroke-linejoin="round"/>
</svg>
