<svg width="88" height="112" viewBox="0 0 88 112" fill="none" xmlns="http://www.w3.org/2000/svg">
<path opacity="0.05" d="M0.702431 111.242H87.8819V90.9571H42.5114L70.6938 64.3232C75.236 60.1939 78.9007 55.6001 81.688 50.5417C84.4753 45.4834 85.8689 40.0637 85.8689 34.2827C85.8689 30.3599 85.043 26.437 83.3913 22.5142C81.8428 18.5914 79.4169 15.0299 76.1135 11.8297C72.9133 8.52627 68.8356 5.89385 63.8805 3.93244C59.0286 1.8678 53.3508 0.835473 46.8472 0.835473C38.0724 0.835473 30.6397 2.69365 24.549 6.41001C18.5616 10.0231 14.0194 14.9267 10.9224 21.1206C7.82544 27.3145 6.27696 34.2827 6.27696 42.0251H27.9557C27.9557 37.6893 28.6783 33.8697 30.1236 30.5663C31.6721 27.2629 33.7883 24.7337 36.4723 22.9788C39.2596 21.1206 42.563 20.1915 46.3826 20.1915C49.0667 20.1915 51.441 20.656 53.5056 21.5851C55.5703 22.411 57.3252 23.5465 58.7705 24.9918C60.2157 26.437 61.2997 28.0887 62.0223 29.9469C62.7449 31.8051 63.1062 33.7149 63.1062 35.6763C63.1062 38.4636 62.5901 41.1476 61.5577 43.7284C60.5254 46.3092 59.0286 48.89 57.0671 51.4708C55.1057 54.0516 52.7314 56.8389 49.9441 59.8326L0.702431 111.242Z" fill="black"/>
</svg>
