<svg width="80" height="114" viewBox="0 0 80 114" fill="none" xmlns="http://www.w3.org/2000/svg">
<path opacity="0.05" d="M34.1048 58.439C42.2601 58.439 49.538 57.355 55.9383 55.1872C62.3387 53.0193 67.3971 49.8707 71.1135 45.7414C74.8298 41.5089 76.688 36.4505 76.688 30.5663C76.688 25.095 75.2944 20.1399 72.5071 15.7009C69.7198 11.2619 65.6422 7.70041 60.2741 5.01637C55.0093 2.33234 48.6089 0.990328 41.0729 0.990328C33.9499 0.990328 27.7044 2.38396 22.3363 5.17122C16.9682 7.95849 12.7357 11.7781 9.63876 16.63C6.64503 21.3787 5.14817 26.85 5.14817 33.0439H25.743C25.743 29.0178 27.1882 25.7144 30.0787 23.1336C33.0724 20.4496 36.7372 19.1076 41.0729 19.1076C44.1699 19.1076 46.6991 19.6237 48.6605 20.656C50.6219 21.6884 52.1188 23.1852 53.1511 25.1466C54.1834 27.108 54.6996 29.3791 54.6996 31.9599C54.6996 34.0246 54.1834 36.0376 53.1511 37.999C52.222 39.8572 50.88 41.5605 49.125 43.109C47.3701 44.5543 45.2022 45.6898 42.6214 46.5157C40.1438 47.3415 37.305 47.7545 34.1048 47.7545V58.439ZM40.1438 113.41C48.1959 113.41 55.1641 112.12 61.0483 109.539C67.0358 106.855 71.6296 103.138 74.8298 98.3898C78.1332 93.6411 79.785 88.1698 79.785 81.9759C79.785 76.5046 78.6494 71.8591 76.3783 68.0396C74.1072 64.1167 70.907 60.9165 66.7777 58.439C62.6484 55.8582 57.7965 54 52.222 52.8644C46.7507 51.7289 40.7116 51.1611 34.1048 51.1611V62.9296C37.9244 62.9296 41.2794 63.3425 44.1699 64.1684C47.1636 64.891 49.6412 65.9749 51.6026 67.4202C53.6672 68.8654 55.2157 70.672 56.248 72.8399C57.2804 74.9045 57.7965 77.1756 57.7965 79.6532C57.7965 83.0598 57.0739 85.8987 55.6287 88.1698C54.1834 90.4409 52.1704 92.1959 49.5896 93.4347C47.112 94.5702 44.1699 95.138 40.7632 95.138C37.4598 95.138 34.4145 94.5186 31.6272 93.2798C28.8399 91.9378 26.6204 90.028 24.9687 87.5504C23.317 85.0729 22.4912 82.0791 22.4912 78.5692H0.502723C0.502723 83.2147 1.43181 87.6537 3.28999 91.8862C5.14817 96.0155 7.78058 99.7318 11.1872 103.035C14.5939 106.235 18.7232 108.765 23.5751 110.623C28.427 112.481 33.9499 113.41 40.1438 113.41Z" fill="black"/>
</svg>
