<svg width="533" height="79" viewBox="0 0 533 79" fill="none" xmlns="http://www.w3.org/2000/svg">
<g opacity="0.05">
<path d="M37.0652 74.3658C31.8522 74.3658 27.1218 73.4005 22.8742 71.4697C18.6265 69.4746 14.9581 66.8359 11.8689 63.5537C8.84408 60.207 6.495 56.4742 4.82168 52.3553C3.21273 48.172 2.40825 43.86 2.40825 39.4193C2.40825 34.8498 3.27709 30.5057 5.01476 26.3867C6.75243 22.2678 9.16587 18.5994 12.2551 15.3815C15.4086 12.0992 19.1092 9.52485 23.3569 7.65846C27.6689 5.79207 32.367 4.85888 37.4513 4.85888C42.6644 4.85888 47.3947 5.85643 51.6423 7.85154C55.89 9.78229 59.5262 12.421 62.5511 15.7676C65.5759 19.1142 67.8928 22.8792 69.5018 27.0625C71.1751 31.1814 72.0118 35.4291 72.0118 39.8054C72.0118 44.3105 71.1429 48.6225 69.4052 52.7415C67.7319 56.8604 65.3185 60.561 62.1649 63.8433C59.0757 67.0612 55.4073 69.6355 51.1597 71.5663C46.912 73.4327 42.2139 74.3658 37.0652 74.3658ZM21.5227 39.6124C21.5227 41.9293 21.8445 44.1818 22.488 46.37C23.1316 48.4938 24.097 50.4246 25.3842 52.1622C26.6713 53.8355 28.2803 55.1871 30.211 56.2168C32.2061 57.1822 34.5552 57.6649 37.2583 57.6649C39.9613 57.6649 42.3104 57.15 44.3055 56.1203C46.3006 55.0905 47.9096 53.7068 49.1324 51.9692C50.4195 50.1671 51.3527 48.2042 51.932 46.0804C52.5755 43.8922 52.8973 41.6718 52.8973 39.4193C52.8973 37.1024 52.5755 34.882 51.932 32.7582C51.2884 30.6344 50.323 28.7358 49.0358 27.0625C47.7487 25.3248 46.1075 23.9733 44.1124 23.0079C42.1173 22.0425 39.8004 21.5599 37.1617 21.5599C34.4587 21.5599 32.1096 22.0747 30.1145 23.1045C28.1837 24.1342 26.5748 25.5179 25.2876 27.2556C24.0005 28.9289 23.0351 30.8596 22.3915 33.0478C21.8123 35.1716 21.5227 37.3598 21.5227 39.6124ZM93.3782 5.24503L106.797 52.0657L120.023 5.24503H139.813L116.161 73.7866H97.4328L73.4915 5.24503H93.3782ZM196.758 57.3753V73.7866H147.91V5.24503H195.889V21.6564H166.735V31.3101H191.641V46.5631H166.735V57.3753H196.758ZM208.408 73.7866V5.24503H239.879C243.226 5.24503 246.315 5.92079 249.147 7.27232C251.978 8.62384 254.424 10.458 256.484 12.7749C258.543 15.0275 260.12 17.5696 261.214 20.4014C262.372 23.2332 262.952 26.0971 262.952 28.9932C262.952 31.6319 262.565 34.1741 261.793 36.6197C261.021 39.0653 259.895 41.3179 258.414 43.3773C256.934 45.3724 255.164 47.1101 253.105 48.5903L267.585 73.7866H246.926L234.859 52.7415H227.233V73.7866H208.408ZM227.233 36.3301H239.107C239.879 36.3301 240.619 36.0405 241.327 35.4613C242.035 34.882 242.614 34.0454 243.065 32.9513C243.58 31.8572 243.837 30.5378 243.837 28.9932C243.837 27.3843 243.547 26.0649 242.968 25.0352C242.453 23.9411 241.778 23.1045 240.941 22.5252C240.169 21.946 239.396 21.6564 238.624 21.6564H227.233V36.3301ZM287.034 5.24503L300.453 52.0657L313.678 5.24503H333.468L309.817 73.7866H291.088L267.147 5.24503H287.034ZM341.565 73.7866V5.24503H360.39V73.7866H341.565ZM423.949 57.3753V73.7866H375.101V5.24503H423.08V21.6564H393.926V31.3101H418.832V46.5631H393.926V57.3753H423.949ZM457.127 5.24503H474.407L480.682 26.3867L487.053 5.24503H504.334L492.749 37.9712L497.673 51.9692L512.443 5.24503H532.909L507.037 73.7866H490.722L480.682 49.2661L470.739 73.7866H454.424L428.552 5.24503H448.921L463.788 51.9692L468.518 37.9712L457.127 5.24503Z" fill="black"/>
<path d="M22.8742 71.4697L22.449 72.3749L22.4604 72.3801L22.8742 71.4697ZM11.8689 63.5537L11.127 64.2242L11.1338 64.2317L11.1407 64.239L11.8689 63.5537ZM4.82168 52.3553L3.88834 52.7143L3.8917 52.723L3.89522 52.7317L4.82168 52.3553ZM5.01476 26.3867L4.0934 25.998L4.0934 25.998L5.01476 26.3867ZM12.2551 15.3815L11.534 14.6886L11.5337 14.6889L12.2551 15.3815ZM23.3569 7.65846L22.9596 6.74072L22.9546 6.74294L23.3569 7.65846ZM51.6423 7.85154L51.2172 8.75674L51.2285 8.7619L51.6423 7.85154ZM62.5511 15.7676L61.8092 16.4382L61.8092 16.4382L62.5511 15.7676ZM69.5018 27.0625L68.5684 27.4215L68.5718 27.4302L68.5753 27.4389L69.5018 27.0625ZM69.4052 52.7415L68.4838 52.3527L68.4788 52.3651L69.4052 52.7415ZM62.1649 63.8433L61.4438 63.1504L61.4435 63.1507L62.1649 63.8433ZM51.1597 71.5663L51.562 72.4819L51.5735 72.4766L51.1597 71.5663ZM22.488 46.37L21.5286 46.6522L21.531 46.66L22.488 46.37ZM25.3842 52.1622L24.5806 52.7575L24.586 52.7647L24.5915 52.7719L25.3842 52.1622ZM30.211 56.2168L29.7404 57.0992L29.7578 57.1084L29.7755 57.117L30.211 56.2168ZM44.3055 56.1203L44.7641 57.0089L44.7641 57.0089L44.3055 56.1203ZM49.1324 51.9692L48.3186 51.3879L48.3146 51.3937L49.1324 51.9692ZM51.932 46.0804L50.9726 45.7982L50.9698 45.8077L50.9672 45.8173L51.932 46.0804ZM51.932 32.7582L50.9749 33.0482L50.9749 33.0482L51.932 32.7582ZM49.0358 27.0625L48.2323 27.6577L48.2377 27.665L48.2432 27.6722L49.0358 27.0625ZM44.1124 23.0079L44.548 22.1078L44.548 22.1078L44.1124 23.0079ZM30.1145 23.1045L29.6558 22.2158L29.6439 22.2221L30.1145 23.1045ZM25.2876 27.2556L26.0802 27.8653L26.0858 27.8581L26.0912 27.8508L25.2876 27.2556ZM22.3915 33.0478L21.4321 32.7656L21.4293 32.7751L21.4267 32.7847L22.3915 33.0478ZM37.0652 73.3658C31.9781 73.3658 27.3912 72.4244 23.288 70.5594L22.4604 72.3801C26.8525 74.3765 31.7262 75.3658 37.0652 75.3658V73.3658ZM23.2993 70.5646C19.1609 68.6208 15.5965 66.0551 12.5971 62.8683L11.1407 64.239C14.3197 67.6167 18.0922 70.3285 22.4491 72.3749L23.2993 70.5646ZM12.6108 62.8831C9.663 59.6217 7.37691 55.9882 5.74815 51.9789L3.89522 52.7317C5.61309 56.9603 8.02516 60.7923 11.127 64.2242L12.6108 62.8831ZM5.75503 51.9963C4.18971 47.9265 3.40825 43.7361 3.40825 39.4193H1.40825C1.40825 43.9839 2.23574 48.4175 3.88834 52.7143L5.75503 51.9963ZM3.40825 39.4193C3.40825 34.9803 4.25151 30.7686 5.93612 26.7754L4.0934 25.998C2.30266 30.2427 1.40825 34.7194 1.40825 39.4193H3.40825ZM5.93612 26.7754C7.62638 22.7689 9.97212 19.2035 12.9765 16.074L11.5337 14.6889C8.35962 17.9952 5.87849 21.7667 4.0934 25.998L5.93612 26.7754ZM12.9762 16.0743C16.0373 12.8882 19.629 10.3888 23.7591 8.57398L22.9546 6.74294C18.5895 8.66094 14.78 11.3101 11.534 14.6886L12.9762 16.0743ZM23.7541 8.57618C27.9307 6.7684 32.4923 5.85888 37.4513 5.85888V3.85888C32.2417 3.85888 27.4071 4.81574 22.9597 6.74074L23.7541 8.57618ZM37.4513 5.85888C42.5338 5.85888 47.1167 6.83066 51.2172 8.75667L52.0675 6.94641C47.6727 4.8822 42.7949 3.85888 37.4513 3.85888V5.85888ZM51.2285 8.7619C55.356 10.638 58.8793 13.1966 61.8092 16.4382L63.293 15.0971C60.1732 11.6454 56.424 8.92657 52.0562 6.94117L51.2285 8.7619ZM61.8092 16.4382C64.7522 19.6942 67.0039 23.3537 68.5684 27.4215L70.4351 26.7035C68.7817 22.4047 66.3997 18.5343 63.293 15.0971L61.8092 16.4382ZM68.5753 27.4389C70.2009 31.4402 71.0118 35.5602 71.0118 39.8054H73.0118C73.0118 35.298 72.1493 30.9226 70.4282 26.6861L68.5753 27.4389ZM71.0118 39.8054C71.0118 44.1781 70.1692 48.3578 68.4839 52.3528L70.3266 53.1302C72.1166 48.8872 73.0118 44.443 73.0118 39.8054H71.0118ZM68.4788 52.3651C66.8544 56.3636 64.5116 59.9574 61.4438 63.1504L62.886 64.5361C66.1254 61.1645 68.6095 57.3571 70.3317 53.1178L68.4788 52.3651ZM61.4435 63.1507C58.4462 66.273 54.8835 68.7752 50.7459 70.6559L51.5735 72.4766C55.9311 70.4959 59.7053 67.8493 62.8863 64.5358L61.4435 63.1507ZM50.7574 70.6507C46.6498 72.4556 42.0906 73.3658 37.0652 73.3658V75.3658C42.3371 75.3658 47.1742 74.4097 51.5619 72.4818L50.7574 70.6507ZM20.5227 39.6124C20.5227 42.0232 20.8577 44.3709 21.5287 46.6521L23.4474 46.0878C22.8312 43.9927 22.5227 41.8353 22.5227 39.6124H20.5227ZM21.531 46.66C22.207 48.8907 23.2234 50.9252 24.5806 52.7575L26.1877 51.567C24.9706 49.9239 24.0563 48.0969 23.4451 46.08L21.531 46.66ZM24.5915 52.7719C25.9686 54.5622 27.6889 56.005 29.7404 57.0992L30.6816 55.3345C28.8717 54.3692 27.374 53.1089 26.1768 51.5525L24.5915 52.7719ZM29.7755 57.117C31.9329 58.1609 34.4369 58.6649 37.2583 58.6649V56.6649C34.6735 56.6649 32.4794 56.2035 30.6466 55.3166L29.7755 57.117ZM37.2583 58.6649C40.0886 58.6649 42.6011 58.1253 44.7641 57.0089L43.8469 55.2316C42.0197 56.1747 39.834 56.6649 37.2583 56.6649V58.6649ZM44.7641 57.0089C46.8941 55.9096 48.6294 54.4216 49.9502 52.5446L48.3146 51.3937C47.1898 52.9921 45.7071 54.2715 43.8469 55.2316L44.7641 57.0089ZM49.9461 52.5504C51.3016 50.6527 52.2862 48.5821 52.8967 46.3435L50.9672 45.8173C50.4193 47.8262 49.5375 49.6816 48.3186 51.3879L49.9461 52.5504ZM52.8913 46.3625C53.5615 44.0839 53.8973 41.7685 53.8973 39.4193H51.8973C51.8973 41.5751 51.5896 43.7005 50.9726 45.7982L52.8913 46.3625ZM53.8973 39.4193C53.8973 37.0085 53.5623 34.6901 52.889 32.4682L50.9749 33.0482C51.5888 35.0739 51.8973 37.1963 51.8973 39.4193H53.8973ZM52.889 32.4682C52.2122 30.2347 51.193 28.2267 49.8285 26.4528L48.2432 27.6722C49.453 29.2449 50.3646 31.034 50.9749 33.0482L52.889 32.4682ZM49.8394 26.4673C48.4536 24.5964 46.6848 23.1417 44.548 22.1078L43.6769 23.9081C45.5302 24.8049 47.0438 26.0533 48.2323 27.6577L49.8394 26.4673ZM44.548 22.1078C42.3936 21.0653 39.9228 20.5599 37.1617 20.5599V22.5599C39.678 22.5599 41.841 23.0198 43.6769 23.9081L44.548 22.1078ZM37.1617 20.5599C34.3314 20.5599 31.8189 21.0994 29.6559 22.2158L30.5731 23.9931C32.4003 23.05 34.586 22.5599 37.1617 22.5599V20.5599ZM29.6439 22.2221C27.5839 23.3208 25.8606 24.802 24.4841 26.6603L26.0912 27.8508C27.289 26.2338 28.7836 24.9476 30.5851 23.9868L29.6439 22.2221ZM24.495 26.6459C23.1266 28.4247 22.1078 30.4685 21.4321 32.7656L23.3509 33.33C23.9624 31.2508 24.8743 29.433 26.0802 27.8653L24.495 26.6459ZM21.4267 32.7847C20.8236 34.9963 20.5227 37.273 20.5227 39.6124H22.5227C22.5227 37.4466 22.801 35.347 23.3563 33.3109L21.4267 32.7847ZM93.3782 5.24503L94.3395 4.96952L94.1319 4.24503H93.3782V5.24503ZM106.797 52.0657L105.836 52.3412L106.804 55.7197L107.759 52.3375L106.797 52.0657ZM120.023 5.24503V4.24503H119.266L119.06 4.97319L120.023 5.24503ZM139.813 5.24503L140.758 5.57122L141.216 4.24503H139.813V5.24503ZM116.161 73.7866V74.7866H116.874L117.106 74.1128L116.161 73.7866ZM97.4328 73.7866L96.4887 74.1164L96.7228 74.7866H97.4328V73.7866ZM73.4915 5.24503V4.24503H72.0829L72.5474 5.57478L73.4915 5.24503ZM92.4169 5.52053L105.836 52.3412L107.758 51.7902L94.3395 4.96952L92.4169 5.52053ZM107.759 52.3375L120.985 5.51686L119.06 4.97319L105.835 51.7939L107.759 52.3375ZM120.023 6.24503H139.813V4.24503H120.023V6.24503ZM138.867 4.91883L115.216 73.4604L117.106 74.1128L140.758 5.57122L138.867 4.91883ZM116.161 72.7866H97.4328V74.7866H116.161V72.7866ZM98.3768 73.4569L74.4356 4.91527L72.5474 5.57478L96.4887 74.1164L98.3768 73.4569ZM73.4915 6.24503H93.3782V4.24503H73.4915V6.24503ZM196.758 57.3753H197.758V56.3753H196.758V57.3753ZM196.758 73.7866V74.7866H197.758V73.7866H196.758ZM147.91 73.7866H146.91V74.7866H147.91V73.7866ZM147.91 5.24503V4.24503H146.91V5.24503H147.91ZM195.889 5.24503H196.889V4.24503H195.889V5.24503ZM195.889 21.6564V22.6564H196.889V21.6564H195.889ZM166.735 21.6564V20.6564H165.735V21.6564H166.735ZM166.735 31.3101H165.735V32.3101H166.735V31.3101ZM191.641 31.3101H192.641V30.3101H191.641V31.3101ZM191.641 46.5631V47.5631H192.641V46.5631H191.641ZM166.735 46.5631V45.5631H165.735V46.5631H166.735ZM166.735 57.3753H165.735V58.3753H166.735V57.3753ZM195.758 57.3753V73.7866H197.758V57.3753H195.758ZM196.758 72.7866H147.91V74.7866H196.758V72.7866ZM148.91 73.7866V5.24503H146.91V73.7866H148.91ZM147.91 6.24503H195.889V4.24503H147.91V6.24503ZM194.889 5.24503V21.6564H196.889V5.24503H194.889ZM195.889 20.6564H166.735V22.6564H195.889V20.6564ZM165.735 21.6564V31.3101H167.735V21.6564H165.735ZM166.735 32.3101H191.641V30.3101H166.735V32.3101ZM190.641 31.3101V46.5631H192.641V31.3101H190.641ZM191.641 45.5631H166.735V47.5631H191.641V45.5631ZM165.735 46.5631V57.3753H167.735V46.5631H165.735ZM166.735 58.3753H196.758V56.3753H166.735V58.3753ZM208.408 73.7866H207.408V74.7866H208.408V73.7866ZM208.408 5.24503V4.24503H207.408V5.24503H208.408ZM249.147 7.27232L248.716 8.1748L248.716 8.1748L249.147 7.27232ZM256.484 12.7749L255.736 13.4394L255.745 13.4497L256.484 12.7749ZM261.214 20.4014L260.281 20.7618L260.285 20.771L260.288 20.78L261.214 20.4014ZM261.793 36.6197L260.839 36.3186L260.839 36.3186L261.793 36.6197ZM258.414 43.3773L259.217 43.9732L259.222 43.9671L259.226 43.961L258.414 43.3773ZM253.105 48.5903L252.521 47.7783L251.788 48.3055L252.238 49.0886L253.105 48.5903ZM267.585 73.7866V74.7866H269.313L268.452 73.2883L267.585 73.7866ZM246.926 73.7866L246.059 74.284L246.347 74.7866H246.926V73.7866ZM234.859 52.7415L235.727 52.244L235.438 51.7415H234.859V52.7415ZM227.233 52.7415V51.7415H226.233V52.7415H227.233ZM227.233 73.7866V74.7866H228.233V73.7866H227.233ZM227.233 36.3301H226.233V37.3301H227.233V36.3301ZM241.327 35.4613L240.694 34.6873L240.694 34.6873L241.327 35.4613ZM243.065 32.9513L242.16 32.5255L242.15 32.5478L242.14 32.5705L243.065 32.9513ZM242.968 25.0352L242.063 25.461L242.079 25.4938L242.097 25.5255L242.968 25.0352ZM240.941 22.5252L240.341 23.3252L240.356 23.3366L240.372 23.3474L240.941 22.5252ZM227.233 21.6564V20.6564H226.233V21.6564H227.233ZM209.408 73.7866V5.24503H207.408V73.7866H209.408ZM208.408 6.24503H239.879V4.24503H208.408V6.24503ZM239.879 6.24503C243.087 6.24503 246.028 6.8917 248.716 8.1748L249.577 6.36983C246.602 4.94988 243.365 4.24503 239.879 4.24503V6.24503ZM248.716 8.1748C251.429 9.46958 253.766 11.2234 255.736 13.4393L257.231 12.1106C255.082 9.69274 252.528 7.77809 249.577 6.36983L248.716 8.1748ZM255.745 13.4497C257.722 15.611 259.232 18.0467 260.281 20.7618L262.147 20.041C261.007 17.0926 259.364 14.444 257.222 12.1002L255.745 13.4497ZM260.288 20.78C261.4 23.4985 261.952 26.2342 261.952 28.9932H263.952C263.952 25.96 263.344 22.9678 262.139 20.0228L260.288 20.78ZM261.952 28.9932C261.952 31.5328 261.58 33.9732 260.839 36.3186L262.747 36.9208C263.551 34.375 263.952 31.7311 263.952 28.9932H261.952ZM260.839 36.3186C260.099 38.6643 259.02 40.8213 257.602 42.7937L259.226 43.961C260.769 41.8144 261.943 39.4664 262.747 36.9208L260.839 36.3186ZM257.611 42.7815C256.194 44.6919 254.498 46.3571 252.521 47.7783L253.688 49.4024C255.83 47.8631 257.674 46.053 259.217 43.9732L257.611 42.7815ZM252.238 49.0886L266.718 74.2849L268.452 73.2883L253.972 48.0921L252.238 49.0886ZM267.585 72.7866H246.926V74.7866H267.585V72.7866ZM247.794 73.2892L235.727 52.244L233.992 53.2389L246.059 74.284L247.794 73.2892ZM234.859 51.7415H227.233V53.7415H234.859V51.7415ZM226.233 52.7415V73.7866H228.233V52.7415H226.233ZM227.233 72.7866H208.408V74.7866H227.233V72.7866ZM227.233 37.3301H239.107V35.3301H227.233V37.3301ZM239.107 37.3301C240.151 37.3301 241.108 36.9325 241.96 36.2352L240.694 34.6873C240.13 35.1485 239.607 35.3301 239.107 35.3301V37.3301ZM241.96 36.2352C242.829 35.5248 243.494 34.5356 243.989 33.332L242.14 32.5705C241.735 33.5551 241.241 34.2393 240.694 34.6873L241.96 36.2352ZM243.97 33.3771C244.562 32.1182 244.837 30.6456 244.837 28.9932H242.837C242.837 30.4301 242.597 31.5962 242.16 32.5255L243.97 33.3771ZM244.837 28.9932C244.837 27.272 244.528 25.7688 243.84 24.5449L242.097 25.5255C242.567 26.361 242.837 27.4965 242.837 28.9932H244.837ZM243.873 24.6094C243.297 23.3861 242.517 22.3999 241.51 21.703L240.372 23.3474C241.038 23.809 241.609 24.4962 242.063 25.461L243.873 24.6094ZM241.541 21.7252C240.64 21.0491 239.662 20.6564 238.624 20.6564V22.6564C239.131 22.6564 239.698 22.8429 240.341 23.3252L241.541 21.7252ZM238.624 20.6564H227.233V22.6564H238.624V20.6564ZM226.233 21.6564V36.3301H228.233V21.6564H226.233ZM287.034 5.24503L287.995 4.96952L287.788 4.24503H287.034V5.24503ZM300.453 52.0657L299.491 52.3412L300.46 55.7197L301.415 52.3375L300.453 52.0657ZM313.678 5.24503V4.24503H312.922L312.716 4.97319L313.678 5.24503ZM333.468 5.24503L334.414 5.57122L334.871 4.24503H333.468V5.24503ZM309.817 73.7866V74.7866H310.529L310.762 74.1128L309.817 73.7866ZM291.088 73.7866L290.144 74.1164L290.378 74.7866H291.088V73.7866ZM267.147 5.24503V4.24503H265.739L266.203 5.57478L267.147 5.24503ZM286.073 5.52053L299.491 52.3412L301.414 51.7902L287.995 4.96952L286.073 5.52053ZM301.415 52.3375L314.641 5.51686L312.716 4.97319L299.49 51.7939L301.415 52.3375ZM313.678 6.24503H333.468V4.24503H313.678V6.24503ZM332.523 4.91883L308.871 73.4604L310.762 74.1128L334.414 5.57122L332.523 4.91883ZM309.817 72.7866H291.088V74.7866H309.817V72.7866ZM292.032 73.4569L268.091 4.91527L266.203 5.57478L290.144 74.1164L292.032 73.4569ZM267.147 6.24503H287.034V4.24503H267.147V6.24503ZM341.565 73.7866H340.565V74.7866H341.565V73.7866ZM341.565 5.24503V4.24503H340.565V5.24503H341.565ZM360.39 5.24503H361.39V4.24503H360.39V5.24503ZM360.39 73.7866V74.7866H361.39V73.7866H360.39ZM342.565 73.7866V5.24503H340.565V73.7866H342.565ZM341.565 6.24503H360.39V4.24503H341.565V6.24503ZM359.39 5.24503V73.7866H361.39V5.24503H359.39ZM360.39 72.7866H341.565V74.7866H360.39V72.7866ZM423.949 57.3753H424.949V56.3753H423.949V57.3753ZM423.949 73.7866V74.7866H424.949V73.7866H423.949ZM375.101 73.7866H374.101V74.7866H375.101V73.7866ZM375.101 5.24503V4.24503H374.101V5.24503H375.101ZM423.08 5.24503H424.08V4.24503H423.08V5.24503ZM423.08 21.6564V22.6564H424.08V21.6564H423.08ZM393.926 21.6564V20.6564H392.926V21.6564H393.926ZM393.926 31.3101H392.926V32.3101H393.926V31.3101ZM418.832 31.3101H419.832V30.3101H418.832V31.3101ZM418.832 46.5631V47.5631H419.832V46.5631H418.832ZM393.926 46.5631V45.5631H392.926V46.5631H393.926ZM393.926 57.3753H392.926V58.3753H393.926V57.3753ZM422.949 57.3753V73.7866H424.949V57.3753H422.949ZM423.949 72.7866H375.101V74.7866H423.949V72.7866ZM376.101 73.7866V5.24503H374.101V73.7866H376.101ZM375.101 6.24503H423.08V4.24503H375.101V6.24503ZM422.08 5.24503V21.6564H424.08V5.24503H422.08ZM423.08 20.6564H393.926V22.6564H423.08V20.6564ZM392.926 21.6564V31.3101H394.926V21.6564H392.926ZM393.926 32.3101H418.832V30.3101H393.926V32.3101ZM417.832 31.3101V46.5631H419.832V31.3101H417.832ZM418.832 45.5631H393.926V47.5631H418.832V45.5631ZM392.926 46.5631V57.3753H394.926V46.5631H392.926ZM393.926 58.3753H423.949V56.3753H393.926V58.3753ZM457.127 5.24503V4.24503H455.72L456.182 5.57376L457.127 5.24503ZM474.407 5.24503L475.366 4.96049L475.153 4.24503H474.407V5.24503ZM480.682 26.3867L479.723 26.6713L480.675 29.8766L481.639 26.6753L480.682 26.3867ZM487.053 5.24503V4.24503H486.31L486.096 4.95647L487.053 5.24503ZM504.334 5.24503L505.276 5.57872L505.748 4.24503H504.334V5.24503ZM492.749 37.9712L491.806 37.6375L491.689 37.9702L491.806 38.303L492.749 37.9712ZM497.673 51.9692L496.729 52.301L497.723 55.1268L498.626 52.2706L497.673 51.9692ZM512.443 5.24503V4.24503H511.71L511.489 4.94361L512.443 5.24503ZM532.909 5.24503L533.844 5.59817L534.355 4.24503H532.909V5.24503ZM507.037 73.7866V74.7866H507.728L507.972 74.1398L507.037 73.7866ZM490.722 73.7866L489.796 74.1655L490.051 74.7866H490.722V73.7866ZM480.682 49.2661L481.607 48.8872L480.677 46.6161L479.755 48.8903L480.682 49.2661ZM470.739 73.7866V74.7866H471.412L471.665 74.1624L470.739 73.7866ZM454.424 73.7866L453.488 74.1398L453.732 74.7866H454.424V73.7866ZM428.552 5.24503V4.24503H427.105L427.616 5.59817L428.552 5.24503ZM448.921 5.24503L449.874 4.94182L449.652 4.24503H448.921V5.24503ZM463.788 51.9692L462.835 52.2724L463.759 55.1774L464.735 52.2893L463.788 51.9692ZM468.518 37.9712L469.466 38.2914L469.575 37.9664L469.463 37.6425L468.518 37.9712ZM457.127 6.24503H474.407V4.24503H457.127V6.24503ZM473.448 5.52956L479.723 26.6713L481.641 26.1022L475.366 4.96049L473.448 5.52956ZM481.639 26.6753L488.011 5.53358L486.096 4.95647L479.724 26.0982L481.639 26.6753ZM487.053 6.24503H504.334V4.24503H487.053V6.24503ZM503.391 4.91133L491.806 37.6375L493.692 38.3049L505.276 5.57872L503.391 4.91133ZM491.806 38.303L496.729 52.301L498.616 51.6374L493.692 37.6394L491.806 38.303ZM498.626 52.2706L513.396 5.54644L511.489 4.94361L496.719 51.6677L498.626 52.2706ZM512.443 6.24503H532.909V4.24503H512.443V6.24503ZM531.973 4.89188L506.101 73.4335L507.972 74.1398L533.844 5.59817L531.973 4.89188ZM507.037 72.7866H490.722V74.7866H507.037V72.7866ZM491.647 73.4077L481.607 48.8872L479.757 49.645L489.796 74.1655L491.647 73.4077ZM479.755 48.8903L469.812 73.4108L471.665 74.1624L481.609 49.6419L479.755 48.8903ZM470.739 72.7866H454.424V74.7866H470.739V72.7866ZM455.359 73.4335L429.487 4.89188L427.616 5.59817L453.488 74.1398L455.359 73.4335ZM428.552 6.24503H448.921V4.24503H428.552V6.24503ZM447.968 5.54823L462.835 52.2724L464.741 51.666L449.874 4.94182L447.968 5.54823ZM464.735 52.2893L469.466 38.2914L467.571 37.6511L462.841 51.649L464.735 52.2893ZM469.463 37.6425L458.071 4.91629L456.182 5.57376L467.574 38.3L469.463 37.6425Z" fill="black"/>
</g>
</svg>
