<svg width="442" height="70" viewBox="0 0 442 70" fill="none" xmlns="http://www.w3.org/2000/svg">
<path opacity="0.05" d="M0.701719 2.6V67H20.9417V2.6H0.701719ZM13.7657 18.7H26.0017C28.5164 18.7 30.4177 19.2213 31.7057 20.264C32.9937 21.3067 33.6377 22.7787 33.6377 24.68C33.6377 26.5813 32.9937 28.0533 31.7057 29.096C30.4177 30.1387 28.5164 30.66 26.0017 30.66H13.7657V46.76H26.0017C32.3191 46.76 37.4404 45.8707 41.3657 44.092C45.3524 42.3133 48.2657 39.768 50.1057 36.456C52.0071 33.144 52.9577 29.2187 52.9577 24.68C52.9577 20.08 52.0071 16.1547 50.1057 12.904C48.2657 9.592 45.3524 7.04667 41.3657 5.268C37.4404 3.48933 32.3191 2.6 26.0017 2.6H13.7657V18.7ZM81.0148 39.4L96.6548 67H120.115L101.715 39.4H81.0148ZM62.1548 2.6V67H82.3948V2.6H62.1548ZM75.2188 19.62H87.4548C89.1722 19.62 90.5828 19.8653 91.6868 20.356C92.7908 20.7853 93.6188 21.46 94.1708 22.38C94.7842 23.2387 95.0908 24.312 95.0908 25.6C95.0908 26.8267 94.7842 27.9 94.1708 28.82C93.6188 29.74 92.7908 30.4453 91.6868 30.936C90.5828 31.3653 89.1722 31.58 87.4548 31.58H75.2188V46.76H89.2948C95.6122 46.76 100.734 45.8093 104.659 43.908C108.646 42.0067 111.559 39.4 113.399 36.088C115.3 32.7147 116.251 28.912 116.251 24.68C116.251 20.3867 115.3 16.584 113.399 13.272C111.559 9.96 108.646 7.35333 104.659 5.452C100.734 3.55066 95.6122 2.6 89.2948 2.6H75.2188V19.62ZM144.329 34.8C144.329 31.6107 144.911 28.8507 146.077 26.52C147.242 24.128 148.898 22.288 151.045 21C153.191 19.6507 155.767 18.976 158.773 18.976C161.962 18.976 164.599 19.6507 166.685 21C168.831 22.288 170.457 24.128 171.561 26.52C172.665 28.8507 173.217 31.6107 173.217 34.8C173.217 37.928 172.634 40.688 171.469 43.08C170.303 45.472 168.647 47.3427 166.501 48.692C164.354 49.98 161.778 50.624 158.773 50.624C155.767 50.624 153.191 49.98 151.045 48.692C148.898 47.3427 147.242 45.472 146.077 43.08C144.911 40.688 144.329 37.928 144.329 34.8ZM122.893 34.8C122.893 39.952 123.751 44.6747 125.469 48.968C127.247 53.2 129.731 56.88 132.921 60.008C136.11 63.136 139.882 65.528 144.237 67.184C148.653 68.9013 153.498 69.76 158.773 69.76C164.047 69.76 168.862 68.9013 173.217 67.184C177.633 65.528 181.435 63.136 184.625 60.008C187.814 56.88 190.267 53.2 191.985 48.968C193.763 44.6747 194.653 39.952 194.653 34.8C194.653 29.648 193.763 24.9867 191.985 20.816C190.206 16.6453 187.691 13.0573 184.441 10.052C181.19 7.04666 177.387 4.74666 173.033 3.152C168.678 1.55733 163.925 0.759997 158.773 0.759997C153.743 0.759997 149.051 1.55733 144.697 3.152C140.342 4.74666 136.539 7.04666 133.289 10.052C130.038 13.0573 127.493 16.6453 125.653 20.816C123.813 24.9867 122.893 29.648 122.893 34.8ZM222.422 34.8C222.422 31.488 223.158 28.728 224.63 26.52C226.164 24.2507 228.157 22.564 230.61 21.46C233.125 20.356 235.885 19.804 238.89 19.804C241.957 19.804 244.594 20.2027 246.802 21C249.01 21.736 250.942 22.7173 252.598 23.944C254.316 25.1707 255.849 26.428 257.198 27.716V6.92399C254.684 5.14533 251.924 3.67333 248.918 2.508C245.974 1.34266 242.141 0.759997 237.418 0.759997C231.837 0.759997 226.746 1.55733 222.146 3.152C217.546 4.74666 213.621 7.04666 210.37 10.052C207.12 13.0573 204.605 16.6453 202.826 20.816C201.048 24.9867 200.158 29.648 200.158 34.8C200.158 39.952 201.048 44.6133 202.826 48.784C204.605 52.9547 207.12 56.5427 210.37 59.548C213.621 62.5533 217.546 64.8533 222.146 66.448C226.746 68.0427 231.837 68.84 237.418 68.84C242.141 68.84 245.974 68.2267 248.918 67C251.924 65.8347 254.684 64.3933 257.198 62.676V41.884C255.849 43.172 254.316 44.4293 252.598 45.656C250.942 46.8213 249.01 47.8027 246.802 48.6C244.594 49.3973 241.957 49.796 238.89 49.796C235.885 49.796 233.125 49.244 230.61 48.14C228.157 47.036 226.164 45.38 224.63 43.172C223.158 40.9027 222.422 38.112 222.422 34.8ZM283.139 67H315.615V50.9H283.139V67ZM283.139 18.7H315.615V2.6H283.139V18.7ZM283.139 41.7H313.775V26.06H283.139V41.7ZM269.155 2.6V67H288.475V2.6H269.155ZM337.489 42.528L323.873 52.464C325.345 55.7147 327.523 58.6587 330.405 61.296C333.288 63.9333 336.692 65.988 340.617 67.46C344.604 68.9933 348.897 69.76 353.497 69.76C356.809 69.76 360.029 69.3 363.157 68.38C366.285 67.46 369.076 66.1107 371.529 64.332C374.044 62.5533 376.037 60.3147 377.509 57.616C378.981 54.856 379.717 51.6973 379.717 48.14C379.717 45.6253 379.349 43.356 378.613 41.332C377.877 39.2467 376.773 37.376 375.301 35.72C373.891 34.064 372.173 32.6227 370.149 31.396C368.125 30.108 365.825 29.004 363.249 28.084C360.735 27.164 358.435 26.3667 356.349 25.692C354.264 24.956 352.577 24.1893 351.289 23.392C350.063 22.5333 349.449 21.46 349.449 20.172C349.449 19.1293 349.879 18.3627 350.737 17.872C351.657 17.3813 352.823 17.136 354.233 17.136C355.399 17.136 356.595 17.3507 357.821 17.78C359.048 18.2093 360.244 18.884 361.409 19.804C362.636 20.6627 363.74 21.8587 364.721 23.392L379.717 15.112C378.552 12.904 376.835 10.696 374.565 8.488C372.357 6.28 369.505 4.44 366.009 2.968C362.575 1.496 358.435 0.759997 353.589 0.759997C349.112 0.759997 345.003 1.496 341.261 2.968C337.52 4.44 334.515 6.61733 332.245 9.5C329.976 12.3827 328.841 15.94 328.841 20.172C328.841 23.4227 329.424 26.244 330.589 28.636C331.816 31.028 333.319 33.052 335.097 34.708C336.937 36.364 338.839 37.7133 340.801 38.756C342.825 39.7987 344.604 40.6267 346.137 41.24C349.633 42.5893 352.24 43.6627 353.957 44.46C355.675 45.2573 356.809 45.9627 357.361 46.576C357.975 47.1893 358.281 47.9253 358.281 48.784C358.281 50.1947 357.729 51.2373 356.625 51.912C355.521 52.5253 354.172 52.832 352.577 52.832C350.676 52.832 348.775 52.4333 346.873 51.636C345.033 50.8387 343.316 49.6733 341.721 48.14C340.127 46.5453 338.716 44.6747 337.489 42.528ZM399.302 42.528L385.686 52.464C387.158 55.7147 389.335 58.6587 392.218 61.296C395.1 63.9333 398.504 65.988 402.43 67.46C406.416 68.9933 410.71 69.76 415.31 69.76C418.622 69.76 421.842 69.3 424.97 68.38C428.098 67.46 430.888 66.1107 433.342 64.332C435.856 62.5533 437.85 60.3147 439.322 57.616C440.794 54.856 441.53 51.6973 441.53 48.14C441.53 45.6253 441.162 43.356 440.426 41.332C439.69 39.2467 438.586 37.376 437.114 35.72C435.703 34.064 433.986 32.6227 431.962 31.396C429.938 30.108 427.638 29.004 425.062 28.084C422.547 27.164 420.247 26.3667 418.162 25.692C416.076 24.956 414.39 24.1893 413.102 23.392C411.875 22.5333 411.262 21.46 411.262 20.172C411.262 19.1293 411.691 18.3627 412.55 17.872C413.47 17.3813 414.635 17.136 416.046 17.136C417.211 17.136 418.407 17.3507 419.634 17.78C420.86 18.2093 422.056 18.884 423.222 19.804C424.448 20.6627 425.552 21.8587 426.534 23.392L441.53 15.112C440.364 12.904 438.647 10.696 436.378 8.488C434.17 6.28 431.318 4.44 427.822 2.968C424.387 1.496 420.247 0.759997 415.402 0.759997C410.924 0.759997 406.815 1.496 403.074 2.968C399.332 4.44 396.327 6.61733 394.058 9.5C391.788 12.3827 390.654 15.94 390.654 20.172C390.654 23.4227 391.236 26.244 392.402 28.636C393.628 31.028 395.131 33.052 396.91 34.708C398.75 36.364 400.651 37.7133 402.614 38.756C404.638 39.7987 406.416 40.6267 407.95 41.24C411.446 42.5893 414.052 43.6627 415.77 44.46C417.487 45.2573 418.622 45.9627 419.174 46.576C419.787 47.1893 420.094 47.9253 420.094 48.784C420.094 50.1947 419.542 51.2373 418.438 51.912C417.334 52.5253 415.984 52.832 414.39 52.832C412.488 52.832 410.587 52.4333 408.686 51.636C406.846 50.8387 405.128 49.6733 403.534 48.14C401.939 46.5453 400.528 44.6747 399.302 42.528Z" fill="black"/>
</svg>
