<svg width="179" height="81" viewBox="0 0 179 81" fill="none" xmlns="http://www.w3.org/2000/svg">
<path d="M1.82773 0.882695C1.89267 0.473605 2.27696 0.194623 2.68605 0.259572L9.35255 1.31797C9.76164 1.38292 10.0406 1.7672 9.97568 2.17629C9.91073 2.58538 9.52644 2.86436 9.11735 2.79942L3.19157 1.85862L2.25077 7.7844C2.18582 8.19349 1.80154 8.47247 1.39245 8.40752C0.983361 8.34257 0.704379 7.95829 0.769328 7.5492L1.82773 0.882695ZM177.396 75.9203C177.803 75.8429 178.195 76.1099 178.273 76.5169C178.35 76.9238 178.083 77.3164 177.676 77.3938L177.396 75.9203ZM3.17537 0.55968C4.10083 1.83445 5.09791 3.15477 6.16492 4.51391L4.98506 5.44017C3.90702 4.06697 2.89856 2.73164 1.96152 1.44091L3.17537 0.55968ZM12.5708 12.1624C14.6783 14.5339 16.9576 16.9735 19.4012 19.4532L18.3328 20.5061C15.8713 18.0082 13.5744 15.5498 11.4496 13.1588L12.5708 12.1624ZM26.5809 26.3993C28.9626 28.5978 31.463 30.807 34.0775 33.0084L33.1114 34.1558C30.4792 31.9394 27.9616 29.7152 25.5634 27.5014L26.5809 26.3993ZM41.8731 39.2767C44.4678 41.268 47.1544 43.2379 49.9293 45.1724L49.0714 46.4029C46.2773 44.455 43.5722 42.4715 40.9599 40.4667L41.8731 39.2767ZM58.2552 50.6924C61.0419 52.4467 63.9043 54.1568 66.8394 55.8108L66.103 57.1176C63.1461 55.4513 60.2627 53.7287 57.4561 51.9618L58.2552 50.6924ZM75.6552 60.4908C78.6105 61.9644 81.6299 63.3752 84.7106 64.7126L84.1133 66.0885C81.0075 64.7402 77.9641 63.3182 74.9859 61.8332L75.6552 60.4908ZM93.9682 68.4328C97.0675 69.579 100.222 70.6464 103.428 71.6255L102.99 73.0601C99.7552 72.0724 96.5735 70.9956 93.4479 69.8397L93.9682 68.4328ZM113.052 74.2518C116.262 75.0239 119.518 75.7038 122.819 76.2827L122.56 77.7602C119.228 77.1758 115.941 76.4895 112.701 75.7102L113.052 74.2518ZM132.7 77.6907C135.973 78.0496 139.286 78.306 142.636 78.452L142.571 79.9506C139.187 79.8031 135.842 79.5442 132.537 79.1818L132.7 77.6907ZM152.613 78.5552C155.901 78.4797 159.222 78.295 162.575 77.994L162.709 79.488C159.323 79.792 155.969 79.9785 152.647 80.0548L152.613 78.5552ZM172.461 76.7762C174.1 76.5196 175.744 76.2345 177.396 75.9203L177.676 77.3938C176.009 77.7112 174.348 77.999 172.694 78.2581L172.461 76.7762Z" fill="#2A3342"/>
</svg>
