<svg width="161" height="161" viewBox="0 0 161 161" fill="none" xmlns="http://www.w3.org/2000/svg">
<path d="M87.7074 132.13C98.6876 119.108 106.305 103.421 104.08 85.7449C102.072 69.7902 91.2969 58.7748 75.3894 67.7713C67.8591 72.0299 61.7775 82.1128 64.7943 90.8344C68.1552 100.551 80.1419 94.3859 84.0354 88.7825C93.1295 75.6952 91.864 55.8388 78.3677 44.7587C62.385 31.6372 51.5911 49.9692 51.7299 49.9966" stroke="#E8604C" stroke-width="3" stroke-miterlimit="1.5" stroke-linecap="round" stroke-linejoin="round"/>
<path d="M105.768 129.942C104.015 129.249 102.17 129.357 100.323 129.371C94.2578 129.414 87.7395 131.399 83.274 135.699C86.4112 129.761 88.4831 120.995 84.8572 114.942" stroke="#E8604C" stroke-width="3" stroke-miterlimit="1.5" stroke-linecap="round" stroke-linejoin="round"/>
</svg>
