<svg width="22" height="22" viewBox="0 0 22 22" fill="none" xmlns="http://www.w3.org/2000/svg">
<path d="M19.8691 13.4421L18.4619 12.239C18.5285 11.8308 18.5629 11.414 18.5629 10.9972C18.5629 10.5804 18.5285 10.1636 18.4619 9.75537L19.8691 8.55225C19.9753 8.46138 20.0513 8.34036 20.0869 8.20527C20.1226 8.07018 20.1164 7.92743 20.0689 7.796L20.0496 7.74014C19.6622 6.65738 19.0821 5.65365 18.3373 4.77744L18.2986 4.73232C18.2083 4.62609 18.0879 4.54972 17.9532 4.51329C17.8186 4.47685 17.6761 4.48206 17.5445 4.52822L15.7979 5.14912C15.1533 4.62061 14.4336 4.20381 13.6559 3.91162L13.3186 2.08545C13.2931 1.94804 13.2265 1.82163 13.1274 1.723C13.0284 1.62438 12.9018 1.55822 12.7643 1.5333L12.7063 1.52256C11.5869 1.32061 10.4096 1.32061 9.29024 1.52256L9.23223 1.5333C9.09472 1.55822 8.96805 1.62438 8.86904 1.723C8.77004 1.82163 8.70338 1.94804 8.67793 2.08545L8.33848 3.92022C7.56695 4.21246 6.84847 4.62904 6.21153 5.15342L4.45196 4.52822C4.3204 4.48169 4.1778 4.4763 4.0431 4.51275C3.9084 4.54921 3.78799 4.62579 3.69786 4.73232L3.65918 4.77744C2.91528 5.65427 2.33527 6.65783 1.94688 7.74014L1.92754 7.796C1.83086 8.06455 1.91036 8.36533 2.12735 8.55225L3.55176 9.76826C3.48516 10.1722 3.45293 10.5847 3.45293 10.995C3.45293 11.4075 3.48516 11.82 3.55176 12.2218L2.12735 13.4378C2.02121 13.5287 1.94524 13.6497 1.90955 13.7848C1.87386 13.9199 1.88013 14.0626 1.92754 14.194L1.94688 14.2499C2.33575 15.3327 2.91153 16.3317 3.65918 17.2126L3.69786 17.2577C3.78821 17.364 3.90863 17.4403 4.04324 17.4768C4.17786 17.5132 4.32036 17.508 4.45196 17.4618L6.21153 16.8366C6.85176 17.363 7.56719 17.7798 8.33848 18.0698L8.67793 19.9046C8.70338 20.042 8.77004 20.1684 8.86904 20.267C8.96805 20.3657 9.09472 20.4318 9.23223 20.4567L9.29024 20.4675C10.4199 20.6705 11.5766 20.6705 12.7063 20.4675L12.7643 20.4567C12.9018 20.4318 13.0284 20.3657 13.1274 20.267C13.2265 20.1684 13.2931 20.042 13.3186 19.9046L13.6559 18.0784C14.4333 17.787 15.1571 17.3688 15.7979 16.8409L17.5445 17.4618C17.6761 17.5083 17.8187 17.5137 17.9534 17.4773C18.0881 17.4408 18.2085 17.3642 18.2986 17.2577L18.3373 17.2126C19.085 16.3296 19.6607 15.3327 20.0496 14.2499L20.0689 14.194C20.1656 13.9298 20.0861 13.629 19.8691 13.4421ZM16.9365 10.0089C16.9902 10.3333 17.0182 10.6663 17.0182 10.9993C17.0182 11.3323 16.9902 11.6653 16.9365 11.9897L16.7947 12.8513L18.3996 14.2241C18.1563 14.7846 17.8492 15.3152 17.4844 15.8054L15.4906 15.0985L14.816 15.6528C14.3025 16.0739 13.7311 16.4048 13.1123 16.6368L12.2938 16.944L11.9092 19.028C11.3024 19.0968 10.6898 19.0968 10.083 19.028L9.69844 16.9397L8.88633 16.6282C8.27403 16.3962 7.70469 16.0653 7.19551 15.6464L6.5209 15.0899L4.51426 15.8032C4.14903 15.3112 3.84395 14.7806 3.59903 14.222L5.2211 12.8362L5.08145 11.9769C5.02989 11.6567 5.00196 11.3259 5.00196 10.9993C5.00196 10.6706 5.02774 10.3419 5.08145 10.0218L5.2211 9.1624L3.59903 7.77666C3.8418 7.21592 4.14903 6.6874 4.51426 6.19541L6.5209 6.90869L7.19551 6.35225C7.70469 5.9333 8.27403 5.60244 8.88633 5.37041L9.70059 5.06318L10.0852 2.9749C10.6889 2.90615 11.3055 2.90615 11.9113 2.9749L12.2959 5.05889L13.1145 5.36611C13.7311 5.59815 14.3047 5.929 14.8182 6.3501L15.4928 6.90439L17.4865 6.19756C17.8518 6.68955 18.1568 7.22022 18.4018 7.77881L16.7969 9.15166L16.9365 10.0089ZM11.0004 7.00322C8.91211 7.00322 7.21915 8.69619 7.21915 10.7845C7.21915 12.8728 8.91211 14.5657 11.0004 14.5657C13.0887 14.5657 14.7816 12.8728 14.7816 10.7845C14.7816 8.69619 13.0887 7.00322 11.0004 7.00322ZM12.702 12.486C12.4788 12.7099 12.2136 12.8873 11.9215 13.0083C11.6295 13.1292 11.3165 13.1912 11.0004 13.1907C10.358 13.1907 9.7543 12.9394 9.29883 12.486C9.07502 12.2629 8.89753 11.9976 8.7766 11.7056C8.65566 11.4136 8.59365 11.1005 8.59414 10.7845C8.59414 10.1421 8.84551 9.53838 9.29883 9.08291C9.7543 8.62744 10.358 8.37822 11.0004 8.37822C11.6428 8.37822 12.2465 8.62744 12.702 9.08291C12.9258 9.30609 13.1033 9.57131 13.2242 9.86333C13.3451 10.1554 13.4071 10.4684 13.4066 10.7845C13.4066 11.4269 13.1553 12.0306 12.702 12.486Z" fill="white"/>
</svg>
