<svg width="18" height="18" viewBox="0 0 18 18" fill="none" xmlns="http://www.w3.org/2000/svg">
<path d="M4.41667 12.666L0.75 8.99935M0.75 8.99935L4.41667 5.33268M0.75 8.99935H13.5833M8.08333 12.666V13.5827C8.08333 14.312 8.37306 15.0115 8.88879 15.5272C9.40451 16.043 10.104 16.3327 10.8333 16.3327H14.5C15.2293 16.3327 15.9288 16.043 16.4445 15.5272C16.9603 15.0115 17.25 14.312 17.25 13.5827V4.41602C17.25 3.68667 16.9603 2.9872 16.4445 2.47147C15.9288 1.95575 15.2293 1.66602 14.5 1.66602H10.8333C10.104 1.66602 9.40451 1.95575 8.88879 2.47147C8.37306 2.9872 8.08333 3.68667 8.08333 4.41602V5.33268" stroke="#2A3342" stroke-width="1.5" stroke-linecap="round" stroke-linejoin="round"/>
</svg>
