<svg width="361" height="72" viewBox="0 0 361 72" fill="none" xmlns="http://www.w3.org/2000/svg">
<path opacity="0.05" d="M14.5264 44.528L0.910391 54.464C2.38239 57.7147 4.55972 60.6587 7.44239 63.296C10.3251 65.9333 13.7291 67.988 17.6544 69.46C21.6411 70.9933 25.9344 71.76 30.5344 71.76C33.8464 71.76 37.0664 71.3 40.1944 70.38C43.3224 69.46 46.1131 68.1107 48.5664 66.332C51.0811 64.5533 53.0744 62.3147 54.5464 59.616C56.0184 56.856 56.7544 53.6973 56.7544 50.14C56.7544 47.6253 56.3864 45.356 55.6504 43.332C54.9144 41.2467 53.8104 39.376 52.3384 37.72C50.9277 36.064 49.2104 34.6227 47.1864 33.396C45.1624 32.108 42.8624 31.004 40.2864 30.084C37.7717 29.164 35.4717 28.3667 33.3864 27.692C31.3011 26.956 29.6144 26.1893 28.3264 25.392C27.0997 24.5333 26.4864 23.46 26.4864 22.172C26.4864 21.1293 26.9157 20.3627 27.7744 19.872C28.6944 19.3813 29.8597 19.136 31.2704 19.136C32.4357 19.136 33.6317 19.3507 34.8584 19.78C36.0851 20.2093 37.2811 20.884 38.4464 21.804C39.6731 22.6627 40.7771 23.8587 41.7584 25.392L56.7544 17.112C55.5891 14.904 53.8717 12.696 51.6024 10.488C49.3944 8.28 46.5424 6.44 43.0464 4.968C39.6117 3.496 35.4717 2.76 30.6264 2.76C26.1491 2.76 22.0397 3.496 18.2984 4.968C14.5571 6.44 11.5517 8.61733 9.28239 11.5C7.01306 14.3827 5.87839 17.94 5.87839 22.172C5.87839 25.4227 6.46106 28.244 7.62639 30.636C8.85306 33.028 10.3557 35.052 12.1344 36.708C13.9744 38.364 15.8757 39.7133 17.8384 40.756C19.8624 41.7987 21.6411 42.6267 23.1744 43.24C26.6704 44.5893 29.2771 45.6627 30.9944 46.46C32.7117 47.2573 33.8464 47.9627 34.3984 48.576C35.0117 49.1893 35.3184 49.9253 35.3184 50.784C35.3184 52.1947 34.7664 53.2373 33.6624 53.912C32.5584 54.5253 31.2091 54.832 29.6144 54.832C27.7131 54.832 25.8117 54.4333 23.9104 53.636C22.0704 52.8387 20.3531 51.6733 18.7584 50.14C17.1637 48.5453 15.7531 46.6747 14.5264 44.528ZM84.1589 36.8C84.1589 33.6107 84.7416 30.8507 85.9069 28.52C87.0722 26.128 88.7282 24.288 90.8749 23C93.0216 21.6507 95.5976 20.976 98.6029 20.976C101.792 20.976 104.43 21.6507 106.515 23C108.662 24.288 110.287 26.128 111.391 28.52C112.495 30.8507 113.047 33.6107 113.047 36.8C113.047 39.928 112.464 42.688 111.299 45.08C110.134 47.472 108.478 49.3427 106.331 50.692C104.184 51.98 101.608 52.624 98.6029 52.624C95.5976 52.624 93.0216 51.98 90.8749 50.692C88.7282 49.3427 87.0722 47.472 85.9069 45.08C84.7416 42.688 84.1589 39.928 84.1589 36.8ZM62.7229 36.8C62.7229 41.952 63.5816 46.6747 65.2989 50.968C67.0776 55.2 69.5616 58.88 72.7509 62.008C75.9402 65.136 79.7122 67.528 84.0669 69.184C88.4829 70.9013 93.3282 71.76 98.6029 71.76C103.878 71.76 108.692 70.9013 113.047 69.184C117.463 67.528 121.266 65.136 124.455 62.008C127.644 58.88 130.098 55.2 131.815 50.968C133.594 46.6747 134.483 41.952 134.483 36.8C134.483 31.648 133.594 26.9867 131.815 22.816C130.036 18.6453 127.522 15.0573 124.271 12.052C121.02 9.04666 117.218 6.74666 112.863 5.152C108.508 3.55733 103.755 2.76 98.6029 2.76C93.5736 2.76 88.8816 3.55733 84.5269 5.152C80.1722 6.74666 76.3696 9.04666 73.1189 12.052C69.8682 15.0573 67.3229 18.6453 65.4829 22.816C63.6429 26.9867 62.7229 31.648 62.7229 36.8ZM162.253 36.8C162.253 33.488 162.989 30.728 164.461 28.52C165.994 26.2507 167.987 24.564 170.441 23.46C172.955 22.356 175.715 21.804 178.721 21.804C181.787 21.804 184.425 22.2027 186.633 23C188.841 23.736 190.773 24.7173 192.429 25.944C194.146 27.1707 195.679 28.428 197.029 29.716V8.92399C194.514 7.14533 191.754 5.67333 188.749 4.508C185.805 3.34266 181.971 2.76 177.249 2.76C171.667 2.76 166.577 3.55733 161.977 5.152C157.377 6.74666 153.451 9.04666 150.201 12.052C146.95 15.0573 144.435 18.6453 142.657 22.816C140.878 26.9867 139.989 31.648 139.989 36.8C139.989 41.952 140.878 46.6133 142.657 50.784C144.435 54.9547 146.95 58.5427 150.201 61.548C153.451 64.5533 157.377 66.8533 161.977 68.448C166.577 70.0427 171.667 70.84 177.249 70.84C181.971 70.84 185.805 70.2267 188.749 69C191.754 67.8347 194.514 66.3933 197.029 64.676V43.884C195.679 45.172 194.146 46.4293 192.429 47.656C190.773 48.8213 188.841 49.8027 186.633 50.6C184.425 51.3973 181.787 51.796 178.721 51.796C175.715 51.796 172.955 51.244 170.441 50.14C167.987 49.036 165.994 47.38 164.461 45.172C162.989 42.9027 162.253 40.112 162.253 36.8ZM208.985 4.6V69H229.685V4.6H208.985ZM255.19 60.72H289.23V46.184H255.19V60.72ZM272.026 33.856L279.938 51.612L278.558 56.856L285.366 69H308.366L272.026 -5.48363e-06L235.686 69H258.686L265.678 56.212L264.114 51.612L272.026 33.856ZM314.372 4.6V69H360.832V51.98H334.612V4.6H314.372Z" fill="white"/>
</svg>
