<svg width="18" height="15" viewBox="0 0 18 15" fill="none" xmlns="http://www.w3.org/2000/svg">
<path fill-rule="evenodd" clip-rule="evenodd" d="M15.4385 2.37144C16.1801 1.90344 16.7491 1.16135 17.0162 0.277336C16.3218 0.711758 15.5545 1.02593 14.7359 1.19601C14.0826 0.459338 13.1489 0 12.1155 0C10.1331 0 8.52659 1.69544 8.52659 3.78629C8.52659 4.08313 8.55638 4.37238 8.61801 4.64863C5.63509 4.49047 2.99011 2.98462 1.21823 0.692258C0.909051 1.25343 0.732377 1.90344 0.732377 2.59678C0.732377 3.90979 1.36614 5.06897 2.32964 5.74931C1.74106 5.72981 1.18742 5.55756 0.702588 5.27589V5.32248C0.702588 7.15766 1.93931 8.68843 3.58382 9.0351C3.28183 9.12393 2.96546 9.16835 2.63676 9.16835C2.40565 9.16835 2.17967 9.1456 1.96191 9.10118C2.41797 10.6049 3.74406 11.7012 5.31564 11.7305C4.08611 12.7466 2.53815 13.3511 0.856665 13.3511C0.567001 13.3511 0.280419 13.3349 0 13.2991C1.58904 14.3727 3.47596 15 5.50361 15C12.1084 15 15.7178 9.2301 15.7178 4.22613C15.7178 4.06146 15.7158 3.89788 15.7086 3.73646C16.4102 3.20237 17.0203 2.53503 17.5 1.7756C16.856 2.07677 16.1636 2.28044 15.4385 2.37144Z" fill="white"/>
</svg>
