<svg width="64" height="71" viewBox="0 0 64 71" fill="none" xmlns="http://www.w3.org/2000/svg">
<path d="M58.0003 23.6389C54.8289 22.6375 51.3431 22.2084 48.0003 22.2084C42.4289 22.2084 36.4289 23.3528 32.286 26.5C28.1431 23.3528 22.1431 22.2084 16.5717 22.2084C11.0003 22.2084 5.00028 23.3528 0.857422 26.5V68.4153C0.857422 69.1306 1.57171 69.8459 2.28599 69.8459C2.57171 69.8459 2.71456 69.7028 3.00028 69.7028C6.85742 67.8431 12.4289 66.5556 16.5717 66.5556C22.1431 66.5556 28.1431 67.7 32.286 70.8473C36.1431 68.4153 43.1431 66.5556 48.0003 66.5556C52.7146 66.5556 57.5717 67.4139 61.5717 69.5598C61.8574 69.7028 62.0003 69.7028 62.286 69.7028C63.0003 69.7028 63.7146 68.9875 63.7146 68.2723V26.5C62.0003 25.2125 60.1431 24.3542 58.0003 23.6389ZM6.57171 62.2639V29.3612C9.71457 28.3598 13.1431 27.9306 16.5717 27.9306C20.4003 27.9306 25.5146 29.1037 29.4289 30.7631V63.6659C25.5146 62.0064 20.4003 60.8334 16.5717 60.8334C13.1431 60.8334 9.71457 61.2625 6.57171 62.2639ZM58.0003 62.2639C54.8574 61.2625 51.4289 60.8334 48.0003 60.8334C44.1717 60.8334 39.0574 62.0064 35.1431 63.6659V30.7631C39.0574 29.075 44.1717 27.9306 48.0003 27.9306C51.4289 27.9306 54.8574 28.3598 58.0003 29.3612V62.2639Z" fill="#263238"/>
<path opacity="0.5" d="M29.4294 30.7632C25.5151 29.1037 20.4008 27.9307 16.5723 27.9307C13.1437 27.9307 9.71512 28.3598 6.57227 29.3612V62.264C9.71512 61.2626 13.1437 60.8334 16.5723 60.8334C20.4008 60.8334 25.5151 62.0065 29.4294 63.6659V30.7632Z" fill="#E8604C"/>
<path d="M48 39.375C50.5143 39.375 52.9429 39.6325 55.1429 40.1189V35.77C52.8857 35.3409 50.4571 35.0834 48 35.0834C44.3429 35.0834 40.9714 35.5412 38 36.4281V40.92C40.8286 39.9187 44.2286 39.375 48 39.375ZM48 46.9856C50.5143 46.9856 52.9429 47.2431 55.1429 47.7295V43.3806C52.8857 42.9514 50.4571 42.6939 48 42.6939C44.3429 42.6939 40.9714 43.1517 38 44.0387V48.5306C40.8286 47.5578 44.2286 46.9856 48 46.9856ZM48 54.6248C50.5143 54.6248 52.9429 54.8823 55.1429 55.3687V51.0198C52.8857 50.5906 50.4571 50.3331 48 50.3331C44.3429 50.3331 40.9714 50.7909 38 51.6778V56.1698C40.8286 55.1684 44.2286 54.6248 48 54.6248Z" fill="#263238"/>
<path d="M43.5993 14.6667C43.5993 21.1139 38.3811 26.3333 31.953 26.3333C25.5248 26.3333 20.3066 21.1139 20.3066 14.6667C20.3066 8.21942 25.5248 3 31.953 3C38.3811 3 43.5993 8.21942 43.5993 14.6667Z" fill="white" stroke="#263238" stroke-width="6"/>
</svg>
