<svg width="80" height="80" viewBox="0 0 80 80" fill="none" xmlns="http://www.w3.org/2000/svg">
<path d="M69.9997 16.6667C66.2997 15.5 62.233 15 58.333 15C51.833 15 44.833 16.3333 39.9997 20C35.1663 16.3333 28.1663 15 21.6663 15C15.1663 15 8.16634 16.3333 3.33301 20V68.8333C3.33301 69.6667 4.16634 70.5 4.99967 70.5C5.33301 70.5 5.49967 70.3333 5.83301 70.3333C10.333 68.1667 16.833 66.6667 21.6663 66.6667C28.1663 66.6667 35.1663 68 39.9997 71.6667C44.4997 68.8333 52.6663 66.6667 58.333 66.6667C63.833 66.6667 69.4997 67.6667 74.1663 70.1667C74.4997 70.3333 74.6663 70.3333 74.9997 70.3333C75.833 70.3333 76.6663 69.5 76.6663 68.6667V20C74.6663 18.5 72.4997 17.5 69.9997 16.6667ZM9.99967 61.6667V23.3333C13.6663 22.1667 17.6663 21.6667 21.6663 21.6667C26.133 21.6667 32.0997 23.0333 36.6663 24.9667V63.3C32.0997 61.3667 26.133 60 21.6663 60C17.6663 60 13.6663 60.5 9.99967 61.6667ZM69.9997 61.6667C66.333 60.5 62.333 60 58.333 60C53.8663 60 47.8997 61.3667 43.333 63.3V24.9667C47.8997 23 53.8663 21.6667 58.333 21.6667C62.333 21.6667 66.333 22.1667 69.9997 23.3333V61.6667Z" fill="#263238"/>
<path opacity="0.5" d="M36.6667 24.9666C32.1 23.0333 26.1333 21.6666 21.6667 21.6666C17.6667 21.6666 13.6667 22.1666 10 23.3333V61.6666C13.6667 60.5 17.6667 60 21.6667 60C26.1333 60 32.1 61.3666 36.6667 63.3V24.9666Z" fill="#E8604C"/>
<path d="M58.3337 35C61.267 35 64.1003 35.3 66.667 35.8667V30.8C64.0337 30.3 61.2003 30 58.3337 30C54.067 30 50.1337 30.5333 46.667 31.5667V36.8C49.967 35.6333 53.9337 35 58.3337 35ZM58.3337 43.8667C61.267 43.8667 64.1003 44.1667 66.667 44.7333V39.6667C64.0337 39.1667 61.2003 38.8667 58.3337 38.8667C54.067 38.8667 50.1337 39.4 46.667 40.4333V45.6667C49.967 44.5333 53.9337 43.8667 58.3337 43.8667ZM58.3337 52.7667C61.267 52.7667 64.1003 53.0667 66.667 53.6333V48.5667C64.0337 48.0667 61.2003 47.7667 58.3337 47.7667C54.067 47.7667 50.1337 48.3 46.667 49.3333V54.5667C49.967 53.4 53.9337 52.7667 58.3337 52.7667Z" fill="#263238"/>
</svg>
