<svg width="80" height="80" viewBox="0 0 80 80" fill="none" xmlns="http://www.w3.org/2000/svg">
<path opacity="0.5" d="M52.5 43.75C52.5 46.2223 51.7669 48.639 50.3934 50.6946C49.0199 52.7502 47.0676 54.3524 44.7836 55.2985C42.4995 56.2446 39.9861 56.4921 37.5614 56.0098C35.1366 55.5275 32.9093 54.337 31.1612 52.5888C29.413 50.8407 28.2225 48.6134 27.7402 46.1886C27.2579 43.7639 27.5054 41.2505 28.4515 38.9665C29.3976 36.6824 30.9998 34.7301 33.0554 33.3566C35.111 31.9831 37.5277 31.25 40 31.25C43.3152 31.25 46.4946 32.567 48.8388 34.9112C51.183 37.2554 52.5 40.4348 52.5 43.75ZM18.75 16.25C16.7722 16.25 14.8388 16.8365 13.1943 17.9353C11.5498 19.0341 10.2681 20.5959 9.51121 22.4232C8.75433 24.2504 8.5563 26.2611 8.94215 28.2009C9.328 30.1407 10.2804 31.9225 11.6789 33.3211C13.0775 34.7196 14.8593 35.672 16.7991 36.0579C18.7389 36.4437 20.7496 36.2457 22.5768 35.4888C24.4041 34.7319 25.9659 33.4502 27.0647 31.8057C28.1635 30.1612 28.75 28.2278 28.75 26.25C28.75 23.5978 27.6964 21.0543 25.8211 19.1789C23.9457 17.3036 21.4022 16.25 18.75 16.25ZM61.25 16.25C59.2722 16.25 57.3388 16.8365 55.6943 17.9353C54.0498 19.0341 52.7681 20.5959 52.0112 22.4232C51.2543 24.2504 51.0563 26.2611 51.4422 28.2009C51.828 30.1407 52.7804 31.9225 54.1789 33.3211C55.5775 34.7196 57.3593 35.672 59.2991 36.0579C61.2389 36.4437 63.2496 36.2457 65.0768 35.4888C66.9041 34.7319 68.4659 33.4502 69.5647 31.8057C70.6635 30.1612 71.25 28.2278 71.25 26.25C71.25 23.5978 70.1964 21.0543 68.3211 19.1789C66.4457 17.3036 63.9022 16.25 61.25 16.25Z" fill="#E8604C"/>
<path d="M77.75 45.75C77.3206 46.0808 76.7921 46.257 76.25 46.25C75.8619 46.25 75.4791 46.1596 75.132 45.986C74.7848 45.8125 74.4829 45.5605 74.25 45.25C72.7432 43.2245 70.7818 41.5812 68.5239 40.4522C66.2659 39.3232 63.7745 38.7402 61.25 38.75C60.587 38.75 59.9511 38.4866 59.4822 38.0177C59.0134 37.5489 58.75 36.913 58.75 36.25C58.75 35.5869 59.0134 34.951 59.4822 34.4822C59.9511 34.0134 60.587 33.75 61.25 33.75C62.6728 33.7484 64.0659 33.3422 65.2665 32.5787C66.4672 31.8152 67.4258 30.726 68.0307 29.4381C68.6355 28.1502 68.8615 26.7168 68.6823 25.3053C68.5031 23.8938 67.926 22.5624 67.0186 21.4666C66.1111 20.3707 64.9106 19.5555 63.5573 19.1163C62.204 18.6771 60.7536 18.6318 59.3755 18.9859C57.9975 19.34 56.7486 20.0788 55.7746 21.116C54.8006 22.1532 54.1418 23.4461 53.875 24.8437C53.8265 25.1779 53.7108 25.4988 53.5348 25.7871C53.3589 26.0753 53.1264 26.3249 52.8513 26.5208C52.5763 26.7168 52.2644 26.8549 51.9344 26.927C51.6045 26.999 51.2634 27.0035 50.9317 26.9401C50.6 26.8768 50.2846 26.7468 50.0045 26.5582C49.7244 26.3696 49.4854 26.1261 49.302 25.8426C49.1185 25.5591 48.9944 25.2413 48.9371 24.9085C48.8799 24.5757 48.8906 24.2348 48.9688 23.9062C49.3396 21.9619 50.167 20.1335 51.3826 18.5714C52.5982 17.0093 54.1675 15.7583 55.9611 14.9212C57.7547 14.0841 59.7215 13.685 61.6996 13.7566C63.6777 13.8282 65.6104 14.3685 67.3389 15.3331C69.0673 16.2977 70.5419 17.6589 71.6414 19.3048C72.7409 20.9507 73.4339 22.8342 73.6632 24.8002C73.8925 26.7662 73.6517 28.7586 72.9605 30.6134C72.2693 32.4681 71.1475 34.1322 69.6875 35.4687C73.0853 36.942 76.0375 39.2801 78.25 42.25C78.447 42.5126 78.5903 42.8115 78.6718 43.1295C78.7533 43.4475 78.7713 43.7785 78.7249 44.1035C78.6785 44.4285 78.5685 44.7412 78.4012 45.0237C78.2339 45.3062 78.0127 45.553 77.75 45.75ZM60.25 66.4062C60.5322 67.0042 60.5692 67.6888 60.3531 68.3136C60.137 68.9385 59.685 69.454 59.0938 69.75C58.7489 69.9035 58.3774 69.9885 58 70C57.5316 69.9967 57.0732 69.8635 56.676 69.6153C56.2788 69.367 55.9582 69.0134 55.75 68.5937C54.3084 65.6448 52.0679 63.1598 49.2834 61.4216C46.499 59.6835 43.2824 58.762 40 58.762C36.7176 58.762 33.5011 59.6835 30.7166 61.4216C27.9322 63.1598 25.6916 65.6448 24.25 68.5937C24.1066 68.8893 23.9062 69.1538 23.6605 69.3719C23.4147 69.5901 23.1284 69.7577 22.8178 69.865C22.5073 69.9724 22.1786 70.0175 21.8506 69.9978C21.5226 69.978 21.2017 69.8938 20.9063 69.75C20.315 69.454 19.863 68.9385 19.6469 68.3136C19.4309 67.6888 19.4679 67.0042 19.75 66.4062C22.0734 61.6222 26.0142 57.8143 30.875 55.6562C28.3869 53.7492 26.5589 51.1106 25.6477 48.1111C24.7365 45.1116 24.7879 41.902 25.7948 38.9332C26.8016 35.9645 28.7133 33.3858 31.2612 31.5595C33.8091 29.7331 36.8652 28.751 40 28.751C43.1349 28.751 46.1909 29.7331 48.7388 31.5595C51.2867 33.3858 53.1984 35.9645 54.2053 38.9332C55.2121 41.902 55.2636 45.1116 54.3523 48.1111C53.4411 51.1106 51.6131 53.7492 49.125 55.6562C53.9859 57.8143 57.9266 61.6222 60.25 66.4062ZM40 53.75C41.9778 53.75 43.9112 53.1635 45.5557 52.0647C47.2002 50.9658 48.4819 49.4041 49.2388 47.5768C49.9957 45.7495 50.1937 43.7389 49.8079 41.7991C49.422 39.8593 48.4696 38.0774 47.0711 36.6789C45.6726 35.2804 43.8907 34.328 41.9509 33.9421C40.0111 33.5563 38.0004 33.7543 36.1732 34.5112C34.3459 35.268 32.7841 36.5498 31.6853 38.1943C30.5865 39.8388 30 41.7722 30 43.75C30.0083 46.3996 31.0645 48.9383 32.938 50.8119C34.8116 52.6855 37.3504 53.7417 40 53.75ZM21.25 36.25C21.25 35.5869 20.9866 34.951 20.5178 34.4822C20.0489 34.0134 19.4131 33.75 18.75 33.75C17.3272 33.7484 15.9341 33.3422 14.7335 32.5787C13.5329 31.8152 12.5742 30.726 11.9694 29.4381C11.3645 28.1502 11.1385 26.7168 11.3178 25.3053C11.497 23.8938 12.074 22.5624 12.9814 21.4666C13.8889 20.3707 15.0894 19.5555 16.4427 19.1163C17.7961 18.6771 19.2464 18.6318 20.6245 18.9859C22.0026 19.34 23.2515 20.0788 24.2254 21.116C25.1994 22.1532 25.8582 23.4461 26.125 24.8437C26.1735 25.1779 26.2892 25.4988 26.4652 25.7871C26.6411 26.0753 26.8736 26.3249 27.1487 26.5208C27.4238 26.7168 27.7357 26.8549 28.0656 26.927C28.3955 26.999 28.7366 27.0035 29.0683 26.9401C29.4 26.8768 29.7154 26.7468 29.9955 26.5582C30.2756 26.3696 30.5146 26.1261 30.6981 25.8426C30.8815 25.5591 31.0056 25.2413 31.0629 24.9085C31.1201 24.5757 31.1094 24.2348 31.0313 23.9062C30.6604 21.9619 29.8331 20.1335 28.6174 18.5714C27.4018 17.0093 25.8326 15.7583 24.0389 14.9212C22.2453 14.0841 20.2785 13.685 18.3004 13.7566C16.3224 13.8282 14.3896 14.3685 12.6612 15.3331C10.9327 16.2977 9.45809 17.6589 8.35859 19.3048C7.25908 20.9507 6.56615 22.8342 6.33683 24.8002C6.10751 26.7662 6.34835 28.7586 7.03954 30.6134C7.73072 32.4681 8.85249 34.1322 10.3125 35.4687C6.91474 36.942 3.96247 39.2801 1.75001 42.25C1.35219 42.7804 1.18137 43.4471 1.27514 44.1035C1.3689 44.7599 1.71958 45.3521 2.25001 45.75C2.67941 46.0808 3.20796 46.257 3.75001 46.25C4.13812 46.25 4.52091 46.1596 4.86804 45.986C5.21518 45.8125 5.51714 45.5605 5.75001 45.25C7.25684 43.2245 9.21818 41.5812 11.4761 40.4522C13.7341 39.3232 16.2256 38.7402 18.75 38.75C19.4131 38.75 20.0489 38.4866 20.5178 38.0177C20.9866 37.5489 21.25 36.913 21.25 36.25Z" fill="#263238"/>
</svg>
