<svg width="80" height="80" viewBox="0 0 80 80" fill="none" xmlns="http://www.w3.org/2000/svg">
<circle opacity="0.5" cx="52.307" cy="52.3077" r="17.4359" fill="#E8604C"/>
<path d="M70 22.5C70 19.1848 68.683 16.0054 66.3388 13.6612C63.9946 11.317 60.8152 10 57.5 10H22.5C19.1848 10 16.0054 11.317 13.6612 13.6612C11.317 16.0054 10 19.1848 10 22.5V57.5C10 60.8152 11.317 63.9946 13.6612 66.3388C16.0054 68.683 19.1848 70 22.5 70H31.285C30.0117 68.4576 28.9102 66.781 28 65H22.5C20.5109 65 18.6032 64.2098 17.1967 62.8033C15.7902 61.3968 15 59.4891 15 57.5V30H36.685C41.16 26.85 46.615 25 52.5 25C59.15 25 65.25 27.36 70 31.285V22.5ZM52.5 25H15V22.5C15 20.5109 15.7902 18.6032 17.1967 17.1967C18.6032 15.7902 20.5109 15 22.5 15H57.5C59.4891 15 61.3968 15.7902 62.8033 17.1967C64.2098 18.6032 65 20.5109 65 22.5V25H52.5ZM49.375 42.5C49.375 41.6712 49.7042 40.8763 50.2903 40.2903C50.8763 39.7042 51.6712 39.375 52.5 39.375C53.3288 39.375 54.1237 39.7042 54.7097 40.2903C55.2958 40.8763 55.625 41.6712 55.625 42.5C55.625 43.3288 55.2958 44.1237 54.7097 44.7097C54.1237 45.2958 53.3288 45.625 52.5 45.625C51.6712 45.625 50.8763 45.2958 50.2903 44.7097C49.7042 44.1237 49.375 43.3288 49.375 42.5ZM55 62.5C55 63.163 54.7366 63.7989 54.2678 64.2678C53.7989 64.7366 53.163 65 52.5 65C51.837 65 51.2011 64.7366 50.7322 64.2678C50.2634 63.7989 50 63.163 50 62.5V52.5C50 51.837 50.2634 51.2011 50.7322 50.7322C51.2011 50.2634 51.837 50 52.5 50C53.163 50 53.7989 50.2634 54.2678 50.7322C54.7366 51.2011 55 51.837 55 52.5V62.5ZM30 52.5C30 49.5453 30.582 46.6194 31.7127 43.8896C32.8434 41.1598 34.5008 38.6794 36.5901 36.5901C38.6794 34.5008 41.1598 32.8434 43.8896 31.7127C46.6194 30.582 49.5453 30 52.5 30C55.4547 30 58.3806 30.582 61.1104 31.7127C63.8402 32.8434 66.3206 34.5008 68.4099 36.5901C70.4992 38.6794 72.1566 41.1598 73.2873 43.8896C74.418 46.6194 75 49.5453 75 52.5C75 58.4674 72.6295 64.1903 68.4099 68.4099C64.1903 72.6295 58.4674 75 52.5 75C46.5326 75 40.8097 72.6295 36.5901 68.4099C32.3705 64.1903 30 58.4674 30 52.5ZM35 52.5C35 57.1413 36.8437 61.5925 40.1256 64.8744C43.4075 68.1563 47.8587 70 52.5 70C57.1413 70 61.5925 68.1563 64.8744 64.8744C68.1563 61.5925 70 57.1413 70 52.5C70 47.8587 68.1563 43.4075 64.8744 40.1256C61.5925 36.8437 57.1413 35 52.5 35C47.8587 35 43.4075 36.8437 40.1256 40.1256C36.8437 43.4075 35 47.8587 35 52.5Z" fill="#263238" stroke="#263238"/>
</svg>
