<svg width="343" height="56" viewBox="0 0 343 56" fill="none" xmlns="http://www.w3.org/2000/svg">
<path opacity="0.05" d="M17.04 28.5C17.04 25.98 17.6 23.88 18.72 22.2C19.8867 20.4733 21.4033 19.19 23.27 18.35C25.1833 17.51 27.2833 17.09 29.57 17.09C31.9033 17.09 33.91 17.3933 35.59 18C37.27 18.56 38.74 19.3067 40 20.24C41.3067 21.1733 42.4733 22.13 43.5 23.11V7.29C41.5867 5.93666 39.4867 4.81666 37.2 3.93C34.96 3.04333 32.0433 2.6 28.45 2.6C24.2033 2.6 20.33 3.20667 16.83 4.42C13.33 5.63333 10.3433 7.38333 7.87 9.67C5.39667 11.9567 3.48333 14.6867 2.13 17.86C0.776667 21.0333 0.1 24.58 0.1 28.5C0.1 32.42 0.776667 35.9667 2.13 39.14C3.48333 42.3133 5.39667 45.0433 7.87 47.33C10.3433 49.6167 13.33 51.3667 16.83 52.58C20.33 53.7933 24.2033 54.4 28.45 54.4C32.0433 54.4 34.96 53.9333 37.2 53C39.4867 52.1133 41.5867 51.0167 43.5 49.71V33.89C42.4733 34.87 41.3067 35.8267 40 36.76C38.74 37.6467 37.27 38.3933 35.59 39C33.91 39.6067 31.9033 39.91 29.57 39.91C27.2833 39.91 25.1833 39.49 23.27 38.65C21.4033 37.81 19.8867 36.55 18.72 34.87C17.6 33.1433 17.04 31.02 17.04 28.5ZM66.1073 28.5C66.1073 26.0733 66.5506 23.9733 67.4373 22.2C68.3239 20.38 69.5839 18.98 71.2173 18C72.8506 16.9733 74.8106 16.46 77.0973 16.46C79.5239 16.46 81.5306 16.9733 83.1173 18C84.7506 18.98 85.9873 20.38 86.8273 22.2C87.6673 23.9733 88.0873 26.0733 88.0873 28.5C88.0873 30.88 87.6439 32.98 86.7573 34.8C85.8706 36.62 84.6106 38.0433 82.9773 39.07C81.3439 40.05 79.3839 40.54 77.0973 40.54C74.8106 40.54 72.8506 40.05 71.2173 39.07C69.5839 38.0433 68.3239 36.62 67.4373 34.8C66.5506 32.98 66.1073 30.88 66.1073 28.5ZM49.7973 28.5C49.7973 32.42 50.4506 36.0133 51.7573 39.28C53.1106 42.5 55.0006 45.3 57.4273 47.68C59.8539 50.06 62.7239 51.88 66.0373 53.14C69.3973 54.4467 73.0839 55.1 77.0973 55.1C81.1106 55.1 84.7739 54.4467 88.0873 53.14C91.4473 51.88 94.3406 50.06 96.7673 47.68C99.1939 45.3 101.061 42.5 102.367 39.28C103.721 36.0133 104.397 32.42 104.397 28.5C104.397 24.58 103.721 21.0333 102.367 17.86C101.014 14.6867 99.1006 11.9567 96.6273 9.67C94.1539 7.38333 91.2606 5.63333 87.9473 4.42C84.6339 3.20667 81.0173 2.6 77.0973 2.6C73.2706 2.6 69.7006 3.20667 66.3873 4.42C63.0739 5.63333 60.1806 7.38333 57.7073 9.67C55.2339 11.9567 53.2973 14.6867 51.8973 17.86C50.4973 21.0333 49.7973 24.58 49.7973 28.5ZM143.236 4V26.19L111.386 1.55V53H126.086V30.81L157.936 55.45V4H143.236ZM162.814 17.65H176.814V53H192.214V17.65H206.214V4H162.814V17.65ZM213.74 46.7H239.64V35.64H213.74V46.7ZM226.55 26.26L232.57 39.77L231.52 43.76L236.7 53H254.2L226.55 0.499996L198.9 53H216.4L221.72 43.27L220.53 39.77L226.55 26.26ZM270.79 28.5C270.79 25.98 271.35 23.88 272.47 22.2C273.637 20.4733 275.153 19.19 277.02 18.35C278.933 17.51 281.033 17.09 283.32 17.09C285.653 17.09 287.66 17.3933 289.34 18C291.02 18.56 292.49 19.3067 293.75 20.24C295.057 21.1733 296.223 22.13 297.25 23.11V7.29C295.337 5.93666 293.237 4.81666 290.95 3.93C288.71 3.04333 285.793 2.6 282.2 2.6C277.953 2.6 274.08 3.20667 270.58 4.42C267.08 5.63333 264.093 7.38333 261.62 9.67C259.147 11.9567 257.233 14.6867 255.88 17.86C254.527 21.0333 253.85 24.58 253.85 28.5C253.85 32.42 254.527 35.9667 255.88 39.14C257.233 42.3133 259.147 45.0433 261.62 47.33C264.093 49.6167 267.08 51.3667 270.58 52.58C274.08 53.7933 277.953 54.4 282.2 54.4C285.793 54.4 288.71 53.9333 290.95 53C293.237 52.1133 295.337 51.0167 297.25 49.71V33.89C296.223 34.87 295.057 35.8267 293.75 36.76C292.49 37.6467 291.02 38.3933 289.34 39C287.66 39.6067 285.653 39.91 283.32 39.91C281.033 39.91 278.933 39.49 277.02 38.65C275.153 37.81 273.637 36.55 272.47 34.87C271.35 33.1433 270.79 31.02 270.79 28.5ZM299.328 17.65H313.328V53H328.728V17.65H342.728V4H299.328V17.65Z" fill="#2A3342"/>
</svg>
