<svg width="28" height="28" viewBox="0 0 28 28" fill="none" xmlns="http://www.w3.org/2000/svg">
<path d="M23.8534 11.6629L22.2825 6.94898C22.0546 6.26283 21.6163 5.66595 21.0298 5.24314C20.4433 4.82033 19.7385 4.59311 19.0155 4.59375H8.54496C7.82195 4.59311 7.11714 4.82033 6.53065 5.24314C5.94416 5.66595 5.50583 6.26283 5.27795 6.94898L3.70703 11.6629C3.28974 11.838 2.93337 12.1323 2.68254 12.5089C2.4317 12.8856 2.29755 13.3279 2.29688 13.7804V19.5221C2.29688 20.3868 2.78262 21.132 3.48999 21.5236C3.47507 21.5994 3.44521 21.6683 3.44521 21.7476V24.1154C3.44521 24.42 3.56619 24.7121 3.78155 24.9274C3.9969 25.1428 4.28898 25.2638 4.59354 25.2638H5.74187C6.04643 25.2638 6.33851 25.1428 6.55387 24.9274C6.76922 24.7121 6.89021 24.42 6.89021 24.1154V21.8188H20.6702V24.1154C20.6702 24.42 20.7912 24.7121 21.0065 24.9274C21.2219 25.1428 21.514 25.2638 21.8185 25.2638H22.9669C23.2714 25.2638 23.5635 25.1428 23.7789 24.9274C23.9942 24.7121 24.1152 24.42 24.1152 24.1154V21.7476C24.1152 21.6683 24.0854 21.5983 24.0704 21.5236C24.4303 21.3274 24.7309 21.0382 24.9408 20.6861C25.1507 20.334 25.2621 19.932 25.2635 19.5221V13.7804C25.2635 12.8284 24.6802 12.0108 23.8534 11.6629ZM4.59354 19.5221V13.7804H22.9669L22.9692 19.5221H4.59354ZM8.54496 6.89042H19.0143C19.5092 6.89042 19.9479 7.20506 20.1041 7.67588L21.3741 11.4838H6.18628L7.45519 7.67588C7.53138 7.44712 7.67764 7.24815 7.87324 7.10717C8.06884 6.9662 8.30385 6.89036 8.54496 6.89042Z" fill="#6D6D6D" fill-opacity="0.92"/>
<path d="M7.46469 18.3737C8.416 18.3737 9.18719 17.6025 9.18719 16.6512C9.18719 15.6999 8.416 14.9287 7.46469 14.9287C6.51338 14.9287 5.74219 15.6999 5.74219 16.6512C5.74219 17.6025 6.51338 18.3737 7.46469 18.3737Z" fill="#6D6D6D" fill-opacity="0.92"/>
<path d="M20.0955 18.3737C21.0469 18.3737 21.818 17.6025 21.818 16.6512C21.818 15.6999 21.0469 14.9287 20.0955 14.9287C19.1442 14.9287 18.373 15.6999 18.373 16.6512C18.373 17.6025 19.1442 18.3737 20.0955 18.3737Z" fill="#6D6D6D" fill-opacity="0.92"/>
</svg>
