<svg width="20" height="20" viewBox="0 0 20 20" fill="none" xmlns="http://www.w3.org/2000/svg">
<path d="M6.21724 8.94226C6.03594 8.94226 5.85872 8.99602 5.70797 9.09675C5.55723 9.19747 5.43973 9.34064 5.37035 9.50813C5.30097 9.67563 5.28282 9.85994 5.31819 10.0378C5.35356 10.2156 5.44086 10.3789 5.56906 10.5071C5.69726 10.6353 5.86059 10.7226 6.03841 10.758C6.21623 10.7934 6.40054 10.7752 6.56804 10.7058C6.73554 10.6364 6.8787 10.5189 6.97942 10.3682C7.08015 10.2175 7.13391 10.0402 7.13391 9.85893C7.13391 9.61581 7.03733 9.38266 6.86542 9.21075C6.69352 9.03884 6.46036 8.94226 6.21724 8.94226ZM9.88391 8.94226C9.70261 8.94226 9.52538 8.99602 9.37464 9.09675C9.22389 9.19747 9.1064 9.34064 9.03702 9.50813C8.96764 9.67563 8.94949 9.85994 8.98486 10.0378C9.02023 10.2156 9.10753 10.3789 9.23573 10.5071C9.36393 10.6353 9.52726 10.7226 9.70508 10.758C9.88289 10.7934 10.0672 10.7752 10.2347 10.7058C10.4022 10.6364 10.5454 10.5189 10.6461 10.3682C10.7468 10.2175 10.8006 10.0402 10.8006 9.85893C10.8006 9.61581 10.704 9.38266 10.5321 9.21075C10.3602 9.03884 10.127 8.94226 9.88391 8.94226ZM13.5506 8.94226C13.3693 8.94226 13.192 8.99602 13.0413 9.09675C12.8906 9.19747 12.7731 9.34064 12.7037 9.50813C12.6343 9.67563 12.6162 9.85994 12.6515 10.0378C12.6869 10.2156 12.7742 10.3789 12.9024 10.5071C13.0306 10.6353 13.1939 10.7226 13.3717 10.758C13.5496 10.7934 13.7339 10.7752 13.9014 10.7058C14.0689 10.6364 14.212 10.5189 14.3128 10.3682C14.4135 10.2175 14.4672 10.0402 14.4672 9.85893C14.4672 9.61581 14.3707 9.38266 14.1988 9.21075C14.0269 9.03884 13.7937 8.94226 13.5506 8.94226ZM9.88391 0.692261C8.68013 0.692261 7.48813 0.929364 6.37598 1.39003C5.26383 1.8507 4.2533 2.52591 3.4021 3.37712C1.68301 5.0962 0.717244 7.42778 0.717244 9.85893C0.70923 11.9756 1.44214 14.0284 2.78891 15.6614L0.955577 17.4948C0.828383 17.6237 0.742219 17.7874 0.70796 17.9652C0.6737 18.143 0.692879 18.327 0.763077 18.4939C0.839213 18.6589 0.962639 18.7975 1.11769 18.8921C1.27273 18.9868 1.45241 19.0332 1.63391 19.0256H9.88391C12.3151 19.0256 14.6466 18.0598 16.3657 16.3407C18.0848 14.6217 19.0506 12.2901 19.0506 9.85893C19.0506 7.42778 18.0848 5.0962 16.3657 3.37712C14.6466 1.65803 12.3151 0.692261 9.88391 0.692261ZM9.88391 17.1923H3.84308L4.69558 16.3398C4.78219 16.2549 4.8511 16.1536 4.8983 16.0419C4.94551 15.9302 4.97007 15.8102 4.97058 15.6889C4.96713 15.4471 4.86829 15.2165 4.69558 15.0473C3.49528 13.8483 2.74782 12.2703 2.58054 10.582C2.41327 8.89372 2.83652 7.19968 3.7782 5.78849C4.71988 4.3773 6.12172 3.33626 7.74488 2.84274C9.36805 2.34922 11.1121 2.43375 12.6799 3.08193C14.2478 3.73011 15.5424 4.90185 16.3431 6.39749C17.1439 7.89314 17.4014 9.62018 17.0716 11.2844C16.7418 12.9485 15.8453 14.4469 14.5347 15.5241C13.224 16.6014 11.5804 17.1909 9.88391 17.1923Z" fill="#887E7E"/>
</svg>
