<svg width="19" height="24" viewBox="0 0 19 24" fill="none" xmlns="http://www.w3.org/2000/svg">
<path d="M10.3546 9.77038C10.3546 9.54196 10.4453 9.3229 10.6068 9.16139C10.7684 8.99987 10.9874 8.90913 11.2158 8.90913H15.235C15.4634 8.90913 15.6825 8.99987 15.844 9.16139C16.0055 9.3229 16.0962 9.54196 16.0962 9.77038C16.0962 9.9988 16.0055 10.2179 15.844 10.3794C15.6825 10.5409 15.4634 10.6316 15.235 10.6316H11.2158C10.9874 10.6316 10.7684 10.5409 10.6068 10.3794C10.4453 10.2179 10.3546 9.9988 10.3546 9.77038ZM11.2158 15.225C10.9874 15.225 10.7684 15.3157 10.6068 15.4772C10.4453 15.6387 10.3546 15.8578 10.3546 16.0862C10.3546 16.3146 10.4453 16.5337 10.6068 16.6952C10.7684 16.8567 10.9874 16.9475 11.2158 16.9475H15.235C15.4634 16.9475 15.6825 16.8567 15.844 16.6952C16.0055 16.5337 16.0962 16.3146 16.0962 16.0862C16.0962 15.8578 16.0055 15.6387 15.844 15.4772C15.6825 15.3157 15.4634 15.225 15.235 15.225H11.2158ZM8.37945 9.23066C8.46407 9.15182 8.53194 9.05674 8.57901 8.95109C8.62608 8.84544 8.65139 8.7314 8.65343 8.61576C8.65547 8.50012 8.6342 8.38525 8.59088 8.27801C8.54757 8.17077 8.48309 8.07335 8.40131 7.99157C8.31953 7.90979 8.22211 7.84531 8.11487 7.802C8.00763 7.75868 7.89276 7.73741 7.77712 7.73945C7.66148 7.74149 7.54744 7.7668 7.44179 7.81387C7.33615 7.86094 7.24106 7.92881 7.16222 8.01343L5.47417 9.70148L4.93445 9.16176C4.77119 9.00963 4.55525 8.92681 4.33212 8.93075C4.109 8.93468 3.89612 9.02507 3.73832 9.18287C3.58052 9.34066 3.49014 9.55355 3.4862 9.77667C3.48226 9.99979 3.56509 10.2157 3.71722 10.379L4.86555 11.5273C5.02703 11.6886 5.24593 11.7792 5.47417 11.7792C5.7024 11.7792 5.9213 11.6886 6.08278 11.5273L8.37945 9.23066ZM8.37945 14.3293C8.54073 14.4907 8.63133 14.7096 8.63133 14.9379C8.63133 15.1661 8.54073 15.385 8.37945 15.5465L6.08278 17.8432C5.9213 18.0044 5.7024 18.095 5.47417 18.095C5.24593 18.095 5.02703 18.0044 4.86555 17.8432L3.71722 16.6948C3.6326 16.616 3.56473 16.5209 3.51766 16.4153C3.47059 16.3096 3.44527 16.1956 3.44323 16.0799C3.44119 15.9643 3.46247 15.8494 3.50578 15.7422C3.5491 15.6349 3.61357 15.5375 3.69535 15.4557C3.77714 15.374 3.87455 15.3095 3.9818 15.2662C4.08904 15.2228 4.2039 15.2016 4.31954 15.2036C4.43518 15.2057 4.54923 15.231 4.65487 15.278C4.76052 15.3251 4.8556 15.393 4.93445 15.4776L5.47417 16.0173L7.16222 14.3293C7.3237 14.168 7.5426 14.0774 7.77083 14.0774C7.99907 14.0774 8.21796 14.168 8.37945 14.3293ZM14.3669 2.68976C14.3187 2.03925 14.0264 1.43102 13.5484 0.987146C13.0704 0.543268 12.4423 0.296593 11.79 0.296631H7.77083C7.1353 0.29665 6.52207 0.530899 6.04838 0.954593C5.57469 1.37829 5.27377 1.9617 5.20316 2.5933H3.1775C2.49225 2.5933 1.83506 2.86551 1.35051 3.35006C0.865966 3.83461 0.59375 4.49179 0.59375 5.17705V20.6795C0.59375 21.3648 0.865966 22.022 1.35051 22.5065C1.83506 22.9911 2.49225 23.2633 3.1775 23.2633H16.3833C16.7226 23.2633 17.0586 23.1965 17.3721 23.0666C17.6856 22.9368 17.9704 22.7465 18.2103 22.5065C18.4502 22.2666 18.6406 21.9818 18.7704 21.6683C18.9003 21.3548 18.9671 21.0189 18.9671 20.6795V5.17705C18.9671 4.83774 18.9003 4.50176 18.7704 4.18829C18.6406 3.87481 18.4502 3.58998 18.2103 3.35006C17.9704 3.11014 17.6856 2.91982 17.3721 2.78997C17.0586 2.66013 16.7226 2.5933 16.3833 2.5933H14.3577L14.3669 2.68976ZM14.3669 2.70354L14.3737 2.88038C14.3737 2.82067 14.3715 2.7621 14.368 2.70354H14.3669ZM7.77083 5.46413H11.79C12.6857 5.46413 13.4746 5.00824 13.9385 4.3158H16.3833C16.6118 4.3158 16.8308 4.40654 16.9923 4.56805C17.1538 4.72957 17.2446 4.94863 17.2446 5.17705V20.6795C17.2446 20.908 17.1538 21.127 16.9923 21.2885C16.8308 21.4501 16.6118 21.5408 16.3833 21.5408H3.1775C2.94908 21.5408 2.73002 21.4501 2.5685 21.2885C2.40699 21.127 2.31625 20.908 2.31625 20.6795V5.17705C2.31625 4.94863 2.40699 4.72957 2.5685 4.56805C2.73002 4.40654 2.94908 4.3158 3.1775 4.3158H5.6223C6.08623 5.00824 6.87513 5.46413 7.77083 5.46413ZM7.77083 2.01913H11.79C12.0184 2.01913 12.2375 2.10987 12.399 2.27138C12.5605 2.4329 12.6512 2.65196 12.6512 2.88038C12.6512 3.1088 12.5605 3.32786 12.399 3.48938C12.2375 3.65089 12.0184 3.74163 11.79 3.74163H7.77083C7.54242 3.74163 7.32335 3.65089 7.16184 3.48938C7.00032 3.32786 6.90958 3.1088 6.90958 2.88038C6.90958 2.65196 7.00032 2.4329 7.16184 2.27138C7.32335 2.10987 7.54242 2.01913 7.77083 2.01913Z" fill="#6D6D6D" fill-opacity="0.92"/>
</svg>
