<svg width="26" height="26" viewBox="0 0 26 26" fill="none" xmlns="http://www.w3.org/2000/svg">
<path d="M0.148438 24.2633C0.148438 24.8834 0.665187 25.4116 1.29677 25.4116H16.2251C16.8682 25.4116 17.3734 24.8834 17.3734 24.2633V23.115H0.148438V24.2633ZM8.76094 9.33498C4.45469 9.33498 0.148438 11.6316 0.148438 16.225H17.3734C17.3734 11.6316 13.0672 9.33498 8.76094 9.33498ZM3.15707 13.9283C4.43172 12.1484 7.14179 11.6316 8.76094 11.6316C10.3801 11.6316 13.0902 12.1484 14.3648 13.9283H3.15707ZM0.148438 18.5216H17.3734V20.8183H0.148438V18.5216ZM19.6701 4.74165V0.148315H17.3734V4.74165H11.6318L11.8959 7.03832H22.874L21.2663 23.115H19.6701V25.4116H21.6452C22.6098 25.4116 23.4022 24.6652 23.517 23.7236L25.4118 4.74165H19.6701Z" fill="#6D6D6D"/>
</svg>
