<svg width="301" height="71" viewBox="0 0 301 71" fill="none" xmlns="http://www.w3.org/2000/svg">
<path opacity="0.05" d="M37.0229 44.92H51.5589C51.0069 46.0853 50.3322 47.1587 49.5349 48.14C48.7376 49.1213 47.7869 49.9493 46.6829 50.624C45.6402 51.2987 44.3829 51.82 42.9109 52.188C41.4389 52.556 39.7829 52.74 37.9429 52.74C34.6309 52.74 31.7176 52.0347 29.2029 50.624C26.7496 49.2133 24.8176 47.1587 23.4069 44.46C22.0576 41.7613 21.3829 38.5413 21.3829 34.8C21.3829 30.9973 22.1189 27.8387 23.5909 25.324C25.1242 22.8093 27.1482 20.9387 29.6629 19.712C32.1776 18.424 34.9376 17.78 37.9429 17.78C41.0096 17.78 43.4322 18.5467 45.2109 20.08C46.9896 21.6133 48.4309 23.392 49.5349 25.416L68.3949 16.952C66.2482 13.9467 63.7336 11.248 60.8509 8.856C58.0296 6.40266 54.7176 4.44 50.9149 2.968C47.1736 1.496 42.8496 0.759997 37.9429 0.759997C32.5456 0.759997 27.5469 1.55733 22.9469 3.152C18.4082 4.68533 14.4216 6.924 10.9869 9.868C7.61356 12.812 4.97622 16.4 3.07489 20.632C1.17356 24.8027 0.222891 29.5253 0.222891 34.8C0.222891 40.0747 1.11222 44.8587 2.89089 49.152C4.73089 53.4453 7.27622 57.1253 10.5269 60.192C13.8389 63.2587 17.7336 65.62 22.2109 67.276C26.6882 68.932 31.6256 69.76 37.0229 69.76C42.8496 69.76 48.0016 68.748 52.4789 66.724C56.9562 64.7 60.6669 61.8787 63.6109 58.26C66.5549 54.6413 68.6709 50.44 69.9589 45.656C71.3082 40.872 71.7376 35.72 71.2469 30.2H37.0229V44.92ZM80.5288 2.6V45.84C80.5288 50.44 81.2648 54.3347 82.7368 57.524C84.2702 60.652 86.3555 63.1973 88.9928 65.16C91.6302 67.0613 94.6355 68.4413 98.0088 69.3C101.443 70.22 105.062 70.68 108.865 70.68C112.667 70.68 116.255 70.22 119.629 69.3C123.063 68.4413 126.099 67.0613 128.737 65.16C131.374 63.1973 133.429 60.652 134.901 57.524C136.434 54.3347 137.201 50.44 137.201 45.84V2.6H116.961V44C116.961 46.576 116.286 48.692 114.937 50.348C113.649 51.9427 111.625 52.74 108.865 52.74C106.105 52.74 104.05 51.9427 102.701 50.348C101.413 48.692 100.769 46.576 100.769 44V2.6H80.5288ZM149.629 2.6V67H170.329V2.6H149.629ZM183.231 2.6V67H204.299V2.6H183.231ZM208.531 67C216.014 67 222.423 65.712 227.759 63.136C233.156 60.56 237.266 56.88 240.087 52.096C242.97 47.2507 244.411 41.4853 244.411 34.8C244.411 28.0533 242.97 22.288 240.087 17.504C237.266 12.72 233.156 9.03999 227.759 6.464C222.423 3.888 216.014 2.6 208.531 2.6H197.215V20.08H207.611C209.39 20.08 211.199 20.2333 213.039 20.54C214.879 20.8467 216.566 21.4907 218.099 22.472C219.632 23.4533 220.859 24.9253 221.779 26.888C222.76 28.8507 223.251 31.488 223.251 34.8C223.251 38.112 222.76 40.7493 221.779 42.712C220.859 44.6747 219.632 46.1467 218.099 47.128C216.566 48.1093 214.879 48.7533 213.039 49.06C211.199 49.3667 209.39 49.52 207.611 49.52H197.215V67H208.531ZM267.563 67H300.039V50.9H267.563V67ZM267.563 18.7H300.039V2.6H267.563V18.7ZM267.563 41.7H298.199V26.06H267.563V41.7ZM253.579 2.6V67H272.899V2.6H253.579Z" fill="#2A3342"/>
</svg>
