<svg width="23" height="20" viewBox="0 0 23 20" fill="none" xmlns="http://www.w3.org/2000/svg">
<path d="M12.3593 1.29889C11.8708 0.309225 10.4589 0.309225 9.97044 1.29889L7.6438 6.01335L2.44092 6.76916C1.34864 6.92704 0.911529 8.27093 1.70286 9.04154L5.46713 12.7111L4.5791 17.8913C4.39163 18.9806 5.53423 19.8104 6.51107 19.2963L11.1644 16.8493L15.8176 19.2963C16.7945 19.8094 17.9371 18.9806 17.7506 17.8923L16.8626 12.7111L20.6268 9.04055C21.4162 8.27093 20.9811 6.92802 19.8878 6.76916L14.6869 6.01335L12.3583 1.29889H12.3593ZM0.472446 1.96886C0.349989 2.12221 0.293461 2.31793 0.315295 2.51296C0.33713 2.70799 0.435539 2.88636 0.588877 3.00884L3.05563 4.98225C3.13126 5.04512 3.21866 5.09229 3.31272 5.121C3.40679 5.1497 3.50564 5.15937 3.60348 5.14944C3.70133 5.1395 3.79621 5.11017 3.88259 5.06314C3.96896 5.01611 4.0451 4.95234 4.10655 4.87555C4.16799 4.79876 4.21351 4.71049 4.24045 4.6159C4.26739 4.52131 4.27521 4.42231 4.26344 4.32466C4.25168 4.22702 4.22057 4.1327 4.17193 4.04722C4.12329 3.96174 4.0581 3.88681 3.98017 3.82682L1.51342 1.85341C1.43752 1.79257 1.35036 1.74729 1.25695 1.72016C1.16353 1.69303 1.06568 1.68459 0.968996 1.69531C0.872313 1.70603 0.778691 1.73571 0.693488 1.78265C0.608285 1.82959 0.533172 1.89286 0.472446 1.96886ZM21.8563 16.2139C21.9788 16.0606 22.0355 15.865 22.0139 15.67C21.9922 15.475 21.894 15.2965 21.7408 15.1739L19.2741 13.2005C19.1208 13.0778 18.9251 13.0209 18.73 13.0425C18.5349 13.064 18.3563 13.1622 18.2336 13.3154C18.1108 13.4687 18.054 13.6644 18.0756 13.8595C18.0971 14.0546 18.1953 14.2332 18.3485 14.3559L20.8153 16.3293C20.8912 16.3902 20.9783 16.4354 21.0718 16.4626C21.1652 16.4897 21.263 16.4981 21.3597 16.4874C21.4564 16.4767 21.55 16.447 21.6352 16.4001C21.7204 16.3531 21.7955 16.2899 21.8563 16.2139ZM0.588877 15.1739C0.510948 15.2339 0.44576 15.3088 0.397122 15.3943C0.348485 15.4798 0.317374 15.5741 0.305608 15.6717C0.293842 15.7694 0.301657 15.8684 0.328596 15.963C0.355535 16.0576 0.401058 16.1458 0.462504 16.2226C0.52395 16.2994 0.600086 16.3632 0.686463 16.4102C0.772839 16.4572 0.867723 16.4866 0.965569 16.4965C1.06341 16.5064 1.16226 16.4968 1.25632 16.4681C1.35039 16.4394 1.43779 16.3922 1.51342 16.3293L3.98017 14.3559C4.12925 14.232 4.22374 14.0545 4.24332 13.8616C4.2629 13.6687 4.20601 13.4759 4.08489 13.3245C3.96377 13.1731 3.78808 13.0753 3.59561 13.0522C3.40314 13.029 3.20925 13.0822 3.05563 13.2005L0.588877 15.1739ZM21.8563 1.96787C21.9788 2.1211 22.0355 2.31674 22.0139 2.51177C21.9922 2.70679 21.894 2.88523 21.7408 3.00786L19.2741 4.98126C19.1982 5.04203 19.1111 5.08726 19.0178 5.11438C18.9244 5.14149 18.8266 5.14995 18.73 5.13927C18.6334 5.1286 18.5398 5.099 18.4547 5.05217C18.3695 5.00533 18.2944 4.94218 18.2336 4.86631C18.1728 4.79044 18.1276 4.70335 18.1005 4.61C18.0734 4.51665 18.0649 4.41888 18.0756 4.32226C18.0862 4.22565 18.1158 4.13208 18.1627 4.0469C18.2095 3.96172 18.2727 3.8866 18.3485 3.82583L20.8153 1.85243C20.8912 1.79159 20.9783 1.74631 21.0718 1.71918C21.1652 1.69205 21.263 1.6836 21.3597 1.69432C21.4564 1.70505 21.55 1.73473 21.6352 1.78166C21.7204 1.8286 21.7955 1.89188 21.8563 1.96787Z" fill="#E8604C"/>
</svg>
