<svg width="22" height="19" viewBox="0 0 22 19" fill="none" xmlns="http://www.w3.org/2000/svg">
<path d="M20.8686 16.637H19.8252V8.94164C19.8246 8.69896 19.7732 8.45909 19.6744 8.23746C19.5756 8.01582 19.4314 7.81732 19.2513 7.65473L12.295 1.33324C11.9759 1.04055 11.5585 0.878174 11.1255 0.878174C10.6924 0.878174 10.2751 1.04055 9.95598 1.33324L2.99973 7.65473C2.8224 7.81909 2.68074 8.01813 2.58351 8.2395C2.48629 8.46088 2.43558 8.69986 2.43453 8.94164V16.637H1.39109C1.11436 16.637 0.848954 16.7469 0.653272 16.9426C0.45759 17.1383 0.347656 17.4037 0.347656 17.6804C0.347656 17.9572 0.45759 18.2226 0.653272 18.4182C0.848954 18.6139 1.11436 18.7239 1.39109 18.7239H20.8686C21.1453 18.7239 21.4107 18.6139 21.6064 18.4182C21.8021 18.2226 21.912 17.9572 21.912 17.6804C21.912 17.4037 21.8021 17.1383 21.6064 16.9426C21.4107 16.7469 21.1453 16.637 20.8686 16.637ZM4.52141 9.09816L11.1298 3.08969L17.7383 9.09816V16.637H14.2602V12.8111C14.2579 12.3505 14.0739 11.9095 13.7483 11.5839C13.4226 11.2582 12.9816 11.0743 12.5211 11.072H9.73859C9.27807 11.0743 8.83706 11.2582 8.51142 11.5839C8.18577 11.9095 8.00182 12.3505 7.99953 12.8111V16.637H4.52141V9.09816ZM12.1733 16.637H10.0864V13.1589H12.1733V16.637Z" fill="#6D6D6D" fill-opacity="0.92"/>
</svg>
