<svg width="34" height="29" viewBox="0 0 34 29" fill="none" xmlns="http://www.w3.org/2000/svg">
<path d="M18.7531 1.47103C18.0226 0.00705159 15.9107 0.00705159 15.1802 1.47103L11.7003 8.44501L3.91847 9.56307C2.28478 9.79661 1.63101 11.7846 2.81459 12.9245L8.44471 18.3528L7.1165 26.0157C6.8361 27.6271 8.54506 28.8546 10.0061 28.0942L16.9659 24.4744L23.9257 28.0942C25.3867 28.8532 27.0957 27.6271 26.8168 26.0172L25.4885 18.3528L31.1187 12.9231C32.2993 11.7846 31.6485 9.79807 30.0133 9.56307L22.2344 8.44501L18.7516 1.47103H18.7531ZM0.974282 2.4621C0.791126 2.68896 0.706578 2.97848 0.739235 3.26698C0.771893 3.55548 0.91908 3.81934 1.14842 4.00052L4.83789 6.91973C4.951 7.01274 5.08172 7.08251 5.22241 7.12498C5.3631 7.16744 5.51094 7.18175 5.65729 7.16705C5.80363 7.15235 5.94555 7.10896 6.07474 7.03939C6.20393 6.96982 6.31781 6.87549 6.40971 6.76189C6.50161 6.6483 6.5697 6.51772 6.60999 6.3778C6.65029 6.23788 6.66197 6.09142 6.64438 5.94698C6.62678 5.80254 6.58025 5.66302 6.5075 5.53657C6.43475 5.41012 6.33725 5.29929 6.2207 5.21053L2.53123 2.29133C2.41771 2.20133 2.28736 2.13435 2.14764 2.09421C2.00792 2.05408 1.86157 2.04159 1.71696 2.05745C1.57235 2.07331 1.43232 2.11722 1.30489 2.18665C1.17745 2.25609 1.06511 2.34969 0.974282 2.4621ZM32.9575 23.5344C33.1408 23.3077 33.2256 23.0183 33.1932 22.7298C33.1609 22.4413 33.014 22.1774 32.7848 21.996L29.0954 19.0768C28.8662 18.8952 28.5735 18.8111 28.2817 18.843C27.9898 18.8749 27.7227 19.0202 27.5392 19.2468C27.3556 19.4735 27.2706 19.7629 27.3028 20.0516C27.3351 20.3402 27.4819 20.6044 27.7111 20.786L31.4005 23.7052C31.5141 23.7952 31.6444 23.8621 31.7841 23.9023C31.9239 23.9424 32.0702 23.9549 32.2148 23.939C32.3594 23.9232 32.4995 23.8793 32.6269 23.8098C32.7543 23.7404 32.8667 23.6468 32.9575 23.5344ZM1.14842 21.996C1.03187 22.0847 0.934368 22.1956 0.861622 22.322C0.788876 22.4485 0.742344 22.588 0.724746 22.7324C0.707148 22.8769 0.718837 23.0233 0.759129 23.1632C0.799421 23.3032 0.867509 23.4337 0.959412 23.5473C1.05132 23.6609 1.16519 23.7553 1.29438 23.8248C1.42357 23.8944 1.56549 23.9378 1.71183 23.9525C1.85818 23.9672 2.00602 23.9529 2.14671 23.9104C2.2874 23.8679 2.41812 23.7982 2.53123 23.7052L6.2207 20.786C6.44366 20.6026 6.58499 20.3401 6.61428 20.0548C6.64357 19.7694 6.55848 19.4841 6.37732 19.2602C6.19616 19.0363 5.93339 18.8916 5.64552 18.8573C5.35764 18.823 5.06764 18.9018 4.83789 19.0768L1.14842 21.996ZM32.9575 2.46064C33.1408 2.68732 33.2256 2.97672 33.1932 3.26521C33.1609 3.55371 33.014 3.81767 32.7848 3.99906L29.0954 6.91827C28.9819 7.00817 28.8516 7.07508 28.712 7.11519C28.5724 7.15529 28.4262 7.16781 28.2817 7.15202C28.1371 7.13623 27.9972 7.09244 27.8698 7.02316C27.7424 6.95388 27.63 6.86045 27.5392 6.74823C27.4483 6.636 27.3806 6.50716 27.3401 6.36908C27.2995 6.23099 27.2868 6.08636 27.3028 5.94343C27.3188 5.80051 27.3631 5.6621 27.4331 5.5361C27.5032 5.41009 27.5976 5.29897 27.7111 5.20908L31.4005 2.28987C31.5141 2.19987 31.6444 2.13289 31.7841 2.09276C31.9239 2.05262 32.0702 2.04013 32.2148 2.05599C32.3594 2.07185 32.4995 2.11576 32.6269 2.18519C32.7543 2.25463 32.8667 2.34823 32.9575 2.46064Z" fill="#D1D4D7"/>
</svg>
