<svg width="57" height="21" viewBox="0 0 57 21" fill="none" xmlns="http://www.w3.org/2000/svg">
<path d="M15.9873 0.204V4.012H10.6113V20H5.79533V4.012H0.475328V0.204H15.9873ZM21.7015 0.204L26.5455 15.1L31.3895 0.204H36.5135L29.6255 20H23.4375L16.5775 0.204H21.7015Z" fill="#2A3342"/>
<path d="M47.3933 0.0079987C49.9133 0.0079987 51.9946 0.670666 53.6373 1.996C55.2986 3.32133 56.3719 5.11333 56.8573 7.372H51.7893C51.4159 6.45733 50.8373 5.73867 50.0533 5.216C49.2879 4.69333 48.3733 4.432 47.3093 4.432C45.9093 4.432 44.7799 4.94533 43.9213 5.972C43.0626 6.99867 42.6333 8.37067 42.6333 10.088C42.6333 11.8053 43.0626 13.1773 43.9213 14.204C44.7799 15.212 45.9093 15.716 47.3093 15.716C48.3733 15.716 49.2879 15.4547 50.0533 14.932C50.8373 14.4093 51.4159 13.7 51.7893 12.804H56.8573C56.3719 15.044 55.2986 16.836 53.6373 18.18C51.9946 19.5053 49.9133 20.168 47.3933 20.168C45.4706 20.168 43.7813 19.748 42.3253 18.908C40.8693 18.0493 39.7399 16.8547 38.9373 15.324C38.1533 13.7933 37.7613 12.048 37.7613 10.088C37.7613 8.128 38.1533 6.38267 38.9373 4.852C39.7399 3.32133 40.8693 2.136 42.3253 1.296C43.7813 0.437332 45.4706 0.0079987 47.3933 0.0079987Z" fill="#E8604C"/>
</svg>
