<svg width="41" height="21" viewBox="0 0 41 21" fill="none" xmlns="http://www.w3.org/2000/svg">
<path d="M20.2974 0.343999L13.3254 20H7.33338L0.361375 0.343999H5.45738L10.3294 15.184L15.2294 0.343999H20.2974Z" fill="#2A3342"/>
<path d="M21.4865 10.144C21.4865 8.20267 21.9065 6.476 22.7465 4.964C23.5865 3.43333 24.7532 2.248 26.2465 1.408C27.7585 0.549332 29.4665 0.119999 31.3705 0.119999C33.7038 0.119999 35.7012 0.735999 37.3625 1.968C39.0238 3.2 40.1345 4.88 40.6945 7.008H35.4305C35.0385 6.18667 34.4785 5.56133 33.7505 5.132C33.0412 4.70267 32.2292 4.488 31.3145 4.488C29.8398 4.488 28.6452 5.00133 27.7305 6.028C26.8158 7.05467 26.3585 8.42667 26.3585 10.144C26.3585 11.8613 26.8158 13.2333 27.7305 14.26C28.6452 15.2867 29.8398 15.8 31.3145 15.8C32.2292 15.8 33.0412 15.5853 33.7505 15.156C34.4785 14.7267 35.0385 14.1013 35.4305 13.28H40.6945C40.1345 15.408 39.0238 17.088 37.3625 18.32C35.7012 19.5333 33.7038 20.14 31.3705 20.14C29.4665 20.14 27.7585 19.72 26.2465 18.88C24.7532 18.0213 23.5865 16.836 22.7465 15.324C21.9065 13.812 21.4865 12.0853 21.4865 10.144Z" fill="#E8604C"/>
</svg>
