<svg width="273" height="24" viewBox="0 0 273 24" fill="none" xmlns="http://www.w3.org/2000/svg">
<path d="M20.5025 3.344L13.5305 23H7.53845L0.566453 3.344H5.66245L10.5345 18.184L15.4345 3.344H20.5025ZM21.5516 15.16C21.5516 13.5547 21.8502 12.1453 22.4476 10.932C23.0636 9.71867 23.8942 8.78533 24.9396 8.132C25.9849 7.47867 27.1516 7.152 28.4396 7.152C29.5409 7.152 30.5022 7.376 31.3236 7.824C32.1636 8.272 32.8076 8.86 33.2556 9.588V7.376H38.0436V23H33.2556V20.788C32.7889 21.516 32.1356 22.104 31.2956 22.552C30.4742 23 29.5129 23.224 28.4116 23.224C27.1422 23.224 25.9849 22.8973 24.9396 22.244C23.8942 21.572 23.0636 20.6293 22.4476 19.416C21.8502 18.184 21.5516 16.7653 21.5516 15.16ZM33.2556 15.188C33.2556 13.9933 32.9196 13.0507 32.2476 12.36C31.5942 11.6693 30.7916 11.324 29.8396 11.324C28.8876 11.324 28.0756 11.6693 27.4036 12.36C26.7502 13.032 26.4236 13.9653 26.4236 15.16C26.4236 16.3547 26.7502 17.3067 27.4036 18.016C28.0756 18.7067 28.8876 19.052 29.8396 19.052C30.7916 19.052 31.5942 18.7067 32.2476 18.016C32.9196 17.3253 33.2556 16.3827 33.2556 15.188ZM40.5555 15.188C40.5555 13.564 40.8822 12.1453 41.5355 10.932C42.2075 9.71867 43.1315 8.78533 44.3075 8.132C45.5022 7.47867 46.8648 7.152 48.3955 7.152C50.3555 7.152 51.9888 7.66533 53.2955 8.692C54.6208 9.71867 55.4888 11.1653 55.8995 13.032H50.8035C50.3742 11.8373 49.5435 11.24 48.3115 11.24C47.4342 11.24 46.7342 11.5853 46.2115 12.276C45.6888 12.948 45.4275 13.9187 45.4275 15.188C45.4275 16.4573 45.6888 17.4373 46.2115 18.128C46.7342 18.8 47.4342 19.136 48.3115 19.136C49.5435 19.136 50.3742 18.5387 50.8035 17.344H55.8995C55.4888 19.1733 54.6208 20.6107 53.2955 21.656C51.9702 22.7013 50.3368 23.224 48.3955 23.224C46.8648 23.224 45.5022 22.8973 44.3075 22.244C43.1315 21.5907 42.2075 20.6573 41.5355 19.444C40.8822 18.2307 40.5555 16.812 40.5555 15.188ZM57.5086 15.16C57.5086 13.5547 57.8073 12.1453 58.4046 10.932C59.0206 9.71867 59.8513 8.78533 60.8966 8.132C61.9419 7.47867 63.1086 7.152 64.3966 7.152C65.4979 7.152 66.4593 7.376 67.2806 7.824C68.1206 8.272 68.7646 8.86 69.2126 9.588V7.376H74.0006V23H69.2126V20.788C68.7459 21.516 68.0926 22.104 67.2526 22.552C66.4313 23 65.4699 23.224 64.3686 23.224C63.0993 23.224 61.9419 22.8973 60.8966 22.244C59.8513 21.572 59.0206 20.6293 58.4046 19.416C57.8073 18.184 57.5086 16.7653 57.5086 15.16ZM69.2126 15.188C69.2126 13.9933 68.8766 13.0507 68.2046 12.36C67.5513 11.6693 66.7486 11.324 65.7966 11.324C64.8446 11.324 64.0326 11.6693 63.3606 12.36C62.7073 13.032 62.3806 13.9653 62.3806 15.16C62.3806 16.3547 62.7073 17.3067 63.3606 18.016C64.0326 18.7067 64.8446 19.052 65.7966 19.052C66.7486 19.052 67.5513 18.7067 68.2046 18.016C68.8766 17.3253 69.2126 16.3827 69.2126 15.188ZM86.1725 18.94V23H83.7365C82.0005 23 80.6472 22.58 79.6765 21.74C78.7058 20.8813 78.2205 19.4907 78.2205 17.568V11.352H76.3165V7.376H78.2205V3.568H83.0085V7.376H86.1445V11.352H83.0085V17.624C83.0085 18.0907 83.1205 18.4267 83.3445 18.632C83.5685 18.8373 83.9418 18.94 84.4645 18.94H86.1725ZM91.2475 5.752C90.4075 5.752 89.7168 5.50933 89.1755 5.024C88.6528 4.52 88.3915 3.904 88.3915 3.176C88.3915 2.42933 88.6528 1.81333 89.1755 1.328C89.7168 0.823998 90.4075 0.571998 91.2475 0.571998C92.0688 0.571998 92.7408 0.823998 93.2635 1.328C93.8048 1.81333 94.0755 2.42933 94.0755 3.176C94.0755 3.904 93.8048 4.52 93.2635 5.024C92.7408 5.50933 92.0688 5.752 91.2475 5.752ZM93.6275 7.376V23H88.8395V7.376H93.6275ZM104.209 23.224C102.679 23.224 101.297 22.8973 100.065 22.244C98.852 21.5907 97.8907 20.6573 97.1813 19.444C96.4907 18.2307 96.1453 16.812 96.1453 15.188C96.1453 13.5827 96.5 12.1733 97.2093 10.96C97.9187 9.728 98.8893 8.78533 100.121 8.132C101.353 7.47867 102.735 7.152 104.265 7.152C105.796 7.152 107.177 7.47867 108.409 8.132C109.641 8.78533 110.612 9.728 111.321 10.96C112.031 12.1733 112.385 13.5827 112.385 15.188C112.385 16.7933 112.021 18.212 111.293 19.444C110.584 20.6573 109.604 21.5907 108.353 22.244C107.121 22.8973 105.74 23.224 104.209 23.224ZM104.209 19.08C105.124 19.08 105.899 18.744 106.533 18.072C107.187 17.4 107.513 16.4387 107.513 15.188C107.513 13.9373 107.196 12.976 106.561 12.304C105.945 11.632 105.18 11.296 104.265 11.296C103.332 11.296 102.557 11.632 101.941 12.304C101.325 12.9573 101.017 13.9187 101.017 15.188C101.017 16.4387 101.316 17.4 101.913 18.072C102.529 18.744 103.295 19.08 104.209 19.08ZM124.445 7.208C126.275 7.208 127.731 7.80533 128.813 9C129.915 10.176 130.465 11.8 130.465 13.872V23H125.705V14.516C125.705 13.4707 125.435 12.6587 124.893 12.08C124.352 11.5013 123.624 11.212 122.709 11.212C121.795 11.212 121.067 11.5013 120.525 12.08C119.984 12.6587 119.713 13.4707 119.713 14.516V23H114.925V7.376H119.713V9.448C120.199 8.75733 120.852 8.216 121.673 7.824C122.495 7.41333 123.419 7.208 124.445 7.208Z" fill="#2A3342"/>
<path d="M138.914 13.144C138.914 11.2027 139.334 9.476 140.174 7.964C141.014 6.43333 142.181 5.248 143.674 4.408C145.186 3.54933 146.894 3.12 148.798 3.12C151.132 3.12 153.129 3.736 154.79 4.968C156.452 6.2 157.562 7.88 158.122 10.008H152.858C152.466 9.18667 151.906 8.56133 151.178 8.132C150.469 7.70267 149.657 7.488 148.742 7.488C147.268 7.488 146.073 8.00133 145.158 9.028C144.244 10.0547 143.786 11.4267 143.786 13.144C143.786 14.8613 144.244 16.2333 145.158 17.26C146.073 18.2867 147.268 18.8 148.742 18.8C149.657 18.8 150.469 18.5853 151.178 18.156C151.906 17.7267 152.466 17.1013 152.858 16.28H158.122C157.562 18.408 156.452 20.088 154.79 21.32C153.129 22.5333 151.132 23.14 148.798 23.14C146.894 23.14 145.186 22.72 143.674 21.88C142.181 21.0213 141.014 19.836 140.174 18.324C139.334 16.812 138.914 15.0853 138.914 13.144ZM160.102 15.16C160.102 13.5547 160.401 12.1453 160.998 10.932C161.614 9.71867 162.445 8.78533 163.49 8.132C164.536 7.47867 165.702 7.152 166.99 7.152C168.092 7.152 169.053 7.376 169.874 7.824C170.714 8.272 171.358 8.86 171.806 9.588V7.376H176.594V23H171.806V20.788C171.34 21.516 170.686 22.104 169.846 22.552C169.025 23 168.064 23.224 166.962 23.224C165.693 23.224 164.536 22.8973 163.49 22.244C162.445 21.572 161.614 20.6293 160.998 19.416C160.401 18.184 160.102 16.7653 160.102 15.16ZM171.806 15.188C171.806 13.9933 171.47 13.0507 170.798 12.36C170.145 11.6693 169.342 11.324 168.39 11.324C167.438 11.324 166.626 11.6693 165.954 12.36C165.301 13.032 164.974 13.9653 164.974 15.16C164.974 16.3547 165.301 17.3067 165.954 18.016C166.626 18.7067 167.438 19.052 168.39 19.052C169.342 19.052 170.145 18.7067 170.798 18.016C171.47 17.3253 171.806 16.3827 171.806 15.188ZM184.846 2.28V23H180.058V2.28H184.846ZM203.044 14.936C203.044 15.384 203.016 15.8507 202.96 16.336H192.124C192.199 17.3067 192.507 18.0533 193.048 18.576C193.608 19.08 194.289 19.332 195.092 19.332C196.287 19.332 197.117 18.828 197.584 17.82H202.68C202.419 18.8467 201.943 19.7707 201.252 20.592C200.58 21.4133 199.731 22.0573 198.704 22.524C197.677 22.9907 196.529 23.224 195.26 23.224C193.729 23.224 192.367 22.8973 191.172 22.244C189.977 21.5907 189.044 20.6573 188.372 19.444C187.7 18.2307 187.364 16.812 187.364 15.188C187.364 13.564 187.691 12.1453 188.344 10.932C189.016 9.71867 189.949 8.78533 191.144 8.132C192.339 7.47867 193.711 7.152 195.26 7.152C196.772 7.152 198.116 7.46933 199.292 8.104C200.468 8.73867 201.383 9.644 202.036 10.82C202.708 11.996 203.044 13.368 203.044 14.936ZM198.144 13.676C198.144 12.8547 197.864 12.2013 197.304 11.716C196.744 11.2307 196.044 10.988 195.204 10.988C194.401 10.988 193.72 11.2213 193.16 11.688C192.619 12.1547 192.283 12.8173 192.152 13.676H198.144ZM215.09 7.208C216.919 7.208 218.375 7.80533 219.458 9C220.559 10.176 221.11 11.8 221.11 13.872V23H216.35V14.516C216.35 13.4707 216.079 12.6587 215.538 12.08C214.997 11.5013 214.269 11.212 213.354 11.212C212.439 11.212 211.711 11.5013 211.17 12.08C210.629 12.6587 210.358 13.4707 210.358 14.516V23H205.57V7.376H210.358V9.448C210.843 8.75733 211.497 8.216 212.318 7.824C213.139 7.41333 214.063 7.208 215.09 7.208ZM223.485 15.16C223.485 13.5547 223.784 12.1453 224.381 10.932C224.997 9.71867 225.828 8.78533 226.873 8.132C227.919 7.47867 229.085 7.152 230.373 7.152C231.4 7.152 232.333 7.36667 233.173 7.796C234.032 8.22533 234.704 8.804 235.189 9.532V2.28H239.977V23H235.189V20.76C234.741 21.5067 234.097 22.104 233.257 22.552C232.436 23 231.475 23.224 230.373 23.224C229.085 23.224 227.919 22.8973 226.873 22.244C225.828 21.572 224.997 20.6293 224.381 19.416C223.784 18.184 223.485 16.7653 223.485 15.16ZM235.189 15.188C235.189 13.9933 234.853 13.0507 234.181 12.36C233.528 11.6693 232.725 11.324 231.773 11.324C230.821 11.324 230.009 11.6693 229.337 12.36C228.684 13.032 228.357 13.9653 228.357 15.16C228.357 16.3547 228.684 17.3067 229.337 18.016C230.009 18.7067 230.821 19.052 231.773 19.052C232.725 19.052 233.528 18.7067 234.181 18.016C234.853 17.3253 235.189 16.3827 235.189 15.188ZM242.489 15.16C242.489 13.5547 242.788 12.1453 243.385 10.932C244.001 9.71867 244.832 8.78533 245.877 8.132C246.922 7.47867 248.089 7.152 249.377 7.152C250.478 7.152 251.44 7.376 252.261 7.824C253.101 8.272 253.745 8.86 254.193 9.588V7.376H258.981V23H254.193V20.788C253.726 21.516 253.073 22.104 252.233 22.552C251.412 23 250.45 23.224 249.349 23.224C248.08 23.224 246.922 22.8973 245.877 22.244C244.832 21.572 244.001 20.6293 243.385 19.416C242.788 18.184 242.489 16.7653 242.489 15.16ZM254.193 15.188C254.193 13.9933 253.857 13.0507 253.185 12.36C252.532 11.6693 251.729 11.324 250.777 11.324C249.825 11.324 249.013 11.6693 248.341 12.36C247.688 13.032 247.361 13.9653 247.361 15.16C247.361 16.3547 247.688 17.3067 248.341 18.016C249.013 18.7067 249.825 19.052 250.777 19.052C251.729 19.052 252.532 18.7067 253.185 18.016C253.857 17.3253 254.193 16.3827 254.193 15.188ZM267.233 9.98C267.793 9.12133 268.493 8.44933 269.333 7.964C270.173 7.46 271.106 7.208 272.133 7.208V12.276H270.817C269.622 12.276 268.726 12.5373 268.129 13.06C267.532 13.564 267.233 14.46 267.233 15.748V23H262.445V7.376H267.233V9.98Z" fill="#E8604C"/>
</svg>
