<svg width="331" height="24" viewBox="0 0 331 24" fill="none" xmlns="http://www.w3.org/2000/svg">
<path d="M16.2334 3.204V7.012H10.8574V23H6.04142V7.012H0.721422V3.204H16.2334ZM28.1636 7.208C29.9556 7.208 31.3743 7.80533 32.4196 9C33.4836 10.1947 34.0156 11.8373 34.0156 13.928V23H29.2276V14.488C29.2276 13.4427 28.9476 12.6307 28.3876 12.052C27.8463 11.4547 27.1183 11.156 26.2036 11.156C25.2329 11.156 24.4583 11.464 23.8796 12.08C23.3196 12.696 23.0396 13.5733 23.0396 14.712V23H18.2516V2.28H23.0396V10.232C23.4876 9.29867 24.1503 8.56133 25.0276 8.02C25.9236 7.47867 26.9689 7.208 28.1636 7.208ZM52.0135 14.768C52.0135 15.16 51.9668 15.5893 51.8735 16.056H41.0375C41.0935 17.232 41.3922 18.0813 41.9335 18.604C42.4748 19.108 43.1655 19.36 44.0055 19.36C44.7148 19.36 45.3028 19.1827 45.7695 18.828C46.2362 18.4733 46.5442 18.016 46.6935 17.456H51.7615C51.5562 18.5573 51.1082 19.5467 50.4175 20.424C49.7268 21.2827 48.8495 21.964 47.7855 22.468C46.7215 22.9533 45.5362 23.196 44.2295 23.196C42.6988 23.196 41.3362 22.8787 40.1415 22.244C38.9655 21.5907 38.0415 20.6573 37.3695 19.444C36.6975 18.2307 36.3615 16.812 36.3615 15.188C36.3615 13.5453 36.6882 12.1267 37.3415 10.932C38.0135 9.71867 38.9468 8.79467 40.1415 8.16C41.3362 7.50667 42.6988 7.18 44.2295 7.18C45.7788 7.18 47.1415 7.49733 48.3175 8.132C49.4935 8.76667 50.3988 9.66267 51.0335 10.82C51.6868 11.9587 52.0135 13.2747 52.0135 14.768ZM47.1695 14.04C47.1882 13.0133 46.9082 12.248 46.3295 11.744C45.7695 11.2213 45.0695 10.96 44.2295 10.96C43.3522 10.96 42.6242 11.2213 42.0455 11.744C41.4668 12.2667 41.1402 13.032 41.0655 14.04H47.1695ZM63.8109 3.204L68.6549 18.1L73.4989 3.204H78.6229L71.7349 23H65.5469L58.6869 3.204H63.8109ZM86.3946 7.18C87.5893 7.18 88.616 7.45067 89.4746 7.992C90.3333 8.53333 90.968 9.27067 91.3786 10.204V7.376H96.1386V23H91.3786V20.172C90.968 21.1053 90.3333 21.8427 89.4746 22.384C88.616 22.9253 87.5893 23.196 86.3946 23.196C85.1066 23.196 83.9493 22.8787 82.9226 22.244C81.9146 21.5907 81.112 20.6573 80.5146 19.444C79.936 18.2307 79.6466 16.812 79.6466 15.188C79.6466 13.5453 79.936 12.1267 80.5146 10.932C81.112 9.71867 81.9146 8.79467 82.9226 8.16C83.9493 7.50667 85.1066 7.18 86.3946 7.18ZM87.9346 11.38C86.908 11.38 86.0773 11.716 85.4426 12.388C84.8266 13.06 84.5186 13.9933 84.5186 15.188C84.5186 16.3827 84.8266 17.316 85.4426 17.988C86.0773 18.66 86.908 18.996 87.9346 18.996C88.9426 18.996 89.764 18.6507 90.3986 17.96C91.052 17.2693 91.3786 16.3453 91.3786 15.188C91.3786 14.012 91.052 13.088 90.3986 12.416C89.764 11.7253 88.9426 11.38 87.9346 11.38ZM106.491 7.18C108.507 7.18 110.197 7.74 111.559 8.86C112.922 9.96133 113.781 11.4827 114.135 13.424H109.067C108.918 12.752 108.61 12.2293 108.143 11.856C107.677 11.4827 107.089 11.296 106.379 11.296C105.539 11.296 104.849 11.632 104.307 12.304C103.766 12.9573 103.495 13.9187 103.495 15.188C103.495 16.4573 103.766 17.428 104.307 18.1C104.849 18.7533 105.539 19.08 106.379 19.08C107.089 19.08 107.677 18.8933 108.143 18.52C108.61 18.1467 108.918 17.624 109.067 16.952H114.135C113.781 18.8933 112.922 20.424 111.559 21.544C110.197 22.6453 108.507 23.196 106.491 23.196C104.961 23.196 103.598 22.8787 102.403 22.244C101.227 21.5907 100.303 20.6573 99.6312 19.444C98.9592 18.2307 98.6232 16.812 98.6232 15.188C98.6232 13.5453 98.9499 12.1267 99.6032 10.932C100.275 9.71867 101.209 8.79467 102.403 8.16C103.598 7.50667 104.961 7.18 106.491 7.18ZM122.57 7.18C123.765 7.18 124.792 7.45067 125.65 7.992C126.509 8.53333 127.144 9.27067 127.554 10.204V7.376H132.314V23H127.554V20.172C127.144 21.1053 126.509 21.8427 125.65 22.384C124.792 22.9253 123.765 23.196 122.57 23.196C121.282 23.196 120.125 22.8787 119.098 22.244C118.09 21.5907 117.288 20.6573 116.69 19.444C116.112 18.2307 115.822 16.812 115.822 15.188C115.822 13.5453 116.112 12.1267 116.69 10.932C117.288 9.71867 118.09 8.79467 119.098 8.16C120.125 7.50667 121.282 7.18 122.57 7.18ZM124.11 11.38C123.084 11.38 122.253 11.716 121.618 12.388C121.002 13.06 120.694 13.9933 120.694 15.188C120.694 16.3827 121.002 17.316 121.618 17.988C122.253 18.66 123.084 18.996 124.11 18.996C125.118 18.996 125.94 18.6507 126.574 17.96C127.228 17.2693 127.554 16.3453 127.554 15.188C127.554 14.012 127.228 13.088 126.574 12.416C125.94 11.7253 125.118 11.38 124.11 11.38ZM144.459 18.884V23H142.303C140.474 23 139.046 22.552 138.019 21.656C137.011 20.7413 136.507 19.2387 136.507 17.148V11.408H134.407V7.376H136.507V3.54H141.295V7.376H144.431V11.408H141.295V17.232C141.295 17.848 141.416 18.2773 141.659 18.52C141.92 18.7627 142.35 18.884 142.947 18.884H144.459ZM146.702 2.98C146.702 2.252 146.963 1.65467 147.486 1.188C148.009 0.702665 148.699 0.459998 149.558 0.459998C150.417 0.459998 151.107 0.702665 151.63 1.188C152.153 1.65467 152.414 2.252 152.414 2.98C152.414 3.68933 152.153 4.28667 151.63 4.772C151.107 5.23867 150.417 5.472 149.558 5.472C148.699 5.472 148.009 5.23867 147.486 4.772C146.963 4.28667 146.702 3.68933 146.702 2.98ZM151.938 7.376V23H147.15V7.376H151.938ZM162.552 7.18C164.101 7.18 165.482 7.50667 166.696 8.16C167.928 8.79467 168.889 9.71867 169.58 10.932C170.289 12.1453 170.644 13.564 170.644 15.188C170.644 16.812 170.289 18.2307 169.58 19.444C168.889 20.6573 167.928 21.5907 166.696 22.244C165.482 22.8787 164.101 23.196 162.552 23.196C161.002 23.196 159.612 22.8787 158.38 22.244C157.148 21.5907 156.177 20.6573 155.468 19.444C154.777 18.2307 154.432 16.812 154.432 15.188C154.432 13.564 154.777 12.1453 155.468 10.932C156.177 9.71867 157.148 8.79467 158.38 8.16C159.612 7.50667 161.002 7.18 162.552 7.18ZM162.552 11.324C161.637 11.324 160.862 11.66 160.228 12.332C159.612 12.9853 159.304 13.9373 159.304 15.188C159.304 16.4387 159.612 17.3907 160.228 18.044C160.862 18.6973 161.637 19.024 162.552 19.024C163.466 19.024 164.232 18.6973 164.848 18.044C165.464 17.3907 165.772 16.4387 165.772 15.188C165.772 13.9373 165.464 12.9853 164.848 12.332C164.232 11.66 163.466 11.324 162.552 11.324ZM183.039 7.208C184.831 7.208 186.249 7.80533 187.295 9C188.359 10.1947 188.891 11.8373 188.891 13.928V23H184.103V14.488C184.103 13.4427 183.823 12.6307 183.263 12.052C182.721 11.4547 181.993 11.156 181.079 11.156C180.108 11.156 179.333 11.464 178.755 12.08C178.195 12.696 177.915 13.5733 177.915 14.712V23H173.127V7.376H177.915V10.232C178.363 9.29867 179.025 8.56133 179.903 8.02C180.799 7.47867 181.844 7.208 183.039 7.208Z" fill="#2A3342"/>
<path d="M206.698 3.008C209.218 3.008 211.299 3.67067 212.942 4.996C214.603 6.32133 215.677 8.11333 216.162 10.372H211.094C210.721 9.45733 210.142 8.73867 209.358 8.216C208.593 7.69333 207.678 7.432 206.614 7.432C205.214 7.432 204.085 7.94533 203.226 8.972C202.367 9.99867 201.938 11.3707 201.938 13.088C201.938 14.8053 202.367 16.1773 203.226 17.204C204.085 18.212 205.214 18.716 206.614 18.716C207.678 18.716 208.593 18.4547 209.358 17.932C210.142 17.4093 210.721 16.7 211.094 15.804H216.162C215.677 18.044 214.603 19.836 212.942 21.18C211.299 22.5053 209.218 23.168 206.698 23.168C204.775 23.168 203.086 22.748 201.63 21.908C200.174 21.0493 199.045 19.8547 198.242 18.324C197.458 16.7933 197.066 15.048 197.066 13.088C197.066 11.128 197.458 9.38267 198.242 7.852C199.045 6.32133 200.174 5.136 201.63 4.296C203.086 3.43733 204.775 3.008 206.698 3.008ZM224.781 7.18C225.976 7.18 227.003 7.45067 227.861 7.992C228.72 8.53333 229.355 9.27067 229.765 10.204V7.376H234.525V23H229.765V20.172C229.355 21.1053 228.72 21.8427 227.861 22.384C227.003 22.9253 225.976 23.196 224.781 23.196C223.493 23.196 222.336 22.8787 221.309 22.244C220.301 21.5907 219.499 20.6573 218.901 19.444C218.323 18.2307 218.033 16.812 218.033 15.188C218.033 13.5453 218.323 12.1267 218.901 10.932C219.499 9.71867 220.301 8.79467 221.309 8.16C222.336 7.50667 223.493 7.18 224.781 7.18ZM226.321 11.38C225.295 11.38 224.464 11.716 223.829 12.388C223.213 13.06 222.905 13.9933 222.905 15.188C222.905 16.3827 223.213 17.316 223.829 17.988C224.464 18.66 225.295 18.996 226.321 18.996C227.329 18.996 228.151 18.6507 228.785 17.96C229.439 17.2693 229.765 16.3453 229.765 15.188C229.765 14.012 229.439 13.088 228.785 12.416C228.151 11.7253 227.329 11.38 226.321 11.38ZM242.61 2.28V23H237.822V2.28H242.61ZM260.756 14.768C260.756 15.16 260.709 15.5893 260.616 16.056H249.78C249.836 17.232 250.134 18.0813 250.676 18.604C251.217 19.108 251.908 19.36 252.748 19.36C253.457 19.36 254.045 19.1827 254.512 18.828C254.978 18.4733 255.286 18.016 255.436 17.456H260.504C260.298 18.5573 259.85 19.5467 259.16 20.424C258.469 21.2827 257.592 21.964 256.528 22.468C255.464 22.9533 254.278 23.196 252.972 23.196C251.441 23.196 250.078 22.8787 248.884 22.244C247.708 21.5907 246.784 20.6573 246.112 19.444C245.44 18.2307 245.104 16.812 245.104 15.188C245.104 13.5453 245.43 12.1267 246.084 10.932C246.756 9.71867 247.689 8.79467 248.884 8.16C250.078 7.50667 251.441 7.18 252.972 7.18C254.521 7.18 255.884 7.49733 257.06 8.132C258.236 8.76667 259.141 9.66267 259.776 10.82C260.429 11.9587 260.756 13.2747 260.756 14.768ZM255.912 14.04C255.93 13.0133 255.65 12.248 255.072 11.744C254.512 11.2213 253.812 10.96 252.972 10.96C252.094 10.96 251.366 11.2213 250.788 11.744C250.209 12.2667 249.882 13.032 249.808 14.04H255.912ZM273.164 7.208C274.956 7.208 276.374 7.80533 277.42 9C278.484 10.1947 279.016 11.8373 279.016 13.928V23H274.228V14.488C274.228 13.4427 273.948 12.6307 273.388 12.052C272.846 11.4547 272.118 11.156 271.204 11.156C270.233 11.156 269.458 11.464 268.88 12.08C268.32 12.696 268.04 13.5733 268.04 14.712V23H263.252V7.376H268.04V10.232C268.488 9.29867 269.15 8.56133 270.028 8.02C270.924 7.47867 271.969 7.208 273.164 7.208ZM288.109 7.18C289.304 7.18 290.331 7.45067 291.189 7.992C292.048 8.53333 292.673 9.27067 293.065 10.204V2.28H297.853V23H293.065V20.172C292.673 21.1053 292.048 21.8427 291.189 22.384C290.331 22.9253 289.304 23.196 288.109 23.196C286.821 23.196 285.664 22.8787 284.637 22.244C283.629 21.5907 282.827 20.6573 282.229 19.444C281.651 18.2307 281.361 16.812 281.361 15.188C281.361 13.5453 281.651 12.1267 282.229 10.932C282.827 9.71867 283.629 8.79467 284.637 8.16C285.664 7.50667 286.821 7.18 288.109 7.18ZM289.649 11.38C288.623 11.38 287.792 11.716 287.157 12.388C286.541 13.06 286.233 13.9933 286.233 15.188C286.233 16.3827 286.541 17.316 287.157 17.988C287.792 18.66 288.623 18.996 289.649 18.996C290.657 18.996 291.479 18.6507 292.113 17.96C292.767 17.2693 293.093 16.3453 293.093 15.188C293.093 14.012 292.767 13.088 292.113 12.416C291.479 11.7253 290.657 11.38 289.649 11.38ZM307.086 7.18C308.281 7.18 309.307 7.45067 310.166 7.992C311.025 8.53333 311.659 9.27067 312.07 10.204V7.376H316.83V23H312.07V20.172C311.659 21.1053 311.025 21.8427 310.166 22.384C309.307 22.9253 308.281 23.196 307.086 23.196C305.798 23.196 304.641 22.8787 303.614 22.244C302.606 21.5907 301.803 20.6573 301.206 19.444C300.627 18.2307 300.338 16.812 300.338 15.188C300.338 13.5453 300.627 12.1267 301.206 10.932C301.803 9.71867 302.606 8.79467 303.614 8.16C304.641 7.50667 305.798 7.18 307.086 7.18ZM308.626 11.38C307.599 11.38 306.769 11.716 306.134 12.388C305.518 13.06 305.21 13.9933 305.21 15.188C305.21 16.3827 305.518 17.316 306.134 17.988C306.769 18.66 307.599 18.996 308.626 18.996C309.634 18.996 310.455 18.6507 311.09 17.96C311.743 17.2693 312.07 16.3453 312.07 15.188C312.07 14.012 311.743 13.088 311.09 12.416C310.455 11.7253 309.634 11.38 308.626 11.38ZM324.915 10.316C325.512 9.364 326.277 8.608 327.211 8.048C328.163 7.488 329.189 7.208 330.291 7.208V12.332H328.919C327.649 12.332 326.66 12.6027 325.951 13.144C325.26 13.6853 324.915 14.6 324.915 15.888V23H320.127V7.376H324.915V10.316Z" fill="#E8604C"/>
</svg>
