<svg width="58" height="22" viewBox="0 0 58 22" fill="none" xmlns="http://www.w3.org/2000/svg">
<path d="M9.42153 1.576L6.43353 10H3.86553L0.877531 1.576H3.06153L5.14953 7.936L7.24953 1.576H9.42153ZM9.87116 6.64C9.87116 5.952 9.99916 5.348 10.2552 4.828C10.5192 4.308 10.8752 3.908 11.3232 3.628C11.7712 3.348 12.2712 3.208 12.8232 3.208C13.2952 3.208 13.7072 3.304 14.0592 3.496C14.4192 3.688 14.6952 3.94 14.8872 4.252V3.304H16.9392V10H14.8872V9.052C14.6872 9.364 14.4072 9.616 14.0472 9.808C13.6952 10 13.2832 10.096 12.8112 10.096C12.2672 10.096 11.7712 9.956 11.3232 9.676C10.8752 9.388 10.5192 8.984 10.2552 8.464C9.99916 7.936 9.87116 7.328 9.87116 6.64ZM14.8872 6.652C14.8872 6.14 14.7432 5.736 14.4552 5.44C14.1752 5.144 13.8312 4.996 13.4232 4.996C13.0152 4.996 12.6672 5.144 12.3792 5.44C12.0992 5.728 11.9592 6.128 11.9592 6.64C11.9592 7.152 12.0992 7.56 12.3792 7.864C12.6672 8.16 13.0152 8.308 13.4232 8.308C13.8312 8.308 14.1752 8.16 14.4552 7.864C14.7432 7.568 14.8872 7.164 14.8872 6.652ZM18.0157 6.652C18.0157 5.956 18.1557 5.348 18.4357 4.828C18.7237 4.308 19.1197 3.908 19.6237 3.628C20.1357 3.348 20.7197 3.208 21.3757 3.208C22.2157 3.208 22.9157 3.428 23.4757 3.868C24.0437 4.308 24.4157 4.928 24.5917 5.728H22.4077C22.2237 5.216 21.8677 4.96 21.3397 4.96C20.9637 4.96 20.6637 5.108 20.4397 5.404C20.2157 5.692 20.1037 6.108 20.1037 6.652C20.1037 7.196 20.2157 7.616 20.4397 7.912C20.6637 8.2 20.9637 8.344 21.3397 8.344C21.8677 8.344 22.2237 8.088 22.4077 7.576H24.5917C24.4157 8.36 24.0437 8.976 23.4757 9.424C22.9077 9.872 22.2077 10.096 21.3757 10.096C20.7197 10.096 20.1357 9.956 19.6237 9.676C19.1197 9.396 18.7237 8.996 18.4357 8.476C18.1557 7.956 18.0157 7.348 18.0157 6.652ZM25.2813 6.64C25.2813 5.952 25.4093 5.348 25.6653 4.828C25.9293 4.308 26.2853 3.908 26.7333 3.628C27.1813 3.348 27.6813 3.208 28.2333 3.208C28.7053 3.208 29.1173 3.304 29.4693 3.496C29.8293 3.688 30.1053 3.94 30.2973 4.252V3.304H32.3493V10H30.2973V9.052C30.0973 9.364 29.8173 9.616 29.4573 9.808C29.1053 10 28.6933 10.096 28.2213 10.096C27.6773 10.096 27.1813 9.956 26.7333 9.676C26.2853 9.388 25.9293 8.984 25.6653 8.464C25.4093 7.936 25.2813 7.328 25.2813 6.64ZM30.2973 6.652C30.2973 6.14 30.1533 5.736 29.8653 5.44C29.5853 5.144 29.2413 4.996 28.8333 4.996C28.4253 4.996 28.0773 5.144 27.7893 5.44C27.5093 5.728 27.3693 6.128 27.3693 6.64C27.3693 7.152 27.5093 7.56 27.7893 7.864C28.0773 8.16 28.4253 8.308 28.8333 8.308C29.2413 8.308 29.5853 8.16 29.8653 7.864C30.1533 7.568 30.2973 7.164 30.2973 6.652ZM37.5658 8.26V10H36.5218C35.7778 10 35.1978 9.82 34.7818 9.46C34.3658 9.092 34.1578 8.496 34.1578 7.672V5.008H33.3418V3.304H34.1578V1.672H36.2098V3.304H37.5538V5.008H36.2098V7.696C36.2098 7.896 36.2578 8.04 36.3538 8.128C36.4498 8.216 36.6098 8.26 36.8338 8.26H37.5658ZM39.7408 2.608C39.3808 2.608 39.0848 2.504 38.8528 2.296C38.6288 2.08 38.5168 1.816 38.5168 1.504C38.5168 1.184 38.6288 0.92 38.8528 0.711999C39.0848 0.495999 39.3808 0.387999 39.7408 0.387999C40.0928 0.387999 40.3808 0.495999 40.6048 0.711999C40.8368 0.92 40.9528 1.184 40.9528 1.504C40.9528 1.816 40.8368 2.08 40.6048 2.296C40.3808 2.504 40.0928 2.608 39.7408 2.608ZM40.7608 3.304V10H38.7088V3.304H40.7608ZM45.2959 10.096C44.6399 10.096 44.0479 9.956 43.5199 9.676C42.9999 9.396 42.5879 8.996 42.2839 8.476C41.9879 7.956 41.8399 7.348 41.8399 6.652C41.8399 5.964 41.9919 5.36 42.2959 4.84C42.5999 4.312 43.0159 3.908 43.5439 3.628C44.0719 3.348 44.6639 3.208 45.3199 3.208C45.9759 3.208 46.5679 3.348 47.0959 3.628C47.6239 3.908 48.0399 4.312 48.3439 4.84C48.6479 5.36 48.7999 5.964 48.7999 6.652C48.7999 7.34 48.6439 7.948 48.3319 8.476C48.0279 8.996 47.6079 9.396 47.0719 9.676C46.5439 9.956 45.9519 10.096 45.2959 10.096ZM45.2959 8.32C45.6879 8.32 46.0199 8.176 46.2919 7.888C46.5719 7.6 46.7119 7.188 46.7119 6.652C46.7119 6.116 46.5759 5.704 46.3039 5.416C46.0399 5.128 45.7119 4.984 45.3199 4.984C44.9199 4.984 44.5879 5.128 44.3239 5.416C44.0599 5.696 43.9279 6.108 43.9279 6.652C43.9279 7.188 44.0559 7.6 44.3119 7.888C44.5759 8.176 44.9039 8.32 45.2959 8.32ZM53.9685 3.232C54.7525 3.232 55.3765 3.488 55.8405 4C56.3125 4.504 56.5485 5.2 56.5485 6.088V10H54.5085V6.364C54.5085 5.916 54.3925 5.568 54.1605 5.32C53.9285 5.072 53.6165 4.948 53.2245 4.948C52.8325 4.948 52.5205 5.072 52.2885 5.32C52.0565 5.568 51.9405 5.916 51.9405 6.364V10H49.8885V3.304H51.9405V4.192C52.1485 3.896 52.4285 3.664 52.7805 3.496C53.1325 3.32 53.5285 3.232 53.9685 3.232Z" fill="#2A3342"/>
<path d="M0.532719 16.776C0.532719 15.944 0.712719 15.204 1.07272 14.556C1.43272 13.9 1.93272 13.392 2.57272 13.032C3.22072 12.664 3.95272 12.48 4.76872 12.48C5.76872 12.48 6.62472 12.744 7.33672 13.272C8.04872 13.8 8.52472 14.52 8.76472 15.432H6.50872C6.34072 15.08 6.10072 14.812 5.78872 14.628C5.48472 14.444 5.13672 14.352 4.74472 14.352C4.11272 14.352 3.60072 14.572 3.20872 15.012C2.81672 15.452 2.62072 16.04 2.62072 16.776C2.62072 17.512 2.81672 18.1 3.20872 18.54C3.60072 18.98 4.11272 19.2 4.74472 19.2C5.13672 19.2 5.48472 19.108 5.78872 18.924C6.10072 18.74 6.34072 18.472 6.50872 18.12H8.76472C8.52472 19.032 8.04872 19.752 7.33672 20.28C6.62472 20.8 5.76872 21.06 4.76872 21.06C3.95272 21.06 3.22072 20.88 2.57272 20.52C1.93272 20.152 1.43272 19.644 1.07272 18.996C0.712719 18.348 0.532719 17.608 0.532719 16.776ZM9.61334 17.64C9.61334 16.952 9.74134 16.348 9.99734 15.828C10.2613 15.308 10.6173 14.908 11.0653 14.628C11.5133 14.348 12.0133 14.208 12.5653 14.208C13.0373 14.208 13.4493 14.304 13.8013 14.496C14.1613 14.688 14.4373 14.94 14.6293 15.252V14.304H16.6813V21H14.6293V20.052C14.4293 20.364 14.1493 20.616 13.7893 20.808C13.4373 21 13.0253 21.096 12.5533 21.096C12.0093 21.096 11.5133 20.956 11.0653 20.676C10.6173 20.388 10.2613 19.984 9.99734 19.464C9.74134 18.936 9.61334 18.328 9.61334 17.64ZM14.6293 17.652C14.6293 17.14 14.4853 16.736 14.1973 16.44C13.9173 16.144 13.5733 15.996 13.1653 15.996C12.7573 15.996 12.4093 16.144 12.1213 16.44C11.8413 16.728 11.7013 17.128 11.7013 17.64C11.7013 18.152 11.8413 18.56 12.1213 18.864C12.4093 19.16 12.7573 19.308 13.1653 19.308C13.5733 19.308 13.9173 19.16 14.1973 18.864C14.4853 18.568 14.6293 18.164 14.6293 17.652ZM20.2179 12.12V21H18.1659V12.12H20.2179ZM28.0169 17.544C28.0169 17.736 28.0049 17.936 27.9809 18.144H23.3369C23.3689 18.56 23.5009 18.88 23.7329 19.104C23.9729 19.32 24.2649 19.428 24.6089 19.428C25.1209 19.428 25.4769 19.212 25.6769 18.78H27.8609C27.7489 19.22 27.5449 19.616 27.2489 19.968C26.9609 20.32 26.5969 20.596 26.1569 20.796C25.7169 20.996 25.2249 21.096 24.6809 21.096C24.0249 21.096 23.4409 20.956 22.9289 20.676C22.4169 20.396 22.0169 19.996 21.7289 19.476C21.4409 18.956 21.2969 18.348 21.2969 17.652C21.2969 16.956 21.4369 16.348 21.7169 15.828C22.0049 15.308 22.4049 14.908 22.9169 14.628C23.4289 14.348 24.0169 14.208 24.6809 14.208C25.3289 14.208 25.9049 14.344 26.4089 14.616C26.9129 14.888 27.3049 15.276 27.5849 15.78C27.8729 16.284 28.0169 16.872 28.0169 17.544ZM25.9169 17.004C25.9169 16.652 25.7969 16.372 25.5569 16.164C25.3169 15.956 25.0169 15.852 24.6569 15.852C24.3129 15.852 24.0209 15.952 23.7809 16.152C23.5489 16.352 23.4049 16.636 23.3489 17.004H25.9169ZM33.1795 14.232C33.9635 14.232 34.5875 14.488 35.0515 15C35.5235 15.504 35.7595 16.2 35.7595 17.088V21H33.7195V17.364C33.7195 16.916 33.6035 16.568 33.3715 16.32C33.1395 16.072 32.8275 15.948 32.4355 15.948C32.0435 15.948 31.7315 16.072 31.4995 16.32C31.2675 16.568 31.1515 16.916 31.1515 17.364V21H29.0995V14.304H31.1515V15.192C31.3595 14.896 31.6395 14.664 31.9915 14.496C32.3435 14.32 32.7395 14.232 33.1795 14.232ZM36.7774 17.64C36.7774 16.952 36.9054 16.348 37.1614 15.828C37.4254 15.308 37.7814 14.908 38.2294 14.628C38.6774 14.348 39.1774 14.208 39.7294 14.208C40.1694 14.208 40.5694 14.3 40.9294 14.484C41.2974 14.668 41.5854 14.916 41.7934 15.228V12.12H43.8454V21H41.7934V20.04C41.6014 20.36 41.3254 20.616 40.9654 20.808C40.6134 21 40.2014 21.096 39.7294 21.096C39.1774 21.096 38.6774 20.956 38.2294 20.676C37.7814 20.388 37.4254 19.984 37.1614 19.464C36.9054 18.936 36.7774 18.328 36.7774 17.64ZM41.7934 17.652C41.7934 17.14 41.6494 16.736 41.3614 16.44C41.0814 16.144 40.7374 15.996 40.3294 15.996C39.9214 15.996 39.5734 16.144 39.2854 16.44C39.0054 16.728 38.8654 17.128 38.8654 17.64C38.8654 18.152 39.0054 18.56 39.2854 18.864C39.5734 19.16 39.9214 19.308 40.3294 19.308C40.7374 19.308 41.0814 19.16 41.3614 18.864C41.6494 18.568 41.7934 18.164 41.7934 17.652ZM44.9219 17.64C44.9219 16.952 45.0499 16.348 45.3059 15.828C45.5699 15.308 45.9259 14.908 46.3739 14.628C46.8219 14.348 47.3219 14.208 47.8739 14.208C48.3459 14.208 48.7579 14.304 49.1099 14.496C49.4699 14.688 49.7459 14.94 49.9379 15.252V14.304H51.9899V21H49.9379V20.052C49.7379 20.364 49.4579 20.616 49.0979 20.808C48.7459 21 48.3339 21.096 47.8619 21.096C47.3179 21.096 46.8219 20.956 46.3739 20.676C45.9259 20.388 45.5699 19.984 45.3059 19.464C45.0499 18.936 44.9219 18.328 44.9219 17.64ZM49.9379 17.652C49.9379 17.14 49.7939 16.736 49.5059 16.44C49.2259 16.144 48.8819 15.996 48.4739 15.996C48.0659 15.996 47.7179 16.144 47.4299 16.44C47.1499 16.728 47.0099 17.128 47.0099 17.64C47.0099 18.152 47.1499 18.56 47.4299 18.864C47.7179 19.16 48.0659 19.308 48.4739 19.308C48.8819 19.308 49.2259 19.16 49.5059 18.864C49.7939 18.568 49.9379 18.164 49.9379 17.652ZM55.5265 15.42C55.7665 15.052 56.0665 14.764 56.4265 14.556C56.7865 14.34 57.1865 14.232 57.6265 14.232V16.404H57.0625C56.5505 16.404 56.1665 16.516 55.9105 16.74C55.6545 16.956 55.5265 17.34 55.5265 17.892V21H53.4745V14.304H55.5265V15.42Z" fill="#E8604C"/>
</svg>
