<svg width="19" height="19" viewBox="0 0 19 19" fill="none" xmlns="http://www.w3.org/2000/svg">
<path d="M8.09121 8.63555C8.8463 8.63555 9.58443 8.41164 10.2123 7.99214C10.8401 7.57264 11.3294 6.97638 11.6184 6.27878C11.9073 5.58117 11.9829 4.81354 11.8356 4.07297C11.6883 3.33239 11.3247 2.65213 10.7908 2.1182C10.2569 1.58428 9.5766 1.22067 8.83602 1.07336C8.09545 0.92605 7.32782 1.00165 6.63021 1.29061C5.93261 1.57957 5.33635 2.0689 4.91685 2.69673C4.49735 3.32456 4.27344 4.06269 4.27344 4.81778C4.27344 5.83031 4.67567 6.80138 5.39164 7.51735C6.10761 8.23332 7.07868 8.63555 8.09121 8.63555ZM8.09121 2.09079C8.63056 2.09079 9.15779 2.25073 9.60624 2.55037C10.0547 2.85002 10.4042 3.27592 10.6106 3.77421C10.817 4.2725 10.871 4.8208 10.7658 5.34978C10.6606 5.87877 10.4009 6.36467 10.0195 6.74604C9.6381 7.12742 9.1522 7.38714 8.62322 7.49236C8.09424 7.59758 7.54593 7.54358 7.04764 7.33718C6.54935 7.13078 6.12345 6.78126 5.82381 6.33281C5.52417 5.88436 5.36423 5.35712 5.36423 4.81778C5.36423 4.09454 5.65154 3.40092 6.16295 2.88951C6.67435 2.3781 7.36797 2.09079 8.09121 2.09079Z" fill="#2A3342" stroke="#2A3342" stroke-width="0.2"/>
<path d="M14.8912 12.6592C14.0166 11.7348 12.9626 10.9984 11.7937 10.4952C10.6248 9.99197 9.36552 9.73242 8.09288 9.73242C6.82025 9.73242 5.56098 9.99197 4.39207 10.4952C3.22316 10.9984 2.16916 11.7348 1.29452 12.6592C1.10489 12.8618 0.999571 13.129 1 13.4064V16.2752C1 16.5645 1.11492 16.842 1.31949 17.0465C1.52405 17.2511 1.8015 17.366 2.09079 17.366H14.0895C14.3788 17.366 14.6563 17.2511 14.8608 17.0465C15.0654 16.842 15.1803 16.5645 15.1803 16.2752V13.4064C15.1822 13.1297 15.0789 12.8626 14.8912 12.6592ZM14.0895 16.2752H2.09079V13.401C2.86375 12.5871 3.79422 11.9389 4.82561 11.4961C5.85699 11.0532 6.9677 10.8248 8.09016 10.8248C9.21261 10.8248 10.3233 11.0532 11.3547 11.4961C12.3861 11.9389 13.3166 12.5871 14.0895 13.401V16.2752Z" fill="#2A3342" stroke="#2A3342" stroke-width="0.2"/>
<path d="M17.6293 15.3162C17.6293 17.0456 16.2273 18.4476 14.4978 18.4476C12.7684 18.4476 11.3664 17.0456 11.3664 15.3162C11.3664 13.5868 12.7684 12.1848 14.4978 12.1848C16.2273 12.1848 17.6293 13.5868 17.6293 15.3162Z" fill="white" stroke="#2A3342" stroke-width="1.1"/>
<path d="M14.152 14.136C14.152 14.0187 14.1947 13.9227 14.28 13.848C14.3653 13.7707 14.4773 13.732 14.616 13.732C14.7547 13.732 14.8653 13.7707 14.948 13.848C15.0307 13.9227 15.072 14.0187 15.072 14.136C15.072 14.248 15.0293 14.3413 14.944 14.416C14.8613 14.4907 14.752 14.528 14.616 14.528C14.4773 14.528 14.3653 14.4907 14.28 14.416C14.1947 14.3413 14.152 14.248 14.152 14.136ZM15.004 14.756V17H14.216V14.756H15.004Z" fill="#2A3342"/>
</svg>
