<svg width="19" height="16" viewBox="0 0 19 16" fill="none" xmlns="http://www.w3.org/2000/svg">
<path d="M18.2096 14.5575H16.8628V7.48656C16.8625 7.34118 16.8317 7.19748 16.7724 7.06473C16.7131 6.93199 16.6266 6.81314 16.5186 6.71587L10.5326 1.26866C10.3392 1.09565 10.0888 1 9.82928 1C9.56977 1 9.31936 1.09565 9.12593 1.26866L3.13998 6.71587C3.03193 6.81314 2.94547 6.93199 2.88619 7.06473C2.8269 7.19748 2.79611 7.34118 2.79579 7.48656V14.5575H1.44895C1.32988 14.5575 1.21569 14.6048 1.13149 14.689C1.0473 14.7732 1 14.8873 1 15.0064C1 15.1255 1.0473 15.2397 1.13149 15.3239C1.21569 15.4081 1.32988 15.4554 1.44895 15.4554H18.2096C18.3287 15.4554 18.4429 15.4081 18.5271 15.3239C18.6113 15.2397 18.6586 15.1255 18.6586 15.0064C18.6586 14.8873 18.6113 14.7732 18.5271 14.689C18.4429 14.6048 18.3287 14.5575 18.2096 14.5575ZM3.69368 7.48656C3.69305 7.46688 3.69674 7.4473 3.7045 7.4292C3.71226 7.4111 3.72389 7.39493 3.73857 7.38181L9.72452 1.93459C9.75211 1.90935 9.78815 1.89536 9.82554 1.89536C9.86293 1.89536 9.89896 1.90935 9.92655 1.93459L15.9125 7.38181C15.9295 7.39332 15.9432 7.409 15.9524 7.42734C15.9615 7.44569 15.9659 7.46608 15.9649 7.48656V14.5575H12.074V10.8162C12.074 10.5384 11.9636 10.272 11.7672 10.0755C11.5707 9.87907 11.3043 9.76871 11.0265 9.76871H8.63209C8.35426 9.76871 8.08782 9.87907 7.89137 10.0755C7.69491 10.272 7.58455 10.5384 7.58455 10.8162V14.5575H3.69368V7.48656ZM11.1761 14.5575H8.48244V10.8162C8.48244 10.7766 8.49821 10.7385 8.52627 10.7104C8.55434 10.6824 8.5924 10.6666 8.63209 10.6666H11.0265C11.0662 10.6666 11.1042 10.6824 11.1323 10.7104C11.1604 10.7385 11.1761 10.7766 11.1761 10.8162V14.5575Z" fill="#2A3342" stroke="#2A3342" stroke-width="0.283363"/>
</svg>
