<svg width="15" height="17" viewBox="0 0 15 17" fill="none" xmlns="http://www.w3.org/2000/svg">
<path d="M14.0638 3.42487L10.8251 0.186232C10.7017 0.0659344 10.536 -0.000961119 10.3636 1.04366e-05H3.88636C3.54279 1.04366e-05 3.21328 0.136495 2.97034 0.37944C2.72739 0.622385 2.59091 0.951888 2.59091 1.29546V2.59092H1.29545C0.951878 2.59092 0.622374 2.7274 0.37943 2.97035C0.136485 3.21329 0 3.5428 0 3.88637V15.5455C0 15.889 0.136485 16.2185 0.37943 16.4615C0.622374 16.7044 0.951878 16.8409 1.29545 16.8409H10.3636C10.7072 16.8409 11.0367 16.7044 11.2797 16.4615C11.5226 16.2185 11.6591 15.889 11.6591 15.5455V14.25H12.9545C13.2981 14.25 13.6276 14.1135 13.8706 13.8706C14.1135 13.6276 14.25 13.2981 14.25 12.9545V3.88637C14.251 3.71404 14.1841 3.54826 14.0638 3.42487ZM10.3636 15.5455H1.29545V3.88637H7.50553L10.3636 6.74447V15.5455ZM12.9545 12.9545H11.6591V6.47728C11.6601 6.30495 11.5932 6.13917 11.4729 6.01577L8.23423 2.77714C8.11083 2.65684 7.94505 2.58995 7.77272 2.59092H3.88636V1.29546H10.0964L12.9545 4.15356V12.9545ZM8.42045 10.3636C8.42045 10.5354 8.35221 10.7002 8.23073 10.8217C8.10926 10.9431 7.94451 11.0114 7.77272 11.0114H3.88636C3.71457 11.0114 3.54982 10.9431 3.42835 10.8217C3.30688 10.7002 3.23863 10.5354 3.23863 10.3636C3.23863 10.1919 3.30688 10.0271 3.42835 9.90563C3.54982 9.78415 3.71457 9.71591 3.88636 9.71591H7.77272C7.94451 9.71591 8.10926 9.78415 8.23073 9.90563C8.35221 10.0271 8.42045 10.1919 8.42045 10.3636ZM8.42045 12.9545C8.42045 13.1263 8.35221 13.2911 8.23073 13.4126C8.10926 13.534 7.94451 13.6023 7.77272 13.6023H3.88636C3.71457 13.6023 3.54982 13.534 3.42835 13.4126C3.30688 13.2911 3.23863 13.1263 3.23863 12.9545C3.23863 12.7828 3.30688 12.618 3.42835 12.4965C3.54982 12.3751 3.71457 12.3068 3.88636 12.3068H7.77272C7.94451 12.3068 8.10926 12.3751 8.23073 12.4965C8.35221 12.618 8.42045 12.7828 8.42045 12.9545Z" fill="#2A3342"/>
</svg>
