<svg width="17" height="18" viewBox="0 0 17 18" fill="none" xmlns="http://www.w3.org/2000/svg">
<path d="M11.8219 4.87156V3.88073C11.8219 3.78991 11.7448 3.7156 11.6506 3.7156H3.42665C3.33242 3.7156 3.25532 3.78991 3.25532 3.88073V4.87156C3.25532 4.96239 3.33242 5.0367 3.42665 5.0367H11.6506C11.7448 5.0367 11.8219 4.96239 11.8219 4.87156ZM3.42665 6.68807C3.33242 6.68807 3.25532 6.76239 3.25532 6.85321V7.84404C3.25532 7.93486 3.33242 8.00917 3.42665 8.00917H7.3673C7.46153 8.00917 7.53863 7.93486 7.53863 7.84404V6.85321C7.53863 6.76239 7.46153 6.68807 7.3673 6.68807H3.42665ZM11.4793 9.08257C8.92429 9.08257 6.8533 11.0787 6.8533 13.5413C6.8533 16.0039 8.92429 18 11.4793 18C14.0343 18 16.1053 16.0039 16.1053 13.5413C16.1053 11.0787 14.0343 9.08257 11.4793 9.08257ZM13.7816 15.7603C13.1669 16.3528 12.3488 16.6789 11.4793 16.6789C10.6098 16.6789 9.79166 16.3528 9.177 15.7603C8.56235 15.1679 8.22396 14.3794 8.22396 13.5413C8.22396 12.7032 8.56235 11.9147 9.177 11.3222C9.79166 10.7298 10.6098 10.4037 11.4793 10.4037C12.3488 10.4037 13.1669 10.7298 13.7816 11.3222C14.3962 11.9147 14.7346 12.7032 14.7346 13.5413C14.7346 14.3794 14.3962 15.1679 13.7816 15.7603ZM6.51064 16.0183H1.54199V1.48624H13.5353V8.58716C13.5353 8.67798 13.6124 8.75229 13.7066 8.75229H14.9059C15.0002 8.75229 15.0773 8.67798 15.0773 8.58716V0.66055C15.0773 0.295183 14.771 0 14.3919 0H0.68533C0.306257 0 0 0.295183 0 0.66055V16.844C0 17.2094 0.306257 17.5046 0.68533 17.5046H6.51064C6.60487 17.5046 6.68197 17.4303 6.68197 17.3395V16.1835C6.68197 16.0927 6.60487 16.0183 6.51064 16.0183Z" fill="#2A3342"/>
<path d="M11.4418 13.0323C11.0193 12.9081 10.8835 12.7797 10.8835 12.5797C10.8835 12.3502 11.0714 12.1902 11.386 12.1902C11.7173 12.1902 11.8401 12.3691 11.8513 12.6323H12.2626C12.2496 12.2702 12.0542 11.9376 11.6652 11.8302V11.3691H11.1068V11.8239C10.7457 11.9123 10.4554 12.1776 10.4554 12.5839C10.4554 13.0702 10.8109 13.3123 11.3302 13.4534C11.7955 13.5797 11.8885 13.7649 11.8885 13.9607C11.8885 14.106 11.7973 14.3376 11.386 14.3376C11.0026 14.3376 10.8518 14.1439 10.8313 13.8955H10.4219C10.4442 14.3565 10.7495 14.6155 11.1068 14.7018V15.1586H11.6652V14.706C12.0281 14.6281 12.3166 14.3902 12.3166 13.9586C12.3166 13.3607 11.8643 13.1565 11.4418 13.0323Z" fill="#2A3342"/>
</svg>
