<svg width="16" height="16" viewBox="0 0 16 16" fill="none" xmlns="http://www.w3.org/2000/svg">
<path d="M0 13.3333H6.66667V14.6667H0V13.3333ZM0 9.33333H6.66667V10.6667H0V9.33333ZM14.6667 6.66667H1.33333C0.979711 6.66667 0.640573 6.52619 0.390524 6.27614C0.140476 6.02609 0 5.68696 0 5.33333V1.33333C0 0.979711 0.140476 0.640573 0.390524 0.390524C0.640573 0.140476 0.979711 0 1.33333 0H14.6667C15.0203 0 15.3594 0.140476 15.6095 0.390524C15.8595 0.640573 16 0.979711 16 1.33333V5.33333C16 5.68696 15.8595 6.02609 15.6095 6.27614C15.3594 6.52619 15.0203 6.66667 14.6667 6.66667ZM1.33333 1.33333V5.33333H14.6667V1.33333H1.33333ZM14.6667 16H10.6667C10.313 16 9.97391 15.8595 9.72386 15.6095C9.47381 15.3594 9.33333 15.0203 9.33333 14.6667V10.6667C9.33333 10.313 9.47381 9.97391 9.72386 9.72386C9.97391 9.47381 10.313 9.33333 10.6667 9.33333H14.6667C15.0203 9.33333 15.3594 9.47381 15.6095 9.72386C15.8595 9.97391 16 10.313 16 10.6667V14.6667C16 15.0203 15.8595 15.3594 15.6095 15.6095C15.3594 15.8595 15.0203 16 14.6667 16ZM10.6667 10.6667V14.6667H14.6667V10.6667H10.6667Z" fill="#2A3342"/>
</svg>
