<svg width="19" height="16" viewBox="0 0 19 16" fill="none" xmlns="http://www.w3.org/2000/svg">
<path d="M4.18555 2.32422C4.18555 1.49579 4.85712 0.824219 5.68555 0.824219H16.6496C17.4781 0.824219 18.1496 1.49579 18.1496 2.32422V11.5412C18.1496 11.9616 17.9732 12.3627 17.6634 12.6468L16.5293 13.6867L15.1104 14.9548C14.8354 15.2005 14.4796 15.3363 14.1109 15.3363H5.68554C4.85712 15.3363 4.18555 14.6647 4.18555 13.8363V2.32422Z" stroke="#2A3342"/>
<path d="M7.81836 7.50586H17.4827" stroke="#2A3342"/>
<path d="M7.81836 5.83398H17.4827" stroke="#2A3342"/>
<path d="M7.81836 9.83984H17.4827" stroke="#2A3342"/>
<path d="M4.80387 3.96141C5.05012 3.16346 5.88188 2.72622 6.66166 2.9848L10.83 4.36711C11.6098 4.6257 12.0423 5.48219 11.796 6.28015L10.1496 11.6154L10.1113 11.7393C9.86506 12.5373 9.0333 12.9745 8.25352 12.7159L8.13451 12.6765L4.08518 11.3336C3.30541 11.075 2.8729 10.2185 3.11915 9.42059L4.80387 3.96141Z" fill="white" stroke="#2A3342"/>
<line x1="4.72064" y1="6.83046" x2="10.3568" y2="8.69991" stroke="#2A3342" stroke-width="0.75"/>
<line y1="-0.375" x2="6.35202" y2="-0.375" transform="matrix(0.941274 0.312145 -0.297252 0.963217 3.83008 8.79102)" stroke="#2A3342" stroke-width="0.75"/>
<path d="M14.0664 15.0044V11.6719H17.8155" stroke="#2A3342"/>
<circle cx="11" cy="5" r="1" fill="white"/>
<g clip-path="url(#clip0_3199_1457)">
<path d="M11.7168 4.12946L11.401 4.61696L11.4346 4.77641L11.5936 4.74236L11.9092 4.25516C11.8414 4.21925 11.7769 4.17717 11.7168 4.12946ZM13.0536 3.95921C13.0557 3.95486 13.057 3.95006 13.059 3.94541C13.0669 3.92786 13.074 3.91031 13.0797 3.89186C13.0806 3.88856 13.081 3.88526 13.0821 3.88226C13.0879 3.8621 13.0928 3.84168 13.0968 3.82106V3.81791C13.126 3.64256 13.075 3.44696 12.9583 3.27026L13.1248 3.01316C13.3167 3.03761 13.4826 2.98931 13.5624 2.86586C13.7008 2.65241 13.5324 2.29706 13.1866 2.07191C12.8406 1.84661 12.4482 1.83716 12.31 2.05031C12.2299 2.17391 12.2533 2.34536 12.354 2.51126L12.1872 2.76836C11.9788 2.73341 11.7798 2.76596 11.6317 2.86436C11.6308 2.86466 11.6298 2.86496 11.6292 2.86556C11.6119 2.87732 11.5953 2.89004 11.5794 2.90366C11.5768 2.90576 11.5738 2.90771 11.5717 2.90981C11.5573 2.92253 11.5438 2.93616 11.5311 2.95061C11.5281 2.95421 11.5239 2.95736 11.521 2.96111C11.5051 2.9792 11.4905 2.99851 11.4775 3.01886C11.2699 3.33881 11.4471 3.82301 11.8725 4.10021C12.2982 4.37741 12.8115 4.34231 13.0186 4.02236C13.0317 4.00211 13.0437 3.98096 13.0536 3.95921ZM12.9313 2.46551C12.7983 2.37896 12.7333 2.24246 12.7866 2.16011C12.8397 2.07806 12.9907 2.08181 13.1235 2.16836C13.2568 2.25491 13.3212 2.39171 13.2682 2.47376C13.2153 2.55581 13.0645 2.55206 12.9313 2.46551Z" fill="#2A3342"/>
</g>
<defs>
<clipPath id="clip0_3199_1457">
<rect width="3" height="3" fill="white" transform="translate(11 1.83594)"/>
</clipPath>
</defs>
</svg>
