<svg width="20" height="20" viewBox="0 0 20 20" fill="none" xmlns="http://www.w3.org/2000/svg">
<path d="M6.14286 11.2857C6.48385 11.2857 6.81088 11.1503 7.05199 10.9091C7.29311 10.668 7.42857 10.341 7.42857 10C7.42857 9.65901 7.29311 9.33198 7.05199 9.09086C6.81088 8.84975 6.48385 8.71429 6.14286 8.71429C5.80186 8.71429 5.47484 8.84975 5.23372 9.09086C4.9926 9.33198 4.85714 9.65901 4.85714 10C4.85714 10.341 4.9926 10.668 5.23372 10.9091C5.47484 11.1503 5.80186 11.2857 6.14286 11.2857ZM7.42857 13.8571C7.42857 14.1981 7.29311 14.5252 7.05199 14.7663C6.81088 15.0074 6.48385 15.1429 6.14286 15.1429C5.80186 15.1429 5.47484 15.0074 5.23372 14.7663C4.9926 14.5252 4.85714 14.1981 4.85714 13.8571C4.85714 13.5161 4.9926 13.1891 5.23372 12.948C5.47484 12.7069 5.80186 12.5714 6.14286 12.5714C6.48385 12.5714 6.81088 12.7069 7.05199 12.948C7.29311 13.1891 7.42857 13.5161 7.42857 13.8571ZM10 11.2857C10.341 11.2857 10.668 11.1503 10.9091 10.9091C11.1503 10.668 11.2857 10.341 11.2857 10C11.2857 9.65901 11.1503 9.33198 10.9091 9.09086C10.668 8.84975 10.341 8.71429 10 8.71429C9.65901 8.71429 9.33198 8.84975 9.09086 9.09086C8.84975 9.33198 8.71429 9.65901 8.71429 10C8.71429 10.341 8.84975 10.668 9.09086 10.9091C9.33198 11.1503 9.65901 11.2857 10 11.2857ZM11.2857 13.8571C11.2857 14.1981 11.1503 14.5252 10.9091 14.7663C10.668 15.0074 10.341 15.1429 10 15.1429C9.65901 15.1429 9.33198 15.0074 9.09086 14.7663C8.84975 14.5252 8.71429 14.1981 8.71429 13.8571C8.71429 13.5161 8.84975 13.1891 9.09086 12.948C9.33198 12.7069 9.65901 12.5714 10 12.5714C10.341 12.5714 10.668 12.7069 10.9091 12.948C11.1503 13.1891 11.2857 13.5161 11.2857 13.8571ZM13.8571 11.2857C14.1981 11.2857 14.5252 11.1503 14.7663 10.9091C15.0074 10.668 15.1429 10.341 15.1429 10C15.1429 9.65901 15.0074 9.33198 14.7663 9.09086C14.5252 8.84975 14.1981 8.71429 13.8571 8.71429C13.5161 8.71429 13.1891 8.84975 12.948 9.09086C12.7069 9.33198 12.5714 9.65901 12.5714 10C12.5714 10.341 12.7069 10.668 12.948 10.9091C13.1891 11.1503 13.5161 11.2857 13.8571 11.2857ZM19 4.21429C19 3.3618 18.6614 2.54424 18.0586 1.94144C17.4558 1.33865 16.6382 1 15.7857 1H4.21429C3.3618 1 2.54424 1.33865 1.94144 1.94144C1.33865 2.54424 1 3.3618 1 4.21429V15.7857C1 16.6382 1.33865 17.4558 1.94144 18.0586C2.54424 18.6614 3.3618 19 4.21429 19H15.7857C16.6382 19 17.4558 18.6614 18.0586 18.0586C18.6614 17.4558 19 16.6382 19 15.7857V4.21429ZM2.28571 6.14286H17.7143V15.7857C17.7143 16.2972 17.5111 16.7877 17.1494 17.1494C16.7877 17.5111 16.2972 17.7143 15.7857 17.7143H4.21429C3.7028 17.7143 3.21226 17.5111 2.85058 17.1494C2.4889 16.7877 2.28571 16.2972 2.28571 15.7857V6.14286ZM4.21429 2.28571H15.7857C16.2972 2.28571 16.7877 2.4889 17.1494 2.85058C17.5111 3.21226 17.7143 3.7028 17.7143 4.21429V4.85714H2.28571V4.21429C2.28571 3.7028 2.4889 3.21226 2.85058 2.85058C3.21226 2.4889 3.7028 2.28571 4.21429 2.28571Z" fill="#2A3342" stroke="#2A3342" stroke-width="0.3"/>
</svg>
