<svg width="18" height="16" viewBox="0 0 18 16" fill="none" xmlns="http://www.w3.org/2000/svg">
<path d="M16.6862 3.01887H12.4774C12.4221 3.01887 12.3774 2.9741 12.3774 2.91887V0.0999999C12.3774 0.0447715 12.3326 0 12.2774 0H11.2698C11.2146 0 11.1698 0.0447715 11.1698 0.1V2.91887C11.1698 2.9741 11.125 3.01887 11.0698 3.01887H6.43962C6.38439 3.01887 6.33962 3.06364 6.33962 3.11887V4.12642C6.33962 4.18164 6.38439 4.22642 6.43962 4.22642H6.92785C6.97816 4.22642 7.02064 4.26379 7.02704 4.3137L7.23362 5.92502C7.24129 5.98481 7.19471 6.03774 7.13444 6.03774H3.01887C2.21849 6.03864 1.45116 6.357 0.88521 6.92295C0.319259 7.4889 0.000908876 8.25623 0 9.0566V9.56038C0 9.61561 0.0447715 9.66038 0.1 9.66038H10.466C10.5213 9.66038 10.566 9.61561 10.566 9.56038V9.0566C10.5665 8.60106 10.4633 8.15137 10.2642 7.74166C10.0868 7.37658 9.83794 7.05088 9.53225 6.78389C9.24242 6.53076 8.90715 6.33531 8.54448 6.20782C8.5081 6.19503 8.48159 6.16315 8.47669 6.1249L8.24777 4.33913C8.24011 4.27934 8.28668 4.22642 8.34696 4.22642H15.2002C15.2605 4.22642 15.3071 4.27935 15.2994 4.33913L13.9703 14.7052C13.9639 14.7551 13.9214 14.7925 13.8711 14.7925H0.100001C0.0447723 14.7925 0 14.8372 0 14.8925V15.9C0 15.9552 0.0447715 16 0.1 16H14.9339C14.9842 16 15.0267 15.9626 15.0331 15.9127L16.5201 4.3137C16.5265 4.2638 16.569 4.22642 16.6193 4.22642H17.4094C17.4647 4.22642 17.5094 4.18164 17.5094 4.12642V3.11887C17.5094 3.06364 17.4647 3.01887 17.4094 3.01887H16.6862ZM9.2025 8.32136C9.2306 8.38445 9.18248 8.45283 9.11341 8.45283H1.45262C1.38355 8.45283 1.33543 8.38445 1.36354 8.32136C1.49596 8.02411 1.70631 7.76708 1.97344 7.57821C2.27921 7.36201 2.64438 7.24572 3.01887 7.24528H7.54717C7.92165 7.24572 8.28683 7.36201 8.5926 7.57821C8.85972 7.76708 9.07008 8.02411 9.2025 8.32136Z" fill="#2A3342"/>
</svg>
