<svg width="20" height="21" viewBox="0 0 20 21" fill="none" xmlns="http://www.w3.org/2000/svg">
<path d="M8.99961 0.400391C7.72657 0.400391 6.50567 0.906104 5.6055 1.80628C4.70532 2.70645 4.19961 3.92735 4.19961 5.20039C4.19961 6.47343 4.70532 7.69433 5.6055 8.5945C6.50567 9.49468 7.72657 10.0004 8.99961 10.0004C10.2726 10.0004 11.4935 9.49468 12.3937 8.5945C13.2939 7.69433 13.7996 6.47343 13.7996 5.20039C13.7996 3.92735 13.2939 2.70645 12.3937 1.80628C11.4935 0.906104 10.2726 0.400391 8.99961 0.400391ZM5.39961 5.20039C5.39961 4.24561 5.77889 3.32994 6.45403 2.65481C7.12916 1.97968 8.04483 1.60039 8.99961 1.60039C9.95439 1.60039 10.8701 1.97968 11.5452 2.65481C12.2203 3.32994 12.5996 4.24561 12.5996 5.20039C12.5996 6.15517 12.2203 7.07084 11.5452 7.74598C10.8701 8.42111 9.95439 8.80039 8.99961 8.80039C8.04483 8.80039 7.12916 8.42111 6.45403 7.74598C5.77889 7.07084 5.39961 6.15517 5.39961 5.20039ZM3.01041 11.2004C2.69437 11.1991 2.3812 11.2603 2.08884 11.3803C1.79648 11.5003 1.53069 11.6769 1.30672 11.8999C1.08275 12.1228 0.904991 12.3878 0.783649 12.6796C0.662307 12.9715 0.599765 13.2844 0.599609 13.6004C0.599609 15.6296 1.59921 17.1596 3.16161 18.1568C4.45521 18.9812 6.12801 19.4408 7.94961 19.5656L8.30961 18.3836C6.51561 18.2972 4.94721 17.8724 3.80721 17.144C2.54721 16.34 1.79961 15.1724 1.79961 13.6004C1.79961 12.9368 2.33721 12.4004 3.01041 12.4004H8.51841C8.73801 11.9708 9.00321 11.5688 9.30801 11.2004H3.01041ZM19.7996 15.4004C19.7998 16.3403 19.5546 17.264 19.0884 18.0801C18.6221 18.8962 17.9509 19.5765 17.1411 20.0537C16.3314 20.5309 15.4111 20.7885 14.4712 20.8009C13.5314 20.8134 12.6046 20.5803 11.7824 20.1248L9.63441 20.7776C9.54942 20.8029 9.45917 20.8048 9.3732 20.783C9.28723 20.7613 9.20874 20.7167 9.14603 20.654C9.08332 20.5913 9.03873 20.5128 9.01697 20.4268C8.99521 20.3408 8.99709 20.2506 9.02241 20.1656L9.67521 18.0188C9.2761 17.2978 9.04729 16.4951 9.0063 15.6721C8.96531 14.849 9.11322 14.0275 9.43873 13.2705C9.76423 12.5134 10.2587 11.8409 10.8842 11.3044C11.5097 10.768 12.2497 10.3818 13.0475 10.1755C13.8453 9.96912 14.6798 9.94812 15.487 10.1141C16.2942 10.28 17.0526 10.6285 17.7044 11.1328C18.3561 11.6371 18.8837 12.2839 19.2469 13.0236C19.6101 13.7633 19.7991 14.5763 19.7996 15.4004ZM11.9996 13.6004C11.8405 13.6004 11.6879 13.6636 11.5753 13.7761C11.4628 13.8886 11.3996 14.0413 11.3996 14.2004C11.3996 14.3595 11.4628 14.5121 11.5753 14.6247C11.6879 14.7372 11.8405 14.8004 11.9996 14.8004H16.7996C16.9587 14.8004 17.1114 14.7372 17.2239 14.6247C17.3364 14.5121 17.3996 14.3595 17.3996 14.2004C17.3996 14.0413 17.3364 13.8886 17.2239 13.7761C17.1114 13.6636 16.9587 13.6004 16.7996 13.6004H11.9996ZM11.3996 16.6004C11.3996 16.7595 11.4628 16.9121 11.5753 17.0247C11.6879 17.1372 11.8405 17.2004 11.9996 17.2004H14.3996C14.5587 17.2004 14.7114 17.1372 14.8239 17.0247C14.9364 16.9121 14.9996 16.7595 14.9996 16.6004C14.9996 16.4413 14.9364 16.2886 14.8239 16.1761C14.7114 16.0636 14.5587 16.0004 14.3996 16.0004H11.9996C11.8405 16.0004 11.6879 16.0636 11.5753 16.1761C11.4628 16.2886 11.3996 16.4413 11.3996 16.6004Z" fill="#2A3342"/>
</svg>
