<svg width="16" height="21" viewBox="0 0 16 21" fill="none" xmlns="http://www.w3.org/2000/svg">
<path d="M7.92038 13.9605L7.99839 14.0631L8.0784 13.9621C9.03111 12.7587 10.0346 11.3038 10.8005 9.885C11.5642 8.47026 12.1 7.07649 12.1 6C12.1 3.74477 10.2552 1.9 8 1.9C5.74477 1.9 3.9 3.74477 3.9 6C3.9 7.07681 4.43606 8.44578 5.19968 9.84783C5.96547 11.2539 6.96869 12.7083 7.92038 13.9605ZM7.99946 16.8507C7.95606 16.8025 7.89451 16.7337 7.81727 16.6459C7.65379 16.46 7.42008 16.1893 7.13954 15.8503C6.57837 15.1722 5.83032 14.2216 5.08247 13.1309C4.33443 12.04 3.58785 10.811 3.0286 9.57594C2.46877 8.33966 2.1 7.10466 2.1 6C2.1 2.75523 4.75523 0.1 8 0.1C11.2448 0.1 13.9 2.75523 13.9 6C13.9 7.07939 13.5314 8.30174 12.9715 9.53362C12.4122 10.7641 11.6655 11.9964 10.9174 13.0937C10.1695 14.1906 9.42133 15.1507 8.8601 15.8367C8.57954 16.1796 8.34579 16.4538 8.18228 16.6423C8.10468 16.7317 8.0429 16.8018 7.99946 16.8507ZM6.1 6C6.1 4.95523 6.95523 4.1 8 4.1C9.04477 4.1 9.9 4.95523 9.9 6C9.9 7.04477 9.04477 7.9 8 7.9C6.95523 7.9 6.1 7.04477 6.1 6ZM15.9 17C15.9 18.0415 15.045 19.0157 13.6053 19.7356C12.1718 20.4523 10.1877 20.9 8 20.9C5.81229 20.9 3.82821 20.4523 2.39472 19.7356C0.954976 19.0157 0.1 18.0415 0.1 17C0.1 16.3835 0.383836 15.8076 0.908211 15.2832C1.41924 14.7722 2.15481 14.3146 3.06281 13.9245L3.55439 14.6619C3.09254 14.9008 2.69409 15.1645 2.40429 15.4543C2.09339 15.7652 1.9 16.1141 1.9 16.5C1.9 16.8846 2.08594 17.24 2.40328 17.5525C2.72016 17.8645 3.17327 18.1394 3.72426 18.3674C4.82668 18.8236 6.34028 19.1 8 19.1C9.65972 19.1 11.1733 18.8236 12.2757 18.3674C12.8267 18.1394 13.2798 17.8645 13.5967 17.5525C13.9141 17.24 14.1 16.8846 14.1 16.5C14.1 16.1137 13.9062 15.7643 13.5818 15.4529C13.2788 15.162 12.8556 14.8977 12.348 14.6583L12.838 13.9232C13.7956 14.3139 14.5564 14.7723 15.0801 15.284C15.6164 15.8081 15.9 16.3838 15.9 17Z" fill="#2A3342" stroke="white" stroke-width="0.2"/>
</svg>
