<svg width="24" height="24" viewBox="0 0 24 24" fill="none" xmlns="http://www.w3.org/2000/svg">
<path d="M11.9204 15.9605L11.9984 16.0631L12.0784 15.9621C13.0311 14.7587 14.0346 13.3038 14.8005 11.885C15.5642 10.4703 16.1 9.07649 16.1 8C16.1 5.74477 14.2552 3.9 12 3.9C9.74477 3.9 7.9 5.74477 7.9 8C7.9 9.07681 8.43606 10.4458 9.19968 11.8478C9.96547 13.2539 10.9687 14.7083 11.9204 15.9605ZM11.9995 18.8507C11.9561 18.8025 11.8945 18.7337 11.8173 18.6459C11.6538 18.46 11.4201 18.1893 11.1395 17.8503C10.5784 17.1722 9.83032 16.2216 9.08247 15.1309C8.33443 14.04 7.58785 12.811 7.0286 11.5759C6.46877 10.3397 6.1 9.10466 6.1 8C6.1 4.75523 8.75523 2.1 12 2.1C15.2448 2.1 17.9 4.75523 17.9 8C17.9 9.07939 17.5314 10.3017 16.9715 11.5336C16.4122 12.7641 15.6655 13.9964 14.9174 15.0937C14.1695 16.1906 13.4213 17.1507 12.8601 17.8367C12.5795 18.1796 12.3458 18.4538 12.1823 18.6423C12.1047 18.7317 12.0429 18.8018 11.9995 18.8507ZM10.1 8C10.1 6.95523 10.9552 6.1 12 6.1C13.0448 6.1 13.9 6.95523 13.9 8C13.9 9.04477 13.0448 9.9 12 9.9C10.9552 9.9 10.1 9.04477 10.1 8ZM19.9 19C19.9 20.0415 19.045 21.0157 17.6053 21.7356C16.1718 22.4523 14.1877 22.9 12 22.9C9.81229 22.9 7.82821 22.4523 6.39472 21.7356C4.95498 21.0157 4.1 20.0415 4.1 19C4.1 18.3835 4.38384 17.8076 4.90821 17.2832C5.41924 16.7722 6.15481 16.3146 7.06281 15.9245L7.55439 16.6619C7.09254 16.9008 6.69409 17.1645 6.40429 17.4543C6.09339 17.7652 5.9 18.1141 5.9 18.5C5.9 18.8846 6.08594 19.24 6.40328 19.5525C6.72016 19.8645 7.17327 20.1394 7.72426 20.3674C8.82668 20.8236 10.3403 21.1 12 21.1C13.6597 21.1 15.1733 20.8236 16.2757 20.3674C16.8267 20.1394 17.2798 19.8645 17.5967 19.5525C17.9141 19.24 18.1 18.8846 18.1 18.5C18.1 18.1137 17.9062 17.7643 17.5818 17.4529C17.2788 17.162 16.8556 16.8977 16.348 16.6583L16.838 15.9232C17.7956 16.3139 18.5564 16.7723 19.0801 17.284C19.6164 17.8081 19.9 18.3838 19.9 19Z" fill="#2A3342" stroke="white" stroke-width="0.2"/>
</svg>
