<svg width="18" height="21" viewBox="0 0 18 21" fill="none" xmlns="http://www.w3.org/2000/svg">
<path d="M11.9072 16.3462V17.0769C11.9072 17.8522 11.6009 18.5957 11.0558 19.1438C10.5107 19.692 9.77143 20 9.00054 20C8.22966 20 7.49035 19.692 6.94525 19.1438C6.40015 18.5957 6.09392 17.8522 6.09392 17.0769V16.3462M16.7976 14.8586C15.6313 13.4231 14.8079 12.6923 14.8079 8.73474C14.8079 5.11058 12.9676 3.8194 11.453 3.19231C11.2518 3.10918 11.0624 2.91827 11.0011 2.71046C10.7354 1.80111 9.99061 1 9.00054 1C8.01047 1 7.2652 1.80156 7.00224 2.71137C6.94093 2.92147 6.75154 3.10918 6.55035 3.19231C5.03391 3.82031 3.19547 5.10692 3.19547 8.73474C3.19319 12.6923 2.3698 13.4231 1.20352 14.8586C0.720291 15.4532 1.14357 16.3462 1.98876 16.3462H16.0169C16.8575 16.3462 17.2781 15.4505 16.7976 14.8586Z" stroke="#2A3342" stroke-width="1.4" stroke-linecap="round" stroke-linejoin="round"/>
</svg>
