<svg width="19" height="19" viewBox="0 0 19 19" fill="none" xmlns="http://www.w3.org/2000/svg">
<path d="M16.5351 15.8341C16.4247 15.8341 16.3351 15.7446 16.3351 15.6341V3.08928C16.3351 2.97882 16.2456 2.88928 16.1351 2.88928H13.1448C13.0344 2.88928 12.9448 2.79973 12.9448 2.68928V0.237434C12.9448 0.113393 12.8331 0.0192661 12.7108 0.0403414L2.93991 1.72498C2.84398 1.74152 2.77389 1.82472 2.77389 1.92207V15.6341C2.77389 15.7446 2.68435 15.8341 2.57389 15.8341H0.2C0.0895433 15.8341 0 15.9236 0 16.0341V16.8669C0 16.9774 0.089543 17.0669 0.2 17.0669H3.34793L12.7175 18.3593C12.8377 18.3758 12.9448 18.2825 12.9448 18.1611V4.32212C12.9448 4.21166 13.0344 4.12212 13.1448 4.12212H14.9023C15.0128 4.12212 15.1023 4.21166 15.1023 4.32212V16.8669C15.1023 16.9774 15.1918 17.0669 15.3023 17.0669H18.2926C18.4031 17.0669 18.4926 16.9774 18.4926 16.8669V16.0341C18.4926 15.9236 18.4031 15.8341 18.2926 15.8341H16.5351ZM11.712 16.7466C11.712 16.8679 11.6048 16.9613 11.4847 16.9447L4.1794 15.9371C4.08044 15.9235 4.00673 15.8389 4.00673 15.739V2.96059C4.00673 2.86324 4.07682 2.78003 4.17275 2.76349L11.478 1.50414C11.6002 1.48307 11.712 1.57719 11.712 1.70123V16.7466Z" fill="#2A3342"/>
<path d="M9.24609 9.05392C9.24609 8.71348 9.52207 8.4375 9.86251 8.4375C10.203 8.4375 10.4789 8.71348 10.4789 9.05392V10.2868C10.4789 10.6272 10.203 10.9032 9.86251 10.9032C9.52207 10.9032 9.24609 10.6272 9.24609 10.2868V9.05392Z" fill="#2A3342"/>
</svg>
