<svg width="20" height="22" viewBox="0 0 20 22" fill="none" xmlns="http://www.w3.org/2000/svg">
<path d="M19.6758 13.6645L18.1406 12.352C18.2133 11.9066 18.2508 11.452 18.2508 10.9973C18.2508 10.5426 18.2133 10.0879 18.1406 9.64258L19.6758 8.33008C19.7916 8.23095 19.8745 8.09893 19.9134 7.95156C19.9523 7.80419 19.9455 7.64846 19.8938 7.50508L19.8727 7.44414C19.45 6.26295 18.8172 5.16797 18.0047 4.21211L17.9625 4.16289C17.8639 4.047 17.7326 3.96369 17.5857 3.92394C17.4389 3.88419 17.2834 3.88987 17.1398 3.94023L15.2344 4.61758C14.5313 4.04102 13.7461 3.58633 12.8977 3.26758L12.5297 1.27539C12.5019 1.12549 12.4292 0.987584 12.3212 0.879995C12.2132 0.772406 12.075 0.700227 11.925 0.673047L11.8617 0.661328C10.6406 0.441016 9.35625 0.441016 8.13516 0.661328L8.07188 0.673047C7.92187 0.700227 7.78368 0.772406 7.67568 0.879995C7.56767 0.987584 7.49495 1.12549 7.46719 1.27539L7.09688 3.27695C6.25521 3.59577 5.47141 4.05022 4.77657 4.62227L2.85704 3.94023C2.71352 3.88947 2.55795 3.88359 2.41101 3.92336C2.26407 3.96313 2.1327 4.04667 2.03438 4.16289L1.99219 4.21211C1.18066 5.16865 0.547917 6.26345 0.124224 7.44414L0.10313 7.50508C-0.00233904 7.79805 0.0843798 8.12617 0.321099 8.33008L1.875 9.65664C1.80235 10.0973 1.76719 10.5473 1.76719 10.9949C1.76719 11.4449 1.80235 11.8949 1.875 12.3332L0.321099 13.6598C0.205307 13.7589 0.122434 13.8909 0.0834984 14.0383C0.044563 14.1857 0.0514102 14.3414 0.10313 14.4848L0.124224 14.5457C0.548442 15.727 1.17657 16.8168 1.99219 17.7777L2.03438 17.827C2.13294 17.9428 2.26431 18.0262 2.41117 18.0659C2.55802 18.1057 2.71347 18.1 2.85704 18.0496L4.77657 17.3676C5.47501 17.9418 6.25547 18.3965 7.09688 18.7129L7.46719 20.7145C7.49495 20.8644 7.56767 21.0023 7.67568 21.1098C7.78368 21.2174 7.92187 21.2896 8.07188 21.3168L8.13516 21.3285C9.36747 21.55 10.6294 21.55 11.8617 21.3285L11.925 21.3168C12.075 21.2896 12.2132 21.2174 12.3212 21.1098C12.4292 21.0023 12.5019 20.8644 12.5297 20.7145L12.8977 18.7223C13.7458 18.4044 14.5353 17.9482 15.2344 17.3723L17.1398 18.0496C17.2834 18.1004 17.4389 18.1063 17.5859 18.0665C17.7328 18.0267 17.8642 17.9432 17.9625 17.827L18.0047 17.7777C18.8203 16.8145 19.4484 15.727 19.8727 14.5457L19.8938 14.4848C19.9992 14.1965 19.9125 13.8684 19.6758 13.6645ZM16.4766 9.91914C16.5352 10.273 16.5656 10.6363 16.5656 10.9996C16.5656 11.3629 16.5352 11.7262 16.4766 12.0801L16.3219 13.0199L18.0727 14.5176C17.8072 15.129 17.4722 15.7079 17.0742 16.2426L14.8992 15.4715L14.1633 16.0762C13.6031 16.5355 12.9797 16.8965 12.3047 17.1496L11.4117 17.4848L10.9922 19.7582C10.3302 19.8332 9.66195 19.8332 9 19.7582L8.58047 17.4801L7.69454 17.1402C7.02657 16.8871 6.40547 16.5262 5.85 16.0691L5.11407 15.4621L2.925 16.2402C2.52657 15.7035 2.19375 15.1246 1.92657 14.5152L3.6961 13.0035L3.54376 12.066C3.4875 11.7168 3.45704 11.3559 3.45704 10.9996C3.45704 10.641 3.48516 10.2824 3.54376 9.9332L3.6961 8.9957L1.92657 7.48398C2.19141 6.87227 2.52657 6.2957 2.925 5.75898L5.11407 6.53711L5.85 5.93008C6.40547 5.47305 7.02657 5.11211 7.69454 4.85898L8.58282 4.52383L9.00235 2.2457C9.66094 2.1707 10.3336 2.1707 10.9945 2.2457L11.4141 4.51914L12.307 4.8543C12.9797 5.10742 13.6055 5.46836 14.1656 5.92773L14.9016 6.53242L17.0766 5.76133C17.475 6.29805 17.8078 6.87695 18.075 7.48633L16.3242 8.98398L16.4766 9.91914ZM10.0008 6.64023C7.72266 6.64023 5.87579 8.48711 5.87579 10.7652C5.87579 13.0434 7.72266 14.8902 10.0008 14.8902C12.2789 14.8902 14.1258 13.0434 14.1258 10.7652C14.1258 8.48711 12.2789 6.64023 10.0008 6.64023ZM11.857 12.6215C11.6136 12.8656 11.3242 13.0593 11.0057 13.1912C10.6871 13.3231 10.3456 13.3908 10.0008 13.3902C9.3 13.3902 8.64141 13.116 8.14454 12.6215C7.90037 12.378 7.70676 12.0887 7.57482 11.7701C7.44289 11.4515 7.37525 11.11 7.37579 10.7652C7.37579 10.0645 7.65 9.40586 8.14454 8.90898C8.64141 8.41211 9.3 8.14023 10.0008 8.14023C10.7016 8.14023 11.3602 8.41211 11.857 8.90898C12.1012 9.15245 12.2948 9.44179 12.4267 9.76035C12.5587 10.0789 12.6263 10.4204 12.6258 10.7652C12.6258 11.466 12.3516 12.1246 11.857 12.6215Z" fill="#2A3342"/>
</svg>
