<svg width="24" height="18" viewBox="0 0 24 18" fill="none" xmlns="http://www.w3.org/2000/svg">
<path d="M23.325 9.72547C23.1962 9.82473 23.0376 9.87758 22.875 9.87547C22.7586 9.87547 22.6437 9.84836 22.5396 9.79629C22.4355 9.74421 22.3449 9.66861 22.275 9.57547C21.823 8.96784 21.2346 8.47483 20.5572 8.13614C19.8798 7.79745 19.1323 7.62253 18.375 7.62547C18.1761 7.62547 17.9853 7.54645 17.8447 7.4058C17.704 7.26514 17.625 7.07438 17.625 6.87547C17.625 6.67655 17.704 6.48579 17.8447 6.34514C17.9853 6.20448 18.1761 6.12547 18.375 6.12547C18.8019 6.12501 19.2198 6.00314 19.58 5.77409C19.9401 5.54505 20.2278 5.21826 20.4092 4.8319C20.5906 4.44553 20.6584 4.01553 20.6047 3.59208C20.5509 3.16863 20.3778 2.76921 20.1056 2.44044C19.8333 2.11168 19.4732 1.86714 19.0672 1.73536C18.6612 1.60359 18.2261 1.59003 17.8127 1.69625C17.3992 1.80248 17.0246 2.02411 16.7324 2.33528C16.4402 2.64645 16.2425 3.03431 16.1625 3.45359C16.1479 3.55385 16.1132 3.65012 16.0605 3.73659C16.0077 3.82307 15.9379 3.89795 15.8554 3.95673C15.7729 4.0155 15.6793 4.05695 15.5803 4.07857C15.4814 4.10019 15.379 4.10153 15.2795 4.08252C15.18 4.0635 15.0854 4.02452 15.0014 3.96794C14.9173 3.91135 14.8456 3.83832 14.7906 3.75326C14.7356 3.6682 14.6983 3.57287 14.6811 3.47303C14.664 3.37319 14.6672 3.2709 14.6906 3.17234C14.8019 2.58905 15.0501 2.04052 15.4148 1.5719C15.7795 1.10328 16.2502 0.727963 16.7883 0.476841C17.3264 0.225719 17.9165 0.105972 18.5099 0.127455C19.1033 0.148938 19.6831 0.311037 20.2017 0.600411C20.7202 0.889785 21.1626 1.29816 21.4924 1.79193C21.8223 2.28569 22.0302 2.85073 22.099 3.44054C22.1678 4.03035 22.0955 4.62806 21.8881 5.18449C21.6808 5.74091 21.3443 6.24014 20.9063 6.64109C21.9256 7.08306 22.8113 7.7845 23.475 8.67547C23.5341 8.75426 23.5771 8.84392 23.6015 8.93933C23.626 9.03474 23.6314 9.13403 23.6175 9.23153C23.6035 9.32903 23.5705 9.42284 23.5204 9.50759C23.4702 9.59233 23.4038 9.66637 23.325 9.72547V9.72547ZM18.075 15.9223C18.1597 16.1017 18.1707 16.3071 18.1059 16.4946C18.0411 16.682 17.9055 16.8367 17.7281 16.9255C17.6247 16.9715 17.5132 16.997 17.4 17.0005C17.2595 16.9995 17.122 16.9595 17.0028 16.8851C16.8836 16.8106 16.7875 16.7045 16.725 16.5786C16.2925 15.6939 15.6204 14.9484 14.785 14.427C13.9497 13.9055 12.9847 13.6291 12 13.6291C11.0153 13.6291 10.0503 13.9055 9.21498 14.427C8.37965 14.9484 7.70748 15.6939 7.275 16.5786C7.23197 16.6673 7.17187 16.7466 7.09815 16.8121C7.02442 16.8775 6.93852 16.9278 6.84535 16.96C6.75219 16.9922 6.65358 17.0057 6.55518 16.9998C6.45678 16.9939 6.36051 16.9686 6.27188 16.9255C6.0945 16.8367 5.95891 16.682 5.89408 16.4946C5.82926 16.3071 5.84036 16.1017 5.925 15.9223C6.62202 14.4871 7.80425 13.3448 9.2625 12.6973C8.51608 12.1252 7.96766 11.3336 7.6943 10.4338C7.42094 9.53395 7.43637 8.57107 7.73843 7.68045C8.04049 6.78982 8.61399 6.01621 9.37836 5.46832C10.1427 4.92042 11.0596 4.62577 12 4.62577C12.9405 4.62577 13.8573 4.92042 14.6216 5.46832C15.386 6.01621 15.9595 6.78982 16.2616 7.68045C16.5636 8.57107 16.5791 9.53395 16.3057 10.4338C16.0323 11.3336 15.4839 12.1252 14.7375 12.6973C16.1958 13.3448 17.378 14.4871 18.075 15.9223V15.9223ZM12 12.1255C12.5933 12.1255 13.1734 11.9495 13.6667 11.6199C14.1601 11.2902 14.5446 10.8217 14.7716 10.2735C14.9987 9.72534 15.0581 9.12214 14.9424 8.54019C14.8266 7.95825 14.5409 7.4237 14.1213 7.00414C13.7018 6.58459 13.1672 6.29886 12.5853 6.18311C12.0033 6.06735 11.4001 6.12676 10.852 6.35383C10.3038 6.58089 9.83524 6.96541 9.50559 7.45876C9.17595 7.9521 9 8.53212 9 9.12547C9.00248 9.92035 9.31934 10.682 9.88141 11.2441C10.4435 11.8061 11.2051 12.123 12 12.1255V12.1255ZM6.375 6.87547C6.375 6.67655 6.29599 6.48579 6.15533 6.34514C6.01468 6.20448 5.82392 6.12547 5.625 6.12547C5.19815 6.12501 4.78024 6.00314 4.42005 5.77409C4.05986 5.54505 3.77226 5.21826 3.59081 4.8319C3.40936 4.44553 3.34156 4.01553 3.39533 3.59208C3.44909 3.16863 3.62219 2.76921 3.89443 2.44044C4.16667 2.11168 4.52681 1.86714 4.93282 1.73536C5.33882 1.60359 5.77392 1.59003 6.18734 1.69625C6.60077 1.80248 6.97544 2.02411 7.26763 2.33528C7.55982 2.64645 7.75747 3.03431 7.8375 3.45359C7.85206 3.55385 7.88677 3.65012 7.93956 3.73659C7.99234 3.82307 8.06209 3.89795 8.14461 3.95673C8.22713 4.0155 8.3207 4.05695 8.41967 4.07857C8.51865 4.10019 8.62098 4.10153 8.72049 4.08252C8.82 4.0635 8.91462 4.02452 8.99866 3.96794C9.08269 3.91135 9.15438 3.83832 9.20942 3.75326C9.26445 3.6682 9.30168 3.57287 9.31886 3.47303C9.33604 3.37319 9.33282 3.2709 9.30938 3.17234C9.19811 2.58905 8.94992 2.04052 8.58523 1.5719C8.22054 1.10328 7.74977 0.727963 7.21168 0.476841C6.67358 0.225719 6.08355 0.105972 5.49013 0.127455C4.89671 0.148938 4.31688 0.311037 3.79835 0.600411C3.27982 0.889785 2.83743 1.29816 2.50758 1.79193C2.17772 2.28569 1.96985 2.85073 1.90105 3.44054C1.83225 4.03035 1.90451 4.62806 2.11186 5.18449C2.31922 5.74091 2.65575 6.24014 3.09375 6.64109C2.07442 7.08306 1.18874 7.7845 0.525003 8.67547C0.405656 8.8346 0.35441 9.03462 0.382541 9.23153C0.410671 9.42845 0.515873 9.60612 0.675003 9.72547C0.803824 9.82473 0.962389 9.87758 1.125 9.87547C1.24144 9.87547 1.35627 9.84836 1.46041 9.79629C1.56455 9.74421 1.65514 9.66861 1.725 9.57547C2.17705 8.96784 2.76545 8.47483 3.44284 8.13614C4.12022 7.79745 4.86767 7.62253 5.625 7.62547C5.82392 7.62547 6.01468 7.54645 6.15533 7.4058C6.29599 7.26514 6.375 7.07438 6.375 6.87547Z" fill="#2A3342"/>
</svg>
