<svg width="271" height="70" viewBox="0 0 271 70" fill="none" xmlns="http://www.w3.org/2000/svg">
<path opacity="0.05" d="M14.5763 19.62H43.3723V2.6H14.5763V19.62ZM14.5763 44.46H42.4523V28.82H14.5763V44.46ZM0.592344 2.6V67H19.9123V2.6H0.592344ZM72.1648 34.8C72.1648 31.6107 72.7474 28.8507 73.9128 26.52C75.0781 24.128 76.7341 22.288 78.8808 21C81.0274 19.6507 83.6034 18.976 86.6088 18.976C89.7981 18.976 92.4354 19.6507 94.5208 21C96.6674 22.288 98.2928 24.128 99.3968 26.52C100.501 28.8507 101.053 31.6107 101.053 34.8C101.053 37.928 100.47 40.688 99.3048 43.08C98.1394 45.472 96.4834 47.3427 94.3368 48.692C92.1901 49.98 89.6141 50.624 86.6088 50.624C83.6034 50.624 81.0274 49.98 78.8808 48.692C76.7341 47.3427 75.0781 45.472 73.9128 43.08C72.7474 40.688 72.1648 37.928 72.1648 34.8ZM50.7288 34.8C50.7288 39.952 51.5874 44.6747 53.3048 48.968C55.0834 53.2 57.5674 56.88 60.7568 60.008C63.9461 63.136 67.7181 65.528 72.0728 67.184C76.4888 68.9013 81.3341 69.76 86.6088 69.76C91.8834 69.76 96.6981 68.9013 101.053 67.184C105.469 65.528 109.271 63.136 112.461 60.008C115.65 56.88 118.103 53.2 119.821 48.968C121.599 44.6747 122.489 39.952 122.489 34.8C122.489 29.648 121.599 24.9867 119.821 20.816C118.042 16.6453 115.527 13.0573 112.277 10.052C109.026 7.04666 105.223 4.74666 100.869 3.152C96.5141 1.55733 91.7608 0.759997 86.6088 0.759997C81.5794 0.759997 76.8874 1.55733 72.5328 3.152C68.1781 4.74666 64.3754 7.04666 61.1248 10.052C57.8741 13.0573 55.3288 16.6453 53.4888 20.816C51.6488 24.9867 50.7288 29.648 50.7288 34.8ZM149.43 34.8C149.43 31.6107 150.013 28.8507 151.178 26.52C152.344 24.128 154 22.288 156.146 21C158.293 19.6507 160.869 18.976 163.874 18.976C167.064 18.976 169.701 19.6507 171.786 21C173.933 22.288 175.558 24.128 176.662 26.52C177.766 28.8507 178.318 31.6107 178.318 34.8C178.318 37.928 177.736 40.688 176.57 43.08C175.405 45.472 173.749 47.3427 171.602 48.692C169.456 49.98 166.88 50.624 163.874 50.624C160.869 50.624 158.293 49.98 156.146 48.692C154 47.3427 152.344 45.472 151.178 43.08C150.013 40.688 149.43 37.928 149.43 34.8ZM127.994 34.8C127.994 39.952 128.853 44.6747 130.57 48.968C132.349 53.2 134.833 56.88 138.022 60.008C141.212 63.136 144.984 65.528 149.338 67.184C153.754 68.9013 158.6 69.76 163.874 69.76C169.149 69.76 173.964 68.9013 178.318 67.184C182.734 65.528 186.537 63.136 189.726 60.008C192.916 56.88 195.369 53.2 197.086 48.968C198.865 44.6747 199.754 39.952 199.754 34.8C199.754 29.648 198.865 24.9867 197.086 20.816C195.308 16.6453 192.793 13.0573 189.542 10.052C186.292 7.04666 182.489 4.74666 178.134 3.152C173.78 1.55733 169.026 0.759997 163.874 0.759997C158.845 0.759997 154.153 1.55733 149.798 3.152C145.444 4.74666 141.641 7.04666 138.39 10.052C135.14 13.0573 132.594 16.6453 130.754 20.816C128.914 24.9867 127.994 29.648 127.994 34.8ZM208.94 2.6V67H230.008V2.6H208.94ZM234.24 67C241.723 67 248.132 65.712 253.468 63.136C258.865 60.56 262.975 56.88 265.796 52.096C268.679 47.2507 270.12 41.4853 270.12 34.8C270.12 28.0533 268.679 22.288 265.796 17.504C262.975 12.72 258.865 9.03999 253.468 6.464C248.132 3.888 241.723 2.6 234.24 2.6H222.924V20.08H233.32C235.099 20.08 236.908 20.2333 238.748 20.54C240.588 20.8467 242.275 21.4907 243.808 22.472C245.341 23.4533 246.568 24.9253 247.488 26.888C248.469 28.8507 248.96 31.488 248.96 34.8C248.96 38.112 248.469 40.7493 247.488 42.712C246.568 44.6747 245.341 46.1467 243.808 47.128C242.275 48.1093 240.588 48.7533 238.748 49.06C236.908 49.3667 235.099 49.52 233.32 49.52H222.924V67H234.24Z" fill="#2A3342"/>
</svg>
