<svg width="518" height="72" viewBox="0 0 518 72" fill="none" xmlns="http://www.w3.org/2000/svg">
<path opacity="0.05" d="M13.8408 43.528L0.224844 53.464C1.69684 56.7147 3.87418 59.6587 6.75684 62.296C9.63951 64.9333 13.0435 66.988 16.9688 68.46C20.9555 69.9933 25.2488 70.76 29.8488 70.76C33.1608 70.76 36.3808 70.3 39.5088 69.38C42.6368 68.46 45.4275 67.1107 47.8808 65.332C50.3955 63.5533 52.3888 61.3147 53.8608 58.616C55.3328 55.856 56.0688 52.6973 56.0688 49.14C56.0688 46.6253 55.7008 44.356 54.9648 42.332C54.2288 40.2467 53.1248 38.376 51.6528 36.72C50.2422 35.064 48.5248 33.6227 46.5008 32.396C44.4768 31.108 42.1768 30.004 39.6008 29.084C37.0862 28.164 34.7862 27.3667 32.7008 26.692C30.6155 25.956 28.9288 25.1893 27.6408 24.392C26.4142 23.5333 25.8008 22.46 25.8008 21.172C25.8008 20.1293 26.2302 19.3627 27.0888 18.872C28.0088 18.3813 29.1742 18.136 30.5848 18.136C31.7502 18.136 32.9462 18.3507 34.1728 18.78C35.3995 19.2093 36.5955 19.884 37.7608 20.804C38.9875 21.6627 40.0915 22.8587 41.0728 24.392L56.0688 16.112C54.9035 13.904 53.1862 11.696 50.9168 9.488C48.7088 7.28 45.8568 5.44 42.3608 3.968C38.9262 2.496 34.7862 1.76 29.9408 1.76C25.4635 1.76 21.3542 2.496 17.6128 3.968C13.8715 5.44 10.8662 7.61733 8.59684 10.5C6.32751 13.3827 5.19284 16.94 5.19284 21.172C5.19284 24.4227 5.77551 27.244 6.94084 29.636C8.16751 32.028 9.67018 34.052 11.4488 35.708C13.2888 37.364 15.1902 38.7133 17.1528 39.756C19.1768 40.7987 20.9555 41.6267 22.4888 42.24C25.9848 43.5893 28.5915 44.6627 30.3088 45.46C32.0262 46.2573 33.1608 46.9627 33.7128 47.576C34.3262 48.1893 34.6328 48.9253 34.6328 49.784C34.6328 51.1947 34.0808 52.2373 32.9768 52.912C31.8728 53.5253 30.5235 53.832 28.9288 53.832C27.0275 53.832 25.1262 53.4333 23.2248 52.636C21.3848 51.8387 19.6675 50.6733 18.0728 49.14C16.4782 47.5453 15.0675 45.6747 13.8408 43.528ZM70.0413 43.62H121.561V25.68H70.0413V43.62ZM108.957 3.6V68H129.197V3.6H108.957ZM65.7173 3.6V68H85.9573V3.6H65.7173ZM159.841 35.8C159.841 32.6107 160.423 29.8507 161.589 27.52C162.754 25.128 164.41 23.288 166.557 22C168.703 20.6507 171.279 19.976 174.285 19.976C177.474 19.976 180.111 20.6507 182.197 22C184.343 23.288 185.969 25.128 187.073 27.52C188.177 29.8507 188.729 32.6107 188.729 35.8C188.729 38.928 188.146 41.688 186.981 44.08C185.815 46.472 184.159 48.3427 182.013 49.692C179.866 50.98 177.29 51.624 174.285 51.624C171.279 51.624 168.703 50.98 166.557 49.692C164.41 48.3427 162.754 46.472 161.589 44.08C160.423 41.688 159.841 38.928 159.841 35.8ZM138.405 35.8C138.405 40.952 139.263 45.6747 140.981 49.968C142.759 54.2 145.243 57.88 148.433 61.008C151.622 64.136 155.394 66.528 159.749 68.184C164.165 69.9013 169.01 70.76 174.285 70.76C179.559 70.76 184.374 69.9013 188.729 68.184C193.145 66.528 196.947 64.136 200.137 61.008C203.326 57.88 205.779 54.2 207.497 49.968C209.275 45.6747 210.165 40.952 210.165 35.8C210.165 30.648 209.275 25.9867 207.497 21.816C205.718 17.6453 203.203 14.0573 199.953 11.052C196.702 8.04666 192.899 5.74666 188.545 4.152C184.19 2.55733 179.437 1.76 174.285 1.76C169.255 1.76 164.563 2.55733 160.209 4.152C155.854 5.74666 152.051 8.04666 148.801 11.052C145.55 14.0573 143.005 17.6453 141.165 21.816C139.325 25.9867 138.405 30.648 138.405 35.8ZM219.35 3.6V68H239.59V3.6H219.35ZM232.414 19.7H244.65C247.165 19.7 249.066 20.2213 250.354 21.264C251.642 22.3067 252.286 23.7787 252.286 25.68C252.286 27.5813 251.642 29.0533 250.354 30.096C249.066 31.1387 247.165 31.66 244.65 31.66H232.414V47.76H244.65C250.967 47.76 256.089 46.8707 260.014 45.092C264.001 43.3133 266.914 40.768 268.754 37.456C270.655 34.144 271.606 30.2187 271.606 25.68C271.606 21.08 270.655 17.1547 268.754 13.904C266.914 10.592 264.001 8.04667 260.014 6.268C256.089 4.48933 250.967 3.6 244.65 3.6H232.414V19.7ZM280.803 3.6V68H301.043V3.6H280.803ZM293.867 19.7H306.103C308.618 19.7 310.519 20.2213 311.807 21.264C313.095 22.3067 313.739 23.7787 313.739 25.68C313.739 27.5813 313.095 29.0533 311.807 30.096C310.519 31.1387 308.618 31.66 306.103 31.66H293.867V47.76H306.103C312.421 47.76 317.542 46.8707 321.467 45.092C325.454 43.3133 328.367 40.768 330.207 37.456C332.109 34.144 333.059 30.2187 333.059 25.68C333.059 21.08 332.109 17.1547 330.207 13.904C328.367 10.592 325.454 8.04667 321.467 6.268C317.542 4.48933 312.421 3.6 306.103 3.6H293.867V19.7ZM342.256 3.6V68H362.956V3.6H342.256ZM417.718 3.6V32.764L375.858 0.379999V68H395.178V38.836L437.038 71.22V3.6H417.718ZM483.009 45.92H497.545C496.993 47.0853 496.319 48.1587 495.521 49.14C494.724 50.1213 493.773 50.9493 492.669 51.624C491.627 52.2987 490.369 52.82 488.897 53.188C487.425 53.556 485.769 53.74 483.929 53.74C480.617 53.74 477.704 53.0347 475.189 51.624C472.736 50.2133 470.804 48.1587 469.393 45.46C468.044 42.7613 467.369 39.5413 467.369 35.8C467.369 31.9973 468.105 28.8387 469.577 26.324C471.111 23.8093 473.135 21.9387 475.649 20.712C478.164 19.424 480.924 18.78 483.929 18.78C486.996 18.78 489.419 19.5467 491.197 21.08C492.976 22.6133 494.417 24.392 495.521 26.416L514.381 17.952C512.235 14.9467 509.72 12.248 506.837 9.856C504.016 7.40266 500.704 5.44 496.901 3.968C493.16 2.496 488.836 1.76 483.929 1.76C478.532 1.76 473.533 2.55733 468.933 4.152C464.395 5.68533 460.408 7.924 456.973 10.868C453.6 13.812 450.963 17.4 449.061 21.632C447.16 25.8027 446.209 30.5253 446.209 35.8C446.209 41.0747 447.099 45.8587 448.877 50.152C450.717 54.4453 453.263 58.1253 456.513 61.192C459.825 64.2587 463.72 66.62 468.197 68.276C472.675 69.932 477.612 70.76 483.009 70.76C488.836 70.76 493.988 69.748 498.465 67.724C502.943 65.7 506.653 62.8787 509.597 59.26C512.541 55.6413 514.657 51.44 515.945 46.656C517.295 41.872 517.724 36.72 517.233 31.2H483.009V45.92Z" fill="#2A3342"/>
</svg>
