<svg width="16" height="16" viewBox="0 0 16 16" fill="none" xmlns="http://www.w3.org/2000/svg">
<g clip-path="url(#clip0_371_5782)">
<path d="M15.9997 4.66667C15.9997 5.90434 15.508 7.09133 14.6328 7.9665C13.7577 8.84167 12.5707 9.33333 11.333 9.33333C10.0953 9.33333 8.90835 8.84167 8.03318 7.9665C7.15801 7.09133 6.66634 5.90434 6.66634 4.66667C6.66634 3.42899 7.15801 2.242 8.03318 1.36683C8.90835 0.491665 10.0953 0 11.333 0C12.5707 0 13.7577 0.491665 14.6328 1.36683C15.508 2.242 15.9997 3.42899 15.9997 4.66667ZM11.9997 2C11.9997 1.82319 11.9294 1.65362 11.8044 1.5286C11.6794 1.40357 11.5098 1.33333 11.333 1.33333C11.1562 1.33333 10.9866 1.40357 10.8616 1.5286C10.7366 1.65362 10.6663 1.82319 10.6663 2V4H8.66634C8.48953 4 8.31996 4.07024 8.19494 4.19526C8.06991 4.32029 7.99967 4.48986 7.99967 4.66667C7.99967 4.84348 8.06991 5.01305 8.19494 5.13807C8.31996 5.26309 8.48953 5.33333 8.66634 5.33333H10.6663V7.33333C10.6663 7.51014 10.7366 7.67971 10.8616 7.80474C10.9866 7.92976 11.1562 8 11.333 8C11.5098 8 11.6794 7.92976 11.8044 7.80474C11.9294 7.67971 11.9997 7.51014 11.9997 7.33333V5.33333H13.9997C14.1765 5.33333 14.3461 5.26309 14.4711 5.13807C14.5961 5.01305 14.6663 4.84348 14.6663 4.66667C14.6663 4.48986 14.5961 4.32029 14.4711 4.19526C14.3461 4.07024 14.1765 4 13.9997 4H11.9997V2ZM3.99967 2.66667H5.67434C5.84234 2.192 6.06767 1.74533 6.34367 1.33333H3.99967C3.29243 1.33333 2.61415 1.61428 2.11406 2.11438C1.61396 2.61448 1.33301 3.29276 1.33301 4V9.33333C1.33301 10.0406 1.61396 10.7189 2.11406 11.219C2.61415 11.719 3.29243 12 3.99967 12V14C3.99974 14.1206 4.03251 14.2389 4.09449 14.3423C4.15648 14.4458 4.24536 14.5305 4.35167 14.5874C4.45799 14.6443 4.57774 14.6713 4.6982 14.6656C4.81865 14.6598 4.93528 14.6215 5.03567 14.5547L8.86767 12H11.9997C12.6485 12 13.2751 11.7635 13.7621 11.3347C14.249 10.9059 14.5629 10.3143 14.645 9.67067C14.0143 10.089 13.3098 10.3836 12.569 10.5387C12.3911 10.623 12.1966 10.6667 11.9997 10.6667H8.66634C8.53488 10.6668 8.40638 10.7057 8.29701 10.7787L5.33301 12.7547V11.3333C5.33301 11.1565 5.26277 10.987 5.13775 10.8619C5.01272 10.7369 4.84315 10.6667 4.66634 10.6667H3.99967C3.64605 10.6667 3.30691 10.5262 3.05687 10.2761C2.80682 10.0261 2.66634 9.68695 2.66634 9.33333V4C2.66634 3.64638 2.80682 3.30724 3.05687 3.05719C3.30691 2.80714 3.64605 2.66667 3.99967 2.66667Z" fill="white"/>
</g>
<defs>
<clipPath id="clip0_371_5782">
<rect width="16" height="16" fill="white"/>
</clipPath>
</defs>
</svg>
