<svg width="29" height="29" viewBox="0 0 29 29" fill="none" xmlns="http://www.w3.org/2000/svg">
<path d="M21.0562 19.9554C19.441 18.3405 17.2506 17.4332 14.9666 17.4332C12.6826 17.4332 10.4921 18.3405 8.87695 19.9554M21.5695 5.08909C19.987 4.17546 18.1064 3.92787 16.3414 4.40078C14.5763 4.8737 13.0714 6.02838 12.1577 7.61083L24.0912 14.5008C25.0048 12.9183 25.2524 11.0377 24.7795 9.2727C24.3066 7.50767 23.1519 6.00279 21.5695 5.08909V5.08909Z" stroke="#6D6D6D" stroke-opacity="0.95" stroke-width="2.12" stroke-linecap="round" stroke-linejoin="round"/>
<path d="M20.1136 12.2041C22.0176 8.90842 22.6687 5.72294 21.5697 5.08906C20.4708 4.45518 18.0386 6.61175 16.1358 9.90747M18.1247 11.0558L14.6797 17.0225M4.34473 22.8262C4.70219 22.6485 5.09401 22.5505 5.49306 22.5391C5.94033 22.5298 6.38316 22.6294 6.7833 22.8295C7.18344 23.0296 7.52886 23.324 7.78973 23.6875C8.05059 24.0509 8.39601 24.3454 8.79615 24.5454C9.19629 24.7455 9.63912 24.8452 10.0864 24.8358C10.5337 24.8452 10.9765 24.7455 11.3766 24.5454C11.7768 24.3454 12.1222 24.0509 12.3831 23.6875C12.6439 23.324 12.9893 23.0296 13.3895 22.8295C13.7896 22.6294 14.2325 22.5298 14.6797 22.5391C15.127 22.5298 15.5698 22.6294 15.97 22.8295C16.3701 23.0296 16.7155 23.324 16.9764 23.6875C17.2373 24.0509 17.5827 24.3454 17.9828 24.5454C18.383 24.7455 18.8258 24.8452 19.2731 24.8358C19.7203 24.8452 20.1632 24.7455 20.5633 24.5454C20.9634 24.3454 21.3089 24.0509 21.5697 23.6875C21.8306 23.324 22.176 23.0296 22.5762 22.8295C22.9763 22.6294 23.4191 22.5298 23.8664 22.5391C24.2654 22.5505 24.6573 22.6485 25.0147 22.8262" stroke="#6D6D6D" stroke-opacity="0.95" stroke-width="2.12" stroke-linecap="round" stroke-linejoin="round"/>
</svg>
