<svg width="29" height="29" viewBox="0 0 29 29" fill="none" xmlns="http://www.w3.org/2000/svg">
<path d="M22.7577 3.01794H11.2744C10.0078 3.01794 8.97775 4.048 8.97775 5.31461V11.7292L3.57255 17.1344C3.412 17.295 3.30267 17.4996 3.25838 17.7223C3.21409 17.945 3.23683 18.1759 3.32373 18.3857C3.41062 18.5955 3.55777 18.7748 3.74657 18.901C3.93536 19.0272 4.15733 19.0946 4.38442 19.0946V24.8363C4.38442 25.1408 4.5054 25.4329 4.72076 25.6483C4.93611 25.8636 5.22819 25.9846 5.53275 25.9846H23.9061C24.2106 25.9846 24.5027 25.8636 24.7181 25.6483C24.9334 25.4329 25.0544 25.1408 25.0544 24.8363V5.31461C25.0544 4.048 24.0244 3.01794 22.7577 3.01794ZM13.5711 23.6879H6.68108V17.2734L10.1261 13.8284L13.5711 17.2734V23.6879ZM22.7577 23.6879H15.8678V19.0946C16.0951 19.0951 16.3174 19.0281 16.5066 18.902C16.6957 18.7759 16.8432 18.5964 16.9302 18.3864C17.0171 18.1764 17.0398 17.9452 16.9952 17.7223C16.9506 17.4994 16.8407 17.2948 16.6796 17.1344L11.2744 11.7292V5.31461H22.7577V23.6879Z" fill="#6D6D6D" fill-opacity="0.92"/>
<path d="M13.5709 7.61096H15.8675V9.90763H13.5709V7.61096ZM18.1642 7.61096H20.4609V9.90763H18.1642V7.61096ZM18.1642 12.2399H20.4609V14.501H18.1642V12.2399ZM18.1642 16.7976H20.4609V19.0943H18.1642V16.7976ZM8.97754 17.946H11.2742V20.2426H8.97754V17.946Z" fill="#6D6D6D" fill-opacity="0.92"/>
</svg>
