<svg width="18" height="18" viewBox="0 0 18 18" fill="none" xmlns="http://www.w3.org/2000/svg">
<path d="M10.0723 7.40039C9.66621 7.40039 9.35156 7.71504 9.35156 8.10352C9.35156 8.49199 9.66621 8.80664 10.0723 8.80664C10.4432 8.80664 10.7578 8.49199 10.7578 8.10352C10.7578 7.71504 10.4432 7.40039 10.0723 7.40039ZM5.15039 7.40039C4.74434 7.40039 4.42969 7.71504 4.42969 8.10352C4.42969 8.49199 4.74434 8.80664 5.15039 8.80664C5.52129 8.80664 5.83594 8.49199 5.83594 8.10352C5.83594 7.71504 5.52129 7.40039 5.15039 7.40039Z" fill="#E8604C"/>
<path d="M12.5694 14.9237C11.0588 15.423 9.42753 15.2452 8.0804 14.4925L8.37532 14.2566L9.26483 14.7013L9.26835 14.7031L9.31104 14.7244L9.35701 14.7373C10.4285 15.0376 11.5862 15.0048 12.6719 14.6015L12.6811 14.5981L12.6901 14.5943L12.7274 14.5788L14.2718 15.0988L14.9381 15.3232L14.9314 14.6202L14.9155 12.9701L14.9436 12.9351C14.9438 12.9348 14.944 12.9345 14.9442 12.9343C16.4293 11.0932 16.509 8.46131 15.1001 6.52712C14.753 6.04454 14.3433 5.6446 13.8967 5.32419L13.8897 5.31919L13.8826 5.31443L13.872 5.3074L12.8923 4.65429V4.47293C13.8309 4.85031 14.6739 5.48547 15.3104 6.35872C16.7524 8.34473 16.715 11.0114 15.2945 12.9398L15.197 13.072V13.2363V15.5918C15.197 15.6268 15.1695 15.6543 15.1345 15.6543C15.1342 15.6543 15.1274 15.6543 15.1117 15.6495L12.8812 14.923L12.7252 14.8722L12.5694 14.9237ZM8.32169 14.0894L7.26074 14.0308C6.70308 14 6.14199 13.8898 5.59877 13.6968L5.4409 13.6407L5.28111 13.6911L3.05572 14.3925L3.05559 14.3925C3.02277 14.4028 2.98829 14.3844 2.97822 14.3523L2.9783 14.3523L2.97548 14.3438C2.9755 14.3439 2.97549 14.3439 2.97547 14.3438C2.97537 14.3433 2.97477 14.3408 2.97477 14.3367L2.97476 14.3337L2.96069 12.0028L2.95967 11.8339L2.85637 11.7002C1.26557 9.64119 1.1979 6.74073 2.75966 4.58307C4.69827 1.92832 8.4252 1.34064 11.0788 3.26966L11.0801 3.27057C11.4303 3.52352 11.7432 3.80724 12.0207 4.11553L12.7383 4.91286L13.1294 5.90656C13.8499 7.73689 13.6482 9.88149 12.4099 11.5886C11.6264 12.6622 10.5402 13.408 9.34162 13.7761L8.32169 14.0894ZM5.48519 13.3815L5.48514 13.3816L5.49601 13.3858C7.89413 14.32 10.6559 13.5383 12.1988 11.4214L12.1991 11.4209C14.0411 8.88659 13.4745 5.33108 10.9285 3.48032L10.9277 3.47973C8.38714 1.64081 4.82714 2.20455 2.97077 4.75032L2.97014 4.75118C1.44283 6.8551 1.55191 9.7198 3.18145 11.7076L3.18778 11.7153L3.19442 11.7228L3.21057 11.741L3.22635 13.3818L3.23283 14.0554L3.87574 13.8541L5.44227 13.3636L5.48519 13.3815Z" fill="#E8604C" stroke="#E8604C"/>
<path d="M7.61133 7.40039C7.20527 7.40039 6.89062 7.71504 6.89062 8.10352C6.89062 8.49199 7.20527 8.80664 7.61133 8.80664C7.98223 8.80664 8.29688 8.49199 8.29688 8.10352C8.29688 7.71504 7.98223 7.40039 7.61133 7.40039Z" fill="#E8604C"/>
</svg>
