<svg width="25" height="25" viewBox="0 0 25 25" fill="none" xmlns="http://www.w3.org/2000/svg">
<path d="M12.7802 0.722534C10.3954 0.722534 8.06422 1.42969 6.08137 2.75459C4.09853 4.07948 2.55309 5.96261 1.64048 8.16583C0.727881 10.369 0.489102 12.7934 0.954343 15.1323C1.41958 17.4713 2.56795 19.6197 4.25422 21.306C5.94049 22.9922 8.08893 24.1406 10.4279 24.6059C12.7668 25.0711 15.1911 24.8323 17.3944 23.9197C19.5976 23.0071 21.4807 21.4617 22.8056 19.4788C24.1305 17.496 24.8377 15.1648 24.8377 12.78C24.8377 9.58219 23.5673 6.51531 21.3061 4.25409C19.0449 1.99287 15.978 0.722534 12.7802 0.722534ZM12.7802 2.44503C14.7563 2.44812 16.6901 3.01767 18.3524 4.08618C20.0147 5.1547 21.3358 6.67739 22.1592 8.47378H20.5314C20.5314 8.24537 20.4407 8.0263 20.2792 7.86479C20.1176 7.70327 19.8986 7.61253 19.6702 7.61253H5.89016C5.66174 7.61253 5.44268 7.70327 5.28117 7.86479C5.11965 8.0263 5.02891 8.24537 5.02891 8.47378H3.40115C4.22452 6.67739 5.54565 5.1547 7.20796 4.08618C8.87026 3.01767 10.8041 2.44812 12.7802 2.44503ZM12.7802 23.115C10.0391 23.115 7.4104 22.0262 5.47221 20.088C3.53402 18.1498 2.44516 15.521 2.44516 12.78C2.44918 11.9076 2.56496 11.0393 2.78966 10.1963H5.02891V11.9188C5.02891 12.3756 5.21039 12.8137 5.53342 13.1368C5.85645 13.4598 6.29458 13.6413 6.75141 13.6413H9.60215C10.0138 13.6469 10.4138 13.505 10.7297 13.2411C11.0457 12.9773 11.2568 12.609 11.3246 12.203L11.7725 9.33503H13.7878L14.2615 12.203C14.3294 12.609 14.5404 12.9773 14.8564 13.2411C15.1724 13.505 15.5724 13.6469 15.984 13.6413H18.8089C19.2657 13.6413 19.7039 13.4598 20.0269 13.1368C20.3499 12.8137 20.5314 12.3756 20.5314 11.9188V10.1963H22.7707C22.9954 11.0393 23.1111 11.9076 23.1152 12.78C23.1152 15.521 22.0263 18.1498 20.0881 20.088C18.1499 22.0262 15.5212 23.115 12.7802 23.115Z" fill="#787878"/>
</svg>
