<svg width="18" height="18" viewBox="0 0 18 18" fill="none" xmlns="http://www.w3.org/2000/svg">
<path d="M17.4035 8.80875C16.7419 7.09743 15.5934 5.61747 14.0998 4.5518C12.6063 3.48612 10.8332 2.88145 8.99976 2.8125C7.1663 2.88145 5.39323 3.48612 3.89969 4.5518C2.40614 5.61747 1.2576 7.09743 0.596011 8.80875C0.55133 8.93234 0.55133 9.06766 0.596011 9.19125C1.2576 10.9026 2.40614 12.3825 3.89969 13.4482C5.39323 14.5139 7.1663 15.1186 8.99976 15.1875C10.8332 15.1186 12.6063 14.5139 14.0998 13.4482C15.5934 12.3825 16.7419 10.9026 17.4035 9.19125C17.4482 9.06766 17.4482 8.93234 17.4035 8.80875ZM8.99976 14.0625C6.01851 14.0625 2.86851 11.8519 1.72664 9C2.86851 6.14812 6.01851 3.9375 8.99976 3.9375C11.981 3.9375 15.131 6.14812 16.2729 9C15.131 11.8519 11.981 14.0625 8.99976 14.0625Z" fill="#E8604C" stroke="#E8604C" stroke-width="0.1"/>
<path d="M9 5.625C8.33249 5.625 7.67997 5.82294 7.12495 6.19379C6.56994 6.56464 6.13735 7.09174 5.88191 7.70844C5.62646 8.32514 5.55963 9.00374 5.68985 9.65843C5.82008 10.3131 6.14151 10.9145 6.61352 11.3865C7.08552 11.8585 7.68689 12.1799 8.34157 12.3102C8.99626 12.4404 9.67486 12.3735 10.2916 12.1181C10.9083 11.8626 11.4354 11.4301 11.8062 10.875C12.1771 10.32 12.375 9.66751 12.375 9C12.375 8.10489 12.0194 7.24645 11.3865 6.61351C10.7536 5.98058 9.89511 5.625 9 5.625ZM9 11.25C8.55499 11.25 8.11998 11.118 7.74997 10.8708C7.37996 10.6236 7.09157 10.2722 6.92127 9.86104C6.75098 9.4499 6.70642 8.9975 6.79323 8.56105C6.88005 8.12459 7.09434 7.72368 7.40901 7.40901C7.72368 7.09434 8.12459 6.88005 8.56105 6.79323C8.99751 6.70642 9.4499 6.75097 9.86104 6.92127C10.2722 7.09157 10.6236 7.37996 10.8708 7.74997C11.118 8.11998 11.25 8.55499 11.25 9C11.25 9.59674 11.0129 10.169 10.591 10.591C10.169 11.0129 9.59674 11.25 9 11.25Z" fill="#E8604C" stroke="#E8604C" stroke-width="0.1"/>
</svg>
