<svg width="16" height="14" viewBox="0 0 16 14" fill="none" xmlns="http://www.w3.org/2000/svg">
<path d="M15.2246 2.98515C14.989 2.43959 14.6493 1.94521 14.2244 1.52968C13.7993 1.11292 13.298 0.781719 12.7479 0.554099C12.1774 0.317133 11.5656 0.195841 10.9479 0.197263C10.0813 0.197263 9.23574 0.434567 8.50098 0.88281C8.3252 0.990036 8.1582 1.10781 8 1.23613C7.8418 1.10781 7.6748 0.990036 7.49902 0.88281C6.76426 0.434567 5.91875 0.197263 5.05215 0.197263C4.42812 0.197263 3.82344 0.316794 3.25215 0.554099C2.7002 0.782614 2.20273 1.11133 1.77559 1.52968C1.35019 1.94474 1.01037 2.43924 0.775391 2.98515C0.531055 3.55293 0.40625 4.15586 0.40625 4.77636C0.40625 5.36172 0.525781 5.97168 0.763086 6.59218C0.961719 7.11074 1.24648 7.64863 1.61035 8.19179C2.18691 9.05136 2.97969 9.94785 3.96406 10.8566C5.59531 12.3631 7.21074 13.4037 7.2793 13.4459L7.6959 13.7131C7.88047 13.8309 8.11777 13.8309 8.30234 13.7131L8.71895 13.4459C8.7875 13.402 10.4012 12.3631 12.0342 10.8566C13.0186 9.94785 13.8113 9.05136 14.3879 8.19179C14.7518 7.64863 15.0383 7.11074 15.2352 6.59218C15.4725 5.97168 15.592 5.36172 15.592 4.77636C15.5938 4.15586 15.4689 3.55293 15.2246 2.98515V2.98515Z" fill="#E8604C"/>
</svg>
