<svg width="24" height="18" viewBox="0 0 24 18" fill="none" xmlns="http://www.w3.org/2000/svg">
<path d="M7.92294 17.5393C6.83202 17.5393 6.09517 17.3479 5.7124 16.9651C5.32962 16.5824 4.79373 16.391 4.10473 16.391C3.62626 16.391 3.23889 16.4913 2.94262 16.6918C2.64558 16.8932 2.2674 17.0895 1.80806 17.2809C1.42528 17.434 1.07122 17.3912 0.745854 17.1523C0.420493 16.9127 0.257812 16.5728 0.257812 16.1326C0.257812 15.9221 0.334368 15.7211 0.487479 15.5297C0.64059 15.3383 0.851118 15.1852 1.11906 15.0704C1.50184 14.9173 1.87505 14.7163 2.23869 14.4675C2.60233 14.2187 3.21477 14.0943 4.07602 14.0943C5.18608 14.0943 5.93249 14.2857 6.31527 14.6685C6.69805 15.0513 7.22437 15.2426 7.89423 15.2426C8.62151 15.2426 9.16199 15.0513 9.51568 14.6685C9.87013 14.2857 10.6119 14.0943 11.7411 14.0943C12.8703 14.0943 13.6122 14.2857 13.9666 14.6685C14.3203 15.0513 14.8608 15.2426 15.5881 15.2426C16.2579 15.2426 16.7842 15.0513 17.167 14.6685C17.5498 14.2857 18.2962 14.0943 19.4063 14.0943C20.2675 14.0943 20.88 14.2187 21.2436 14.4675C21.6072 14.7163 21.9804 14.9173 22.3632 15.0704C22.6312 15.1852 22.8417 15.3383 22.9948 15.5297C23.1479 15.7211 23.2245 15.9221 23.2245 16.1326C23.2245 16.5728 23.0664 16.9127 22.7502 17.1523C22.4348 17.3912 22.0857 17.4436 21.7029 17.3096C21.2245 17.1374 20.8371 16.9414 20.5408 16.7217C20.2438 16.5012 19.856 16.391 19.3776 16.391C18.6886 16.391 18.1527 16.5824 17.7699 16.9651C17.3871 17.3479 16.6503 17.5393 15.5594 17.5393C14.4302 17.5393 13.6933 17.3479 13.3488 16.9651C13.0043 16.5824 12.4684 16.391 11.7411 16.391C11.0139 16.391 10.478 16.5824 10.1335 16.9651C9.78898 17.3479 9.05213 17.5393 7.92294 17.5393ZM4.56406 12.946C4.10473 12.946 3.66453 12.8598 3.24348 12.6876C2.82242 12.5153 2.44921 12.2665 2.12385 11.9412L1.34873 11.1661C1.1382 10.9555 1.02834 10.6922 1.01916 10.376C1.00921 10.0606 1.11906 9.78806 1.34873 9.55839C1.55926 9.34786 1.82261 9.23762 2.13878 9.22767C2.45419 9.21848 2.72673 9.31915 2.9564 9.52968L3.73152 10.3048C3.84635 10.4196 3.97573 10.5058 4.11966 10.5632C4.26282 10.6206 4.41095 10.6493 4.56406 10.6493H5.99948V6.77368L5.3966 7.23301C5.12866 7.4244 4.84655 7.49598 4.55028 7.44775C4.25325 7.40029 4.00903 7.24258 3.81765 6.97464C3.62626 6.7067 3.5497 6.4242 3.58798 6.12717C3.62626 5.8309 3.77937 5.58707 4.04731 5.39568L11.0521 0.22818C11.1478 0.151624 11.2581 0.0988011 11.3829 0.0697099C11.5069 0.0413844 11.6263 0.0272217 11.7411 0.0272217C11.856 0.0272217 11.9754 0.0413844 12.0994 0.0697099C12.2242 0.0988011 12.3344 0.151624 12.4301 0.22818L19.435 5.39568C19.7029 5.58707 19.861 5.8309 19.9092 6.12717C19.9567 6.4242 19.8847 6.7067 19.6934 6.97464C19.502 7.24258 19.2486 7.40029 18.9332 7.44775C18.617 7.49598 18.3249 7.4244 18.057 7.23301L17.4828 6.80239V10.6493H18.9182C19.0713 10.6493 19.2195 10.6206 19.3626 10.5632C19.5066 10.5058 19.6359 10.4196 19.7508 10.3048L20.5259 9.52968C20.7364 9.31915 20.9994 9.21389 21.3148 9.21389C21.631 9.21389 21.9039 9.32872 22.1336 9.55839C22.3441 9.76892 22.4494 10.0369 22.4494 10.3622C22.4494 10.6876 22.3441 10.9555 22.1336 11.1661L21.3584 11.9412C21.0331 12.2665 20.6599 12.5153 20.2388 12.6876C19.8178 12.8598 19.3776 12.946 18.9182 12.946H4.56406ZM8.29615 10.6493H10.5928V8.35264H12.8895V10.6493H15.1861V5.1086L11.7411 2.58226L8.29615 5.1086V10.6493ZM8.29615 10.6493H15.1861H8.29615Z" fill="#6D6D6D" fill-opacity="0.92"/>
</svg>
