<svg width="16" height="16" viewBox="0 0 16 16" fill="none" xmlns="http://www.w3.org/2000/svg">
<path d="M12.3136 11.2199L12.5736 13.3266C12.6402 13.8799 12.0469 14.2666 11.5736 13.9799L8.78022 12.3199C8.47356 12.3199 8.17356 12.2999 7.88023 12.2599C8.37356 11.6799 8.66689 10.9466 8.66689 10.1532C8.66689 8.25991 7.02689 6.7266 5.00022 6.7266C4.22689 6.7266 3.51356 6.94659 2.92023 7.33325C2.90023 7.16659 2.89355 6.99991 2.89355 6.82658C2.89355 3.79325 5.52689 1.33325 8.78022 1.33325C12.0336 1.33325 14.6669 3.79325 14.6669 6.82658C14.6669 8.62658 13.7402 10.2199 12.3136 11.2199Z" stroke="white" stroke-linecap="round" stroke-linejoin="round"/>
<path d="M8.66732 10.1533C8.66732 10.9467 8.37399 11.68 7.88066 12.26C7.22066 13.06 6.17398 13.5733 5.00065 13.5733L3.26065 14.6066C2.96732 14.7866 2.59398 14.54 2.63398 14.2L2.80065 12.8867C1.90732 12.2667 1.33398 11.2733 1.33398 10.1533C1.33398 8.97999 1.96065 7.94667 2.92065 7.33333C3.51399 6.94667 4.22732 6.72668 5.00065 6.72668C7.02732 6.72668 8.66732 8.25999 8.66732 10.1533Z" stroke="white" stroke-linecap="round" stroke-linejoin="round"/>
</svg>
