<svg width="23" height="24" viewBox="0 0 23 24" fill="none" xmlns="http://www.w3.org/2000/svg">
<g clip-path="url(#clip0_371_5748)">
<path d="M21.269 18.6374H20.2255V10.942C20.225 10.6993 20.1736 10.4595 20.0748 10.2378C19.9759 10.0162 19.8318 9.81769 19.6517 9.6551L12.6954 3.33361C12.3762 3.04092 11.9589 2.87854 11.5259 2.87854C11.0928 2.87854 10.6755 3.04092 10.3564 3.33361L3.40012 9.6551C3.22279 9.81946 3.08113 10.0185 2.9839 10.2399C2.88668 10.4612 2.83597 10.7002 2.83492 10.942V18.6374H1.79148C1.51475 18.6374 1.24935 18.7473 1.05366 18.943C0.85798 19.1387 0.748047 19.4041 0.748047 19.6808C0.748047 19.9575 0.85798 20.2229 1.05366 20.4186C1.24935 20.6143 1.51475 20.7242 1.79148 20.7242H21.269C21.5457 20.7242 21.8111 20.6143 22.0068 20.4186C22.2025 20.2229 22.3124 19.9575 22.3124 19.6808C22.3124 19.4041 22.2025 19.1387 22.0068 18.943C21.8111 18.7473 21.5457 18.6374 21.269 18.6374ZM4.9218 11.0985L11.5302 5.09006L18.1387 11.0985V18.6374H14.6605V14.8114C14.6583 14.3509 14.4743 13.9099 14.1487 13.5842C13.823 13.2586 13.382 13.0746 12.9215 13.0724H10.139C9.67846 13.0746 9.23745 13.2586 8.91181 13.5842C8.58616 13.9099 8.40221 14.3509 8.39992 14.8114V18.6374H4.9218V11.0985ZM12.5737 18.6374H10.4868V15.1592H12.5737V18.6374Z" fill="#6D6D6D" fill-opacity="0.92"/>
</g>
<defs>
<clipPath id="clip0_371_5748">
<rect width="22.26" height="22.26" fill="white" transform="translate(0.400391 0.899658)"/>
</clipPath>
</defs>
</svg>
