<svg width="27" height="26" viewBox="0 0 27 26" fill="none" xmlns="http://www.w3.org/2000/svg">
<path d="M7.03849 22.9667H11.6318C11.6318 24.2298 10.5983 25.2633 9.33516 25.2633C8.07199 25.2633 7.03849 24.2298 7.03849 22.9667ZM4.74182 21.8183H13.9285V19.5217H4.74182V21.8183ZM17.9477 10.9092C17.9477 15.2958 14.8931 17.6384 13.6184 18.3733H5.05187C3.77722 17.6384 0.722656 15.2958 0.722656 10.9092C0.722656 6.15507 4.58106 2.29667 9.33516 2.29667C14.0893 2.29667 17.9477 6.15507 17.9477 10.9092ZM15.651 10.9092C15.651 7.42972 12.8146 4.59333 9.33516 4.59333C5.85571 4.59333 3.01932 7.42972 3.01932 10.9092C3.01932 13.7456 4.73034 15.3762 5.71791 16.0767H12.9524C13.94 15.3762 15.651 13.7456 15.651 10.9092ZM23.54 8.46322L21.9668 9.18667L23.54 9.91012L24.2635 11.4833L24.9869 9.91012L26.5602 9.18667L24.9869 8.46322L24.2635 6.89L23.54 8.46322ZM20.8185 6.89L21.8979 4.52443L24.2635 3.445L21.8979 2.36557L20.8185 0L19.7391 2.36557L17.3735 3.445L19.7391 4.52443L20.8185 6.89Z" fill="#787878"/>
</svg>
