<svg width="14" height="14" viewBox="0 0 14 14" fill="none" xmlns="http://www.w3.org/2000/svg">
<path d="M5.66634 2.33333H8.33301C8.33301 1.97971 8.19253 1.64057 7.94248 1.39052C7.69243 1.14048 7.3533 1 6.99967 1C6.64605 1 6.30691 1.14048 6.05687 1.39052C5.80682 1.64057 5.66634 1.97971 5.66634 2.33333ZM4.66634 2.33333C4.66634 2.02692 4.72669 1.7235 4.84396 1.44041C4.96122 1.15731 5.13309 0.900088 5.34976 0.683418C5.56643 0.466748 5.82365 0.294875 6.10675 0.177614C6.38984 0.0603535 6.69326 0 6.99967 0C7.30609 0 7.60951 0.0603535 7.8926 0.177614C8.17569 0.294875 8.43292 0.466748 8.64959 0.683418C8.86626 0.900088 9.03813 1.15731 9.15539 1.44041C9.27265 1.7235 9.33301 2.02692 9.33301 2.33333H13.1663C13.2989 2.33333 13.4261 2.38601 13.5199 2.47978C13.6137 2.57355 13.6663 2.70073 13.6663 2.83333C13.6663 2.96594 13.6137 3.09312 13.5199 3.18689C13.4261 3.28065 13.2989 3.33333 13.1663 3.33333H12.2863L11.5063 11.4073C11.4465 12.026 11.1584 12.6002 10.6981 13.0179C10.2379 13.4356 9.63855 13.6669 9.01701 13.6667H4.98234C4.36092 13.6667 3.76174 13.4354 3.30164 13.0177C2.84154 12.6 2.5535 12.0259 2.49367 11.4073L1.71301 3.33333H0.833008C0.7004 3.33333 0.573223 3.28065 0.479454 3.18689C0.385686 3.09312 0.333008 2.96594 0.333008 2.83333C0.333008 2.70073 0.385686 2.57355 0.479454 2.47978C0.573223 2.38601 0.7004 2.33333 0.833008 2.33333H4.66634ZM5.99967 5.5C5.99967 5.36739 5.947 5.24022 5.85323 5.14645C5.75946 5.05268 5.63228 5 5.49967 5C5.36707 5 5.23989 5.05268 5.14612 5.14645C5.05235 5.24022 4.99967 5.36739 4.99967 5.5V10.5C4.99967 10.6326 5.05235 10.7598 5.14612 10.8536C5.23989 10.9473 5.36707 11 5.49967 11C5.63228 11 5.75946 10.9473 5.85323 10.8536C5.947 10.7598 5.99967 10.6326 5.99967 10.5V5.5ZM8.49967 5C8.63228 5 8.75946 5.05268 8.85323 5.14645C8.94699 5.24022 8.99967 5.36739 8.99967 5.5V10.5C8.99967 10.6326 8.94699 10.7598 8.85323 10.8536C8.75946 10.9473 8.63228 11 8.49967 11C8.36707 11 8.23989 10.9473 8.14612 10.8536C8.05235 10.7598 7.99967 10.6326 7.99967 10.5V5.5C7.99967 5.36739 8.05235 5.24022 8.14612 5.14645C8.23989 5.05268 8.36707 5 8.49967 5ZM3.48901 11.3113C3.52497 11.6824 3.69784 12.0268 3.97392 12.2774C4.25 12.528 4.60951 12.6667 4.98234 12.6667H9.01701C9.38984 12.6667 9.74935 12.528 10.0254 12.2774C10.3015 12.0268 10.4744 11.6824 10.5103 11.3113L11.2823 3.33333H2.71701L3.48901 11.3113Z" fill="white"/>
</svg>
