<svg width="24" height="24" viewBox="0 0 24 24" fill="none" xmlns="http://www.w3.org/2000/svg">
<path d="M6.83902 13.8694C7.21124 13.8694 7.56821 13.7215 7.8314 13.4583C8.0946 13.1951 8.24246 12.8382 8.24246 12.4659C8.24246 12.0937 8.0946 11.7368 7.8314 11.4736C7.56821 11.2104 7.21124 11.0625 6.83902 11.0625C6.46681 11.0625 6.10984 11.2104 5.84664 11.4736C5.58345 11.7368 5.43559 12.0937 5.43559 12.4659C5.43559 12.8382 5.58345 13.1951 5.84664 13.4583C6.10984 13.7215 6.46681 13.8694 6.83902 13.8694ZM8.2434 17.1544C8.2434 17.5266 8.09554 17.8836 7.83234 18.1468C7.56915 18.41 7.21218 18.5578 6.83996 18.5578C6.46775 18.5578 6.11078 18.41 5.84758 18.1468C5.58439 17.8836 5.43652 17.5266 5.43652 17.1544C5.43652 16.7822 5.58439 16.4252 5.84758 16.162C6.11078 15.8988 6.46775 15.7509 6.83996 15.7509C7.21218 15.7509 7.56915 15.8988 7.83234 16.162C8.09554 16.4252 8.2434 16.7822 8.2434 17.1544ZM11.999 13.8675C12.371 13.8675 12.7277 13.7197 12.9907 13.4567C13.2538 13.1937 13.4015 12.837 13.4015 12.465C13.4015 12.093 13.2538 11.7363 12.9907 11.4733C12.7277 11.2103 12.371 11.0625 11.999 11.0625C11.6268 11.0625 11.2698 11.2104 11.0066 11.4736C10.7434 11.7368 10.5956 12.0937 10.5956 12.4659C10.5956 12.8382 10.7434 13.1951 11.0066 13.4583C11.2698 13.7215 11.6268 13.8694 11.999 13.8694V13.8675ZM13.4034 17.1525C13.4034 17.5247 13.2555 17.8817 12.9923 18.1449C12.7291 18.4081 12.3722 18.5559 12 18.5559C11.6277 18.5559 11.2708 18.4081 11.0076 18.1449C10.7444 17.8817 10.5965 17.5247 10.5965 17.1525C10.5965 16.7803 10.7444 16.4233 11.0076 16.1601C11.2708 15.8969 11.6277 15.7491 12 15.7491C12.3722 15.7491 12.7291 15.8969 12.9923 16.1601C13.2555 16.4233 13.4034 16.7803 13.4034 17.1525ZM17.1534 13.8675C17.5256 13.8675 17.8826 13.7196 18.1458 13.4564C18.409 13.1932 18.5568 12.8363 18.5568 12.4641C18.5568 12.0918 18.409 11.7349 18.1458 11.4717C17.8826 11.2085 17.5256 11.0606 17.1534 11.0606C16.7812 11.0606 16.4242 11.2085 16.161 11.4717C15.8978 11.7349 15.75 12.0918 15.75 12.4641C15.75 12.8363 15.8978 13.1932 16.161 13.4564C16.4242 13.7196 16.7812 13.8675 17.1534 13.8675ZM23.249 5.4375C23.249 4.1943 22.7552 3.00201 21.8761 2.12294C20.997 1.24386 19.8047 0.75 18.5615 0.75H5.43652C4.19332 0.75 3.00104 1.24386 2.12196 2.12294C1.24288 3.00201 0.749023 4.1943 0.749023 5.4375V18.5625C0.749023 19.8057 1.24288 20.998 2.12196 21.8771C3.00104 22.7561 4.19332 23.25 5.43652 23.25H18.5615C19.8047 23.25 20.997 22.7561 21.8761 21.8771C22.7552 20.998 23.249 19.8057 23.249 18.5625V5.4375ZM2.62402 8.25H21.374V18.5625C21.374 19.3084 21.0777 20.0238 20.5503 20.5512C20.0228 21.0787 19.3074 21.375 18.5615 21.375H5.43652C4.6906 21.375 3.97523 21.0787 3.44779 20.5512C2.92034 20.0238 2.62402 19.3084 2.62402 18.5625V8.25ZM5.43652 2.625H18.5615C19.3074 2.625 20.0228 2.92132 20.5503 3.44876C21.0777 3.97621 21.374 4.69158 21.374 5.4375V6.375H2.62402V5.4375C2.62402 4.69158 2.92034 3.97621 3.44779 3.44876C3.97523 2.92132 4.6906 2.625 5.43652 2.625Z" fill="#959595"/>
</svg>
