<svg width="26" height="26" viewBox="0 0 26 26" fill="none" xmlns="http://www.w3.org/2000/svg">
<path d="M13 0.5C19.9037 0.5 25.5 6.0975 25.5 13C25.5 19.9025 19.9037 25.5 13 25.5C6.09625 25.5 0.5 19.9025 0.5 13C0.5 6.0975 6.09625 0.5 13 0.5ZM13 2.58375C7.25625 2.58375 2.58375 7.25625 2.58375 13C2.58375 18.7437 7.25625 23.4163 13 23.4163C18.7437 23.4163 23.4163 18.7437 23.4163 13C23.4163 7.25625 18.7437 2.58375 13 2.58375ZM12.0625 5.5C12.289 5.50001 12.5079 5.58205 12.6787 5.73096C12.8494 5.87986 12.9604 6.08556 12.9913 6.31L13 6.4375V13H17.0625C17.3 13.0001 17.5287 13.0903 17.7022 13.2525C17.8758 13.4146 17.9813 13.6366 17.9975 13.8736C18.0137 14.1106 17.9394 14.3449 17.7895 14.5291C17.6396 14.7134 17.4253 14.8339 17.19 14.8663L17.0625 14.875H12.0625C11.836 14.875 11.6171 14.7929 11.4463 14.644C11.2756 14.4951 11.1646 14.2894 11.1337 14.065L11.125 13.9375V6.4375C11.125 6.18886 11.2238 5.9504 11.3996 5.77459C11.5754 5.59877 11.8139 5.5 12.0625 5.5Z" fill="#939393" stroke="#939393" stroke-width="0.5"/>
</svg>
