<svg width="30" height="30" viewBox="0 0 30 30" fill="none" xmlns="http://www.w3.org/2000/svg">
<path d="M4.4437 16.1918L4.33039 16.35H4.525H16.725H16.9196L16.8063 16.1918C16.096 15.1999 14.9902 14.5622 13.8479 14.1725C12.7049 13.7826 11.5156 13.6375 10.625 13.6375C9.73437 13.6375 8.54515 13.7826 7.40209 14.1725C6.2598 14.5622 5.15402 15.1999 4.4437 16.1918ZM22.4 6.25V6.35H22.5H28.6395L26.5882 26.9004C26.5882 26.9008 26.5881 26.9011 26.5881 26.9015C26.4684 27.8786 25.6463 28.65 24.65 28.65H22.6V26.35H24.2375H24.328L24.337 26.26L26.087 8.75995L26.098 8.65H25.9875H14.1267L13.8622 6.35H20H20.1V6.25V1.35H22.4V6.25ZM2.5125 28.6375C1.86773 28.6375 1.35 28.1198 1.35 27.475V26.35H19.9125V27.475C19.9125 28.1198 19.3948 28.6375 18.75 28.6375H2.5125ZM1.35064 18.65C1.38141 16.2358 2.52677 14.4199 4.23774 13.2002C5.97518 11.9616 8.29743 11.3375 10.625 11.3375C12.9526 11.3375 15.2748 11.9616 17.0123 13.2002C18.7232 14.4199 19.8686 16.2358 19.8994 18.65H1.35064ZM19.9 21.35V23.65H1.35V21.35H19.9Z" fill="#939393" stroke="#EEEEEE" stroke-width="0.2"/>
</svg>
