<svg width="54" height="196" viewBox="0 0 54 196" fill="none" xmlns="http://www.w3.org/2000/svg">
<path fill-rule="evenodd" clip-rule="evenodd" d="M2.07692 83.0758C3.22397 83.0758 4.15384 84.0057 4.15384 85.1527C4.15384 86.2998 3.22397 87.2296 2.07692 87.2296C0.929869 87.2296 0 86.2998 0 85.1527C0 84.0057 0.929869 83.0758 2.07692 83.0758ZM20.7692 85.154C20.7692 84.0069 19.8393 83.0771 18.6923 83.0771C17.5452 83.0771 16.6154 84.0069 16.6154 85.154C16.6154 86.301 17.5452 87.2309 18.6923 87.2309C19.8393 87.2309 20.7692 86.301 20.7692 85.154ZM20.7692 68.539C20.7692 67.3919 19.8394 66.462 18.6923 66.462C17.5453 66.462 16.6154 67.3919 16.6154 68.539C16.6154 69.686 17.5453 70.6159 18.6923 70.6159C19.8394 70.6159 20.7692 69.686 20.7692 68.539ZM18.6923 49.8468C19.8394 49.8468 20.7692 50.7767 20.7692 51.9237C20.7692 53.0708 19.8394 54.0007 18.6923 54.0007C17.5453 54.0007 16.6154 53.0708 16.6154 51.9237C16.6154 50.7767 17.5453 49.8468 18.6923 49.8468ZM20.7692 35.3085C20.7692 34.1615 19.8394 33.2316 18.6923 33.2316C17.5453 33.2316 16.6154 34.1615 16.6154 35.3085C16.6154 36.4556 17.5453 37.3854 18.6923 37.3854C19.8394 37.3854 20.7692 36.4556 20.7692 35.3085ZM18.6923 16.6164C19.8394 16.6164 20.7692 17.5462 20.7692 18.6933C20.7692 19.8403 19.8394 20.7702 18.6923 20.7702C17.5453 20.7702 16.6154 19.8403 16.6154 18.6933C16.6154 17.5462 17.5453 16.6164 18.6923 16.6164ZM20.7692 2.07808C20.7692 0.93103 19.8394 0.00115967 18.6923 0.00115967C17.5453 0.00115967 16.6154 0.93103 16.6154 2.07808C16.6154 3.22513 17.5453 4.155 18.6923 4.155C19.8394 4.155 20.7692 3.22513 20.7692 2.07808ZM4.15384 68.5375C4.15384 67.3905 3.22397 66.4606 2.07692 66.4606C0.929869 66.4606 0 67.3905 0 68.5375C0 69.6846 0.929869 70.6144 2.07692 70.6144C3.22397 70.6144 4.15384 69.6846 4.15384 68.5375ZM2.07692 49.8454C3.22397 49.8454 4.15384 50.7753 4.15384 51.9223C4.15384 53.0694 3.22397 53.9992 2.07692 53.9992C0.929869 53.9992 0 53.0694 0 51.9223C0 50.7753 0.929869 49.8454 2.07692 49.8454ZM4.15384 35.3071C4.15384 34.16 3.22397 33.2302 2.07692 33.2302C0.929869 33.2302 0 34.16 0 35.3071C0 36.4541 0.929869 37.384 2.07692 37.384C3.22397 37.384 4.15384 36.4541 4.15384 35.3071ZM2.07692 16.6149C3.22397 16.6149 4.15384 17.5448 4.15384 18.6919C4.15384 19.8389 3.22397 20.7688 2.07692 20.7688C0.929869 20.7688 0 19.8389 0 18.6919C0 17.5448 0.929869 16.6149 2.07692 16.6149ZM4.15384 2.07664C4.15384 0.929596 3.22397 -0.000274658 2.07692 -0.000274658C0.929869 -0.000274658 0 0.929596 0 2.07664C0 3.22369 0.929869 4.15356 2.07692 4.15356C3.22397 4.15356 4.15384 3.22369 4.15384 2.07664ZM20.7692 193.155C20.7692 192.007 19.8394 191.078 18.6923 191.078C17.5453 191.078 16.6154 192.007 16.6154 193.155C16.6154 194.302 17.5453 195.231 18.6923 195.231C19.8394 195.231 20.7692 194.302 20.7692 193.155ZM20.7692 176.539C20.7692 175.392 19.8394 174.462 18.6923 174.462C17.5453 174.462 16.6154 175.392 16.6154 176.539C16.6154 177.686 17.5453 178.616 18.6923 178.616C19.8394 178.616 20.7692 177.686 20.7692 176.539ZM18.6923 157.847C19.8394 157.847 20.7692 158.777 20.7692 159.924C20.7692 161.071 19.8394 162.001 18.6923 162.001C17.5453 162.001 16.6154 161.071 16.6154 159.924C16.6154 158.777 17.5453 157.847 18.6923 157.847ZM20.7692 143.309C20.7692 142.162 19.8394 141.232 18.6923 141.232C17.5453 141.232 16.6154 142.162 16.6154 143.309C16.6154 144.456 17.5453 145.386 18.6923 145.386C19.8394 145.386 20.7692 144.456 20.7692 143.309ZM18.6923 124.617C19.8394 124.617 20.7692 125.547 20.7692 126.694C20.7692 127.841 19.8394 128.771 18.6923 128.771C17.5453 128.771 16.6154 127.841 16.6154 126.694C16.6154 125.547 17.5453 124.617 18.6923 124.617ZM20.7692 110.078C20.7692 108.931 19.8394 108.001 18.6923 108.001C17.5453 108.001 16.6154 108.931 16.6154 110.078C16.6154 111.225 17.5453 112.155 18.6923 112.155C19.8394 112.155 20.7692 111.225 20.7692 110.078ZM4.15384 193.152C4.15384 192.005 3.22397 191.075 2.07692 191.075C0.929869 191.075 0 192.005 0 193.152C0 194.299 0.929869 195.229 2.07692 195.229C3.22397 195.229 4.15384 194.299 4.15384 193.152ZM35.3077 182.769C36.4548 182.769 37.3846 183.699 37.3846 184.846C37.3846 185.993 36.4548 186.923 35.3077 186.923C34.1607 186.923 33.2308 185.993 33.2308 184.846C33.2308 183.699 34.1607 182.769 35.3077 182.769ZM54.0001 184.847C54.0001 183.7 53.0702 182.77 51.9231 182.77C50.7761 182.77 49.8462 183.7 49.8462 184.847C49.8462 185.994 50.7761 186.924 51.9231 186.924C53.0702 186.924 54.0001 185.994 54.0001 184.847ZM54.0001 168.232C54.0001 167.085 53.0702 166.155 51.9231 166.155C50.7761 166.155 49.8462 167.085 49.8462 168.232C49.8462 169.379 50.7761 170.309 51.9231 170.309C53.0702 170.309 54.0001 169.379 54.0001 168.232ZM51.9231 149.54C53.0702 149.54 54.0001 150.47 54.0001 151.617C54.0001 152.764 53.0702 153.694 51.9231 153.694C50.7761 153.694 49.8462 152.764 49.8462 151.617C49.8462 150.47 50.7761 149.54 51.9231 149.54ZM54.0001 135.001C54.0001 133.854 53.0702 132.925 51.9231 132.925C50.7761 132.925 49.8462 133.854 49.8462 135.001C49.8462 136.148 50.7761 137.078 51.9231 137.078C53.0702 137.078 54.0001 136.148 54.0001 135.001ZM51.9231 116.309C53.0702 116.309 54.0001 117.239 54.0001 118.386C54.0001 119.533 53.0702 120.463 51.9231 120.463C50.7761 120.463 49.8462 119.533 49.8462 118.386C49.8462 117.239 50.7761 116.309 51.9231 116.309ZM54.0001 101.771C54.0001 100.624 53.0702 99.6941 51.9231 99.6941C50.7761 99.6941 49.8462 100.624 49.8462 101.771C49.8462 102.918 50.7761 103.848 51.9231 103.848C53.0702 103.848 54.0001 102.918 54.0001 101.771ZM37.3846 168.227C37.3846 167.08 36.4548 166.15 35.3077 166.15C34.1607 166.15 33.2308 167.08 33.2308 168.227C33.2308 169.374 34.1607 170.304 35.3077 170.304C36.4548 170.304 37.3846 169.374 37.3846 168.227ZM35.3077 149.535C36.4548 149.535 37.3846 150.465 37.3846 151.612C37.3846 152.759 36.4548 153.689 35.3077 153.689C34.1607 153.689 33.2308 152.759 33.2308 151.612C33.2308 150.465 34.1607 149.535 35.3077 149.535ZM37.3846 134.997C37.3846 133.85 36.4548 132.92 35.3077 132.92C34.1607 132.92 33.2308 133.85 33.2308 134.997C33.2308 136.144 34.1607 137.074 35.3077 137.074C36.4548 137.074 37.3846 136.144 37.3846 134.997ZM35.3077 116.306C36.4548 116.306 37.3846 117.236 37.3846 118.383C37.3846 119.53 36.4548 120.46 35.3077 120.46C34.1607 120.46 33.2308 119.53 33.2308 118.383C33.2308 117.236 34.1607 116.306 35.3077 116.306ZM37.3846 101.766C37.3846 100.619 36.4548 99.6895 35.3077 99.6895C34.1607 99.6895 33.2308 100.619 33.2308 101.766C33.2308 102.913 34.1607 103.843 35.3077 103.843C36.4548 103.843 37.3846 102.913 37.3846 101.766ZM4.15384 176.534C4.15384 175.387 3.22397 174.457 2.07692 174.457C0.929869 174.457 0 175.387 0 176.534C0 177.681 0.929869 178.611 2.07692 178.611C3.22397 178.611 4.15384 177.681 4.15384 176.534ZM35.3077 83.0758C36.4547 83.0758 37.3846 84.0057 37.3846 85.1527C37.3846 86.2998 36.4547 87.2296 35.3077 87.2296C34.1606 87.2296 33.2308 86.2998 33.2308 85.1527C33.2308 84.0057 34.1606 83.0758 35.3077 83.0758ZM54 85.154C54 84.0069 53.0701 83.0771 51.9231 83.0771C50.776 83.0771 49.8462 84.0069 49.8462 85.154C49.8462 86.301 50.776 87.2309 51.9231 87.2309C53.0701 87.2309 54 86.301 54 85.154ZM54.0001 68.539C54.0001 67.3919 53.0702 66.462 51.9231 66.462C50.7761 66.462 49.8462 67.3919 49.8462 68.539C49.8462 69.686 50.7761 70.6159 51.9231 70.6159C53.0702 70.6159 54.0001 69.686 54.0001 68.539ZM51.9231 49.8468C53.0702 49.8468 54.0001 50.7767 54.0001 51.9237C54.0001 53.0708 53.0702 54.0007 51.9231 54.0007C50.7761 54.0007 49.8462 53.0708 49.8462 51.9237C49.8462 50.7767 50.7761 49.8468 51.9231 49.8468ZM54.0001 35.3085C54.0001 34.1615 53.0702 33.2316 51.9231 33.2316C50.7761 33.2316 49.8462 34.1615 49.8462 35.3085C49.8462 36.4556 50.7761 37.3854 51.9231 37.3854C53.0702 37.3854 54.0001 36.4556 54.0001 35.3085ZM51.9231 16.6164C53.0702 16.6164 54.0001 17.5462 54.0001 18.6933C54.0001 19.8403 53.0702 20.7702 51.9231 20.7702C50.7761 20.7702 49.8462 19.8403 49.8462 18.6933C49.8462 17.5462 50.7761 16.6164 51.9231 16.6164ZM54.0001 2.07808C54.0001 0.93103 53.0702 0.00115967 51.9231 0.00115967C50.7761 0.00115967 49.8462 0.93103 49.8462 2.07808C49.8462 3.22513 50.7761 4.155 51.9231 4.155C53.0702 4.155 54.0001 3.22513 54.0001 2.07808ZM37.3846 68.5375C37.3846 67.3905 36.4548 66.4606 35.3077 66.4606C34.1607 66.4606 33.2308 67.3905 33.2308 68.5375C33.2308 69.6846 34.1607 70.6144 35.3077 70.6144C36.4548 70.6144 37.3846 69.6846 37.3846 68.5375ZM35.3077 49.8454C36.4548 49.8454 37.3846 50.7753 37.3846 51.9223C37.3846 53.0694 36.4548 53.9992 35.3077 53.9992C34.1607 53.9992 33.2308 53.0694 33.2308 51.9223C33.2308 50.7753 34.1607 49.8454 35.3077 49.8454ZM37.3846 35.3071C37.3846 34.16 36.4548 33.2302 35.3077 33.2302C34.1607 33.2302 33.2308 34.16 33.2308 35.3071C33.2308 36.4541 34.1607 37.384 35.3077 37.384C36.4548 37.384 37.3846 36.4541 37.3846 35.3071ZM35.3077 16.6149C36.4548 16.6149 37.3846 17.5448 37.3846 18.6919C37.3846 19.8389 36.4548 20.7688 35.3077 20.7688C34.1607 20.7688 33.2308 19.8389 33.2308 18.6919C33.2308 17.5448 34.1607 16.6149 35.3077 16.6149ZM37.3846 2.07664C37.3846 0.929596 36.4548 -0.000274658 35.3077 -0.000274658C34.1607 -0.000274658 33.2308 0.929596 33.2308 2.07664C33.2308 3.22369 34.1607 4.15356 35.3077 4.15356C36.4548 4.15356 37.3846 3.22369 37.3846 2.07664ZM4.15384 159.919C4.15384 158.772 3.22397 157.842 2.07692 157.842C0.929869 157.842 0 158.772 0 159.919C0 161.066 0.929869 161.996 2.07692 161.996C3.22397 161.996 4.15384 161.066 4.15384 159.919ZM2.07692 141.227C3.22397 141.227 4.15384 142.157 4.15384 143.304C4.15384 144.451 3.22397 145.38 2.07692 145.38C0.929869 145.38 0 144.451 0 143.304C0 142.157 0.929869 141.227 2.07692 141.227ZM4.15384 126.688C4.15384 125.541 3.22397 124.611 2.07692 124.611C0.929869 124.611 0 125.541 0 126.688C0 127.835 0.929869 128.765 2.07692 128.765C3.22397 128.765 4.15384 127.835 4.15384 126.688ZM2.07692 107.996C3.22397 107.996 4.15384 108.926 4.15384 110.073C4.15384 111.22 3.22397 112.15 2.07692 112.15C0.929869 112.15 0 111.22 0 110.073C0 108.926 0.929869 107.996 2.07692 107.996Z" fill="#E8604C"/>
</svg>
