<svg width="30" height="30" viewBox="0 0 30 30" fill="none" xmlns="http://www.w3.org/2000/svg">
<path d="M6.25 10.75C6.25 9.64543 7.14543 8.75 8.25 8.75H21.75C22.8546 8.75 23.75 9.64543 23.75 10.75V23.25C23.75 24.9069 22.4069 26.25 20.75 26.25H9.25C7.59315 26.25 6.25 24.9069 6.25 23.25V10.75Z" stroke="#939393" stroke-width="2" stroke-linecap="round" stroke-linejoin="round"/>
<path d="M18.75 8.75V6.75C18.75 5.09315 17.4069 3.75 15.75 3.75H14.25C12.5931 3.75 11.25 5.09315 11.25 6.75V8.75" stroke="#939393" stroke-width="2" stroke-linecap="round" stroke-linejoin="round"/>
<path d="M11.25 13.75L11.25 15.75C11.25 17.4069 12.5931 18.75 14.25 18.75L15.75 18.75C17.4069 18.75 18.75 17.4069 18.75 15.75L18.75 13.75" stroke="#939393" stroke-width="2" stroke-linecap="round" stroke-linejoin="round"/>
</svg>
