<svg width="29" height="26" viewBox="0 0 29 26" fill="none" xmlns="http://www.w3.org/2000/svg">
<path d="M21.8199 9.11882L21.8197 9.11863C21.5837 8.88258 21.2635 8.74996 20.9297 8.74996C20.5959 8.74996 20.2757 8.88258 20.0397 9.11863C19.8036 9.35468 19.671 9.67483 19.671 10.0087C19.671 10.3423 19.8035 10.6623 20.0393 10.8983C20.0394 10.8984 20.0395 10.8985 20.0397 10.8987L19.9336 11.0047C20.1526 11.2206 20.3264 11.4779 20.4451 11.7615C20.5638 12.0452 20.6249 12.3496 20.6249 12.6571C20.6249 12.9646 20.5638 13.269 20.4451 13.5527C20.3264 13.8363 20.1526 14.0936 19.9336 14.3094L21.8199 9.11882ZM21.8199 9.11882C22.2857 9.58285 22.6552 10.1343 22.9074 10.7415C23.1596 11.3486 23.2894 11.9996 23.2894 12.6571C23.2894 13.3146 23.1596 13.9655 22.9074 14.5727C22.6552 15.1799 22.2857 15.7313 21.8199 16.1954L21.8184 16.1969C21.7033 16.3149 21.5654 16.4081 21.413 16.4709C21.2606 16.5336 21.097 16.5646 20.9322 16.5618V16.5617L20.9283 16.5618C20.7633 16.5633 20.5997 16.5318 20.4472 16.469C20.2946 16.4062 20.1562 16.3134 20.0402 16.1961L20.0395 16.1954C19.9224 16.0787 19.8294 15.94 19.766 15.7873C19.7026 15.6346 19.67 15.4709 19.67 15.3055C19.67 15.1402 19.7026 14.9765 19.766 14.8238C19.8294 14.6712 19.9222 14.5326 20.0393 14.4159L21.8199 9.11882ZM27.2427 16.3691C26.7555 17.5456 26.0396 18.6137 25.1366 19.5115C24.8993 19.7456 24.5794 19.8768 24.2461 19.8768C23.9129 19.8768 23.593 19.7456 23.3558 19.5117C23.2387 19.395 23.1458 19.2563 23.0824 19.1037C23.019 18.951 22.9864 18.7873 22.9864 18.6219C22.9864 18.4566 23.019 18.2929 23.0824 18.1402C23.1458 17.9875 23.2388 17.8488 23.3559 17.7321L23.356 17.732C24.0233 17.0661 24.5527 16.275 24.914 15.4042C25.2752 14.5334 25.4612 13.5999 25.4612 12.6571C25.4612 11.7143 25.2752 10.7808 24.914 9.90996C24.5527 9.03914 24.0233 8.24811 23.356 7.58216C23.12 7.34612 22.9874 7.02602 22.9874 6.69225C22.9874 6.35842 23.12 6.03827 23.3561 5.80222C23.5921 5.56617 23.9123 5.43356 24.2461 5.43356C24.5799 5.43356 24.9001 5.56617 25.1361 5.80222L25.1364 5.80253C26.0395 6.70036 26.7555 7.76851 27.2427 8.94506C27.73 10.1216 27.9789 11.3832 27.975 12.6566L27.975 12.6575C27.9789 13.931 27.73 15.1926 27.2427 16.3691ZM17.6625 1.40667V1.40709L17.6625 23.9071L17.6625 23.9075C17.6632 24.1427 17.5978 24.3734 17.4738 24.5733C17.35 24.7729 17.1727 24.9337 16.9621 25.0377C16.7886 25.1199 16.5991 25.1628 16.4071 25.1633C16.1269 25.1594 15.8551 25.0676 15.6298 24.9009L7.58044 18.6325L7.5398 18.6008H7.48828L2.34449 18.6008C2.34437 18.6008 2.34424 18.6008 2.34412 18.6008C1.76313 18.5979 1.20677 18.3657 0.795938 17.9549C0.3851 17.5441 0.15298 16.9877 0.15 16.4067V8.90747C0.15298 8.32648 0.3851 7.77012 0.795938 7.35928C1.20677 6.94844 1.76313 6.71632 2.34412 6.71334H7.48828H7.5398L7.58044 6.68169L15.6302 0.412984C15.6303 0.412839 15.6305 0.412694 15.6307 0.412548C15.8184 0.269265 16.0421 0.180698 16.277 0.156653C16.5119 0.132608 16.7488 0.174024 16.9616 0.276312C17.1724 0.380211 17.3499 0.54116 17.4738 0.740874C17.5978 0.940759 17.6632 1.17144 17.6625 1.40667ZM2.6625 15.9383V16.0883H2.8125H6.5625H6.7125V15.9383V9.37584V9.22584H6.5625H2.8125H2.6625V9.37584V15.9383ZM15.15 4.27818V3.97115L14.9078 4.15986L9.28281 8.54267L9.225 8.58772V8.661V16.6532V16.7265L9.28281 16.7715L14.9078 21.1543L15.15 21.343V21.036V4.27818Z" fill="#939393" stroke="#EEEEEE" stroke-width="0.3"/>
</svg>
