<svg width="24" height="22" viewBox="0 0 24 22" fill="none" xmlns="http://www.w3.org/2000/svg">
<path d="M21.8534 7.66289L20.2825 2.94898C20.0546 2.26283 19.6163 1.66595 19.0298 1.24314C18.4433 0.820335 17.7385 0.593109 17.0155 0.593751H6.54496C5.82195 0.593109 5.11714 0.820335 4.53065 1.24314C3.94416 1.66595 3.50583 2.26283 3.27795 2.94898L1.70703 7.66289C1.28974 7.83799 0.93337 8.13228 0.682537 8.50894C0.431703 8.8856 0.297551 9.32788 0.296875 9.78042V15.5221C0.296875 16.3868 0.78262 17.132 1.48999 17.5236C1.47506 17.5994 1.44521 17.6683 1.44521 17.7476V20.1154C1.44521 20.42 1.56619 20.7121 1.78155 20.9274C1.9969 21.1428 2.28898 21.2638 2.59354 21.2638H3.74187C4.04643 21.2638 4.33851 21.1428 4.55387 20.9274C4.76922 20.7121 4.89021 20.42 4.89021 20.1154V17.8188H18.6702V20.1154C18.6702 20.42 18.7912 20.7121 19.0065 20.9274C19.2219 21.1428 19.514 21.2638 19.8185 21.2638H20.9669C21.2714 21.2638 21.5635 21.1428 21.7789 20.9274C21.9942 20.7121 22.1152 20.42 22.1152 20.1154V17.7476C22.1152 17.6683 22.0854 17.5983 22.0704 17.5236C22.4303 17.3274 22.7309 17.0382 22.9408 16.6861C23.1507 16.334 23.2621 15.932 23.2635 15.5221V9.78042C23.2635 8.82845 22.6802 8.01084 21.8534 7.66289ZM2.59354 15.5221V9.78042H20.9669L20.9692 15.5221H2.59354ZM6.54496 2.89042H17.0143C17.5092 2.89042 17.9479 3.20506 18.1041 3.67588L19.3741 7.48375H4.18628L5.45519 3.67588C5.53138 3.44712 5.67764 3.24815 5.87324 3.10717C6.06884 2.9662 6.30385 2.89036 6.54496 2.89042Z" fill="#6D6D6D" fill-opacity="0.92"/>
</svg>
