<svg width="321" height="71" viewBox="0 0 321 71" fill="none" xmlns="http://www.w3.org/2000/svg">
<path opacity="0.05" d="M37.5659 44.92H52.1019C51.5499 46.0853 50.8752 47.1587 50.0779 48.14C49.2805 49.1213 48.3299 49.9493 47.2259 50.624C46.1832 51.2987 44.9259 51.82 43.4539 52.188C41.9819 52.556 40.3259 52.74 38.4859 52.74C35.1739 52.74 32.2605 52.0347 29.7459 50.624C27.2925 49.2133 25.3605 47.1587 23.9499 44.46C22.6005 41.7613 21.9259 38.5413 21.9259 34.8C21.9259 30.9973 22.6619 27.8387 24.1339 25.324C25.6672 22.8093 27.6912 20.9387 30.2059 19.712C32.7205 18.424 35.4805 17.78 38.4859 17.78C41.5525 17.78 43.9752 18.5467 45.7539 20.08C47.5325 21.6133 48.9739 23.392 50.0779 25.416L68.9379 16.952C66.7912 13.9467 64.2765 11.248 61.3939 8.856C58.5725 6.40266 55.2605 4.44 51.4579 2.968C47.7165 1.496 43.3925 0.759997 38.4859 0.759997C33.0885 0.759997 28.0899 1.55733 23.4899 3.152C18.9512 4.68533 14.9645 6.924 11.5299 9.868C8.15653 12.812 5.51919 16.4 3.61786 20.632C1.71653 24.8027 0.765859 29.5253 0.765859 34.8C0.765859 40.0747 1.65519 44.8587 3.43386 49.152C5.27386 53.4453 7.81919 57.1253 11.0699 60.192C14.3819 63.2587 18.2765 65.62 22.7539 67.276C27.2312 68.932 32.1685 69.76 37.5659 69.76C43.3925 69.76 48.5445 68.748 53.0219 66.724C57.4992 64.7 61.2099 61.8787 64.1539 58.26C67.0979 54.6413 69.2139 50.44 70.5019 45.656C71.8512 40.872 72.2805 35.72 71.7899 30.2H37.5659V44.92ZM81.0718 2.6V45.84C81.0718 50.44 81.8078 54.3347 83.2798 57.524C84.8131 60.652 86.8985 63.1973 89.5358 65.16C92.1731 67.0613 95.1785 68.4413 98.5518 69.3C101.986 70.22 105.605 70.68 109.408 70.68C113.21 70.68 116.798 70.22 120.172 69.3C123.606 68.4413 126.642 67.0613 129.28 65.16C131.917 63.1973 133.972 60.652 135.444 57.524C136.977 54.3347 137.744 50.44 137.744 45.84V2.6H117.504V44C117.504 46.576 116.829 48.692 115.48 50.348C114.192 51.9427 112.168 52.74 109.408 52.74C106.648 52.74 104.593 51.9427 103.244 50.348C101.956 48.692 101.312 46.576 101.312 44V2.6H81.0718ZM164.156 67H196.632V50.9H164.156V67ZM164.156 18.7H196.632V2.6H164.156V18.7ZM164.156 41.7H194.792V26.06H164.156V41.7ZM150.172 2.6V67H169.492V2.6H150.172ZM218.507 42.528L204.891 52.464C206.363 55.7147 208.54 58.6587 211.423 61.296C214.306 63.9333 217.71 65.988 221.635 67.46C225.622 68.9933 229.915 69.76 234.515 69.76C237.827 69.76 241.047 69.3 244.175 68.38C247.303 67.46 250.094 66.1107 252.547 64.332C255.062 62.5533 257.055 60.3147 258.527 57.616C259.999 54.856 260.735 51.6973 260.735 48.14C260.735 45.6253 260.367 43.356 259.631 41.332C258.895 39.2467 257.791 37.376 256.319 35.72C254.908 34.064 253.191 32.6227 251.167 31.396C249.143 30.108 246.843 29.004 244.267 28.084C241.752 27.164 239.452 26.3667 237.367 25.692C235.282 24.956 233.595 24.1893 232.307 23.392C231.08 22.5333 230.467 21.46 230.467 20.172C230.467 19.1293 230.896 18.3627 231.755 17.872C232.675 17.3813 233.84 17.136 235.251 17.136C236.416 17.136 237.612 17.3507 238.839 17.78C240.066 18.2093 241.262 18.884 242.427 19.804C243.654 20.6627 244.758 21.8587 245.739 23.392L260.735 15.112C259.57 12.904 257.852 10.696 255.583 8.488C253.375 6.28 250.523 4.44 247.027 2.968C243.592 1.496 239.452 0.759997 234.607 0.759997C230.13 0.759997 226.02 1.496 222.279 2.968C218.538 4.44 215.532 6.61733 213.263 9.5C210.994 12.3827 209.859 15.94 209.859 20.172C209.859 23.4227 210.442 26.244 211.607 28.636C212.834 31.028 214.336 33.052 216.115 34.708C217.955 36.364 219.856 37.7133 221.819 38.756C223.843 39.7987 225.622 40.6267 227.155 41.24C230.651 42.5893 233.258 43.6627 234.975 44.46C236.692 45.2573 237.827 45.9627 238.379 46.576C238.992 47.1893 239.299 47.9253 239.299 48.784C239.299 50.1947 238.747 51.2373 237.643 51.912C236.539 52.5253 235.19 52.832 233.595 52.832C231.694 52.832 229.792 52.4333 227.891 51.636C226.051 50.8387 224.334 49.6733 222.739 48.14C221.144 46.5453 219.734 44.6747 218.507 42.528ZM263.943 20.54H282.343V67H302.583V20.54H320.983V2.6H263.943V20.54Z" fill="#2A3342"/>
</svg>
