<svg width="90" height="90" viewBox="0 0 90 90" fill="none" xmlns="http://www.w3.org/2000/svg">
<path d="M24.3744 37.5C23.5382 37.5 22.7357 37.6275 21.9369 37.7438C22.1957 36.8738 22.4619 35.9888 22.8894 35.1938C23.3169 34.0388 23.9844 33.0375 24.6482 32.0288C25.2032 30.9375 26.1819 30.1988 26.9019 29.265C27.6557 28.3575 28.6832 27.7538 29.4969 27C30.2957 26.2125 31.3419 25.8188 32.1744 25.2638C33.0444 24.765 33.8019 24.2138 34.6119 23.9513L36.6332 23.1188L38.4107 22.38L36.5919 15.1125L34.3532 15.6525C33.6369 15.8325 32.7632 16.0425 31.7694 16.2938C30.7532 16.4813 29.6694 16.995 28.4619 17.4638C27.2694 17.9963 25.8894 18.3563 24.6069 19.2113C23.3169 20.0288 21.8282 20.7113 20.5157 21.8063C19.2444 22.935 17.7107 23.9138 16.5782 25.35C15.3407 26.6925 14.1182 28.1025 13.1694 29.7075C12.0707 31.2375 11.3244 32.9175 10.5369 34.5788C9.82445 36.24 9.2507 37.9388 8.78195 39.5888C7.8932 42.8963 7.4957 46.0388 7.34195 48.7276C7.21445 51.42 7.28945 53.6588 7.44695 55.2788C7.5032 56.0438 7.6082 56.7863 7.6832 57.3L7.77695 57.93L7.87445 57.9075C8.54142 61.0232 10.0768 63.8863 12.3031 66.1657C14.5293 68.4452 17.3554 70.0478 20.4543 70.7881C23.5533 71.5285 26.7986 71.3764 29.8148 70.3494C32.8309 69.3224 35.4947 67.4625 37.498 64.9849C39.5012 62.5072 40.7621 59.513 41.1348 56.3487C41.5074 53.1843 40.9766 49.9791 39.6037 47.1039C38.2308 44.2286 36.072 41.8008 33.3769 40.1012C30.6818 38.4017 27.5607 37.4998 24.3744 37.5ZM65.6244 37.5C64.7882 37.5 63.9857 37.6275 63.1869 37.7438C63.4457 36.8738 63.7119 35.9888 64.1394 35.1938C64.5669 34.0388 65.2344 33.0375 65.8982 32.0288C66.4532 30.9375 67.4319 30.1988 68.1519 29.265C68.9057 28.3575 69.9332 27.7538 70.7469 27C71.5457 26.2125 72.5919 25.8188 73.4244 25.2638C74.2944 24.765 75.0519 24.2138 75.8619 23.9513L77.8832 23.1188L79.6607 22.38L77.8419 15.1125L75.6032 15.6525C74.8869 15.8325 74.0132 16.0425 73.0194 16.2938C72.0032 16.4813 70.9194 16.995 69.7119 17.4638C68.5232 18 67.1394 18.3563 65.8569 19.215C64.5669 20.0325 63.0782 20.715 61.7657 21.81C60.4944 22.9388 58.9607 23.9175 57.8282 25.35C56.5907 26.6925 55.3682 28.1025 54.4194 29.7075C53.3207 31.2375 52.5744 32.9175 51.7869 34.5788C51.0744 36.24 50.5007 37.9388 50.0319 39.5888C49.1432 42.8963 48.7457 46.0388 48.5919 48.7276C48.4644 51.42 48.5394 53.6588 48.6969 55.2788C48.7532 56.0438 48.8582 56.7863 48.9332 57.3L49.0269 57.93L49.1244 57.9075C49.7914 61.0232 51.3268 63.8863 53.5531 66.1657C55.7793 68.4452 58.6054 70.0478 61.7043 70.7881C64.8033 71.5285 68.0486 71.3764 71.0648 70.3494C74.0809 69.3224 76.7447 67.4625 78.748 64.9849C80.7512 62.5072 82.0121 59.513 82.3848 56.3487C82.7574 53.1843 82.2266 49.9791 80.8537 47.1039C79.4808 44.2286 77.322 41.8008 74.6269 40.1012C71.9318 38.4017 68.8106 37.4998 65.6244 37.5Z" fill="#EEEEEF"/>
</svg>
