<svg width="581" height="73" viewBox="0 0 581 73" fill="none" xmlns="http://www.w3.org/2000/svg">
<path opacity="0.05" d="M0.384766 22.54H18.7848V69H39.0248V22.54H57.4248V4.6H0.384766V22.54ZM68.1995 44.62H119.72V26.68H68.1995V44.62ZM107.116 4.6V69H127.356V4.6H107.116ZM63.8755 4.6V69H84.1155V4.6H63.8755ZM152.847 60.72H186.887V46.184H152.847V60.72ZM169.683 33.856L177.595 51.612L176.215 56.856L183.023 69H206.023L169.683 -5.48363e-06L133.343 69H156.343L163.335 56.212L161.771 51.612L169.683 33.856ZM253.888 4.6V33.764L212.028 1.38V69H231.348V39.836L273.208 72.22V4.6H253.888ZM286.059 4.6V69H307.219V4.6H286.059ZM326.999 4.6L301.423 35.42L327.459 69H351.931L325.435 34.776L350.551 4.6H326.999ZM422.316 4.6L412.196 25.392L402.076 4.6H378.616L401.892 43.884V69H422.592V43.7L445.776 4.6H422.316ZM464.905 36.8C464.905 33.6107 465.488 30.8507 466.653 28.52C467.818 26.128 469.474 24.288 471.621 23C473.768 21.6507 476.344 20.976 479.349 20.976C482.538 20.976 485.176 21.6507 487.261 23C489.408 24.288 491.033 26.128 492.137 28.52C493.241 30.8507 493.793 33.6107 493.793 36.8C493.793 39.928 493.21 42.688 492.045 45.08C490.88 47.472 489.224 49.3427 487.077 50.692C484.93 51.98 482.354 52.624 479.349 52.624C476.344 52.624 473.768 51.98 471.621 50.692C469.474 49.3427 467.818 47.472 466.653 45.08C465.488 42.688 464.905 39.928 464.905 36.8ZM443.469 36.8C443.469 41.952 444.328 46.6747 446.045 50.968C447.824 55.2 450.308 58.88 453.497 62.008C456.686 65.136 460.458 67.528 464.813 69.184C469.229 70.9013 474.074 71.76 479.349 71.76C484.624 71.76 489.438 70.9013 493.793 69.184C498.209 67.528 502.012 65.136 505.201 62.008C508.39 58.88 510.844 55.2 512.561 50.968C514.34 46.6747 515.229 41.952 515.229 36.8C515.229 31.648 514.34 26.9867 512.561 22.816C510.782 18.6453 508.268 15.0573 505.017 12.052C501.766 9.04666 497.964 6.74666 493.609 5.152C489.254 3.55733 484.501 2.76 479.349 2.76C474.32 2.76 469.628 3.55733 465.273 5.152C460.918 6.74666 457.116 9.04666 453.865 12.052C450.614 15.0573 448.069 18.6453 446.229 22.816C444.389 26.9867 443.469 31.648 443.469 36.8ZM523.955 4.6V47.84C523.955 52.44 524.691 56.3347 526.163 59.524C527.696 62.652 529.781 65.1973 532.419 67.16C535.056 69.0613 538.061 70.4413 541.435 71.3C544.869 72.22 548.488 72.68 552.291 72.68C556.093 72.68 559.681 72.22 563.055 71.3C566.489 70.4413 569.525 69.0613 572.163 67.16C574.8 65.1973 576.855 62.652 578.327 59.524C579.86 56.3347 580.627 52.44 580.627 47.84V4.6H560.387V46C560.387 48.576 559.712 50.692 558.363 52.348C557.075 53.9427 555.051 54.74 552.291 54.74C549.531 54.74 547.476 53.9427 546.127 52.348C544.839 50.692 544.195 48.576 544.195 46V4.6H523.955Z" fill="#2A3342"/>
</svg>
