<svg width="383" height="73" viewBox="0 0 383 73" fill="none" xmlns="http://www.w3.org/2000/svg">
<path opacity="0.05" d="M19.423 40.4L35.063 68H58.5231L40.123 40.4H19.423ZM0.563047 3.6V68H20.803V3.6H0.563047ZM13.627 20.62H25.863C27.5804 20.62 28.991 20.8653 30.095 21.356C31.199 21.7853 32.027 22.46 32.579 23.38C33.1924 24.2387 33.499 25.312 33.499 26.6C33.499 27.8267 33.1924 28.9 32.579 29.82C32.027 30.74 31.199 31.4453 30.095 31.936C28.991 32.3653 27.5804 32.58 25.863 32.58H13.627V47.76H27.703C34.0204 47.76 39.1417 46.8093 43.067 44.908C47.0537 43.0067 49.967 40.4 51.807 37.088C53.7084 33.7147 54.6591 29.912 54.6591 25.68C54.6591 21.3867 53.7084 17.584 51.807 14.272C49.967 10.96 47.0537 8.35333 43.067 6.452C39.1417 4.55066 34.0204 3.6 27.703 3.6H13.627V20.62ZM78.965 68H111.441V51.9H78.965V68ZM78.965 19.7H111.441V3.6H78.965V19.7ZM78.965 42.7H109.601V27.06H78.965V42.7ZM64.981 3.6V68H84.301V3.6H64.981ZM152.819 35.064L140.399 3.6H116.479L152.819 72.6L189.159 3.6H165.239L152.819 35.064ZM195.165 3.6V68H215.865V3.6H195.165ZM242.75 68H275.226V51.9H242.75V68ZM242.75 19.7H275.226V3.6H242.75V19.7ZM242.75 42.7H273.386V27.06H242.75V42.7ZM228.766 3.6V68H248.086V3.6H228.766ZM348.529 33.868L331.785 0.379999L315.041 33.868L305.105 3.6H280.725L310.165 72.14L331.785 40.124L353.405 72.14L382.845 3.6H358.465L348.529 33.868Z" fill="#2A3342"/>
</svg>
