<svg width="346" height="73" viewBox="0 0 346 73" fill="none" xmlns="http://www.w3.org/2000/svg">
<path opacity="0.05" d="M20.1456 60.72H54.1856V46.184H20.1456V60.72ZM36.9816 33.856L44.8936 51.612L43.5136 56.856L50.3216 69H73.3216L36.9816 -5.48363e-06L0.641562 69H23.6416L30.6336 56.212L29.0696 51.612L36.9816 33.856ZM79.3267 4.6V69H125.787V51.98H99.5667V4.6H79.3267ZM147.149 38.18H160.305C165.089 38.18 169.351 37.536 173.093 36.248C176.895 34.8987 179.901 32.9667 182.109 30.452C184.317 27.876 185.421 24.7787 185.421 21.16C185.421 17.48 184.317 14.4133 182.109 11.96C179.901 9.50666 176.895 7.66666 173.093 6.44C169.351 5.21333 165.089 4.6 160.305 4.6H132.245V69H162.145C167.849 69 172.694 68.4173 176.681 67.252C180.729 66.0867 183.795 64.216 185.881 61.64C188.027 59.064 189.101 55.6293 189.101 51.336C189.101 47.9013 188.273 44.988 186.617 42.596C185.022 40.1427 182.906 38.1493 180.269 36.616C177.631 35.0827 174.718 33.9787 171.529 33.304C168.401 32.568 165.273 32.2 162.145 32.2H147.149V43.24H159.385C160.55 43.24 161.623 43.3013 162.605 43.424C163.647 43.5467 164.567 43.792 165.365 44.16C166.162 44.4667 166.775 44.9573 167.205 45.632C167.695 46.2453 167.941 47.0733 167.941 48.116C167.941 49.8333 167.542 51.0907 166.745 51.888C165.947 52.6853 164.905 53.2067 163.617 53.452C162.329 53.6973 160.918 53.82 159.385 53.82H152.485V19.78H157.545C159.875 19.78 161.562 20.1787 162.605 20.976C163.709 21.712 164.261 22.908 164.261 24.564C164.261 25.668 164.015 26.6187 163.525 27.416C163.034 28.2133 162.298 28.8267 161.317 29.256C160.335 29.6853 159.078 29.9 157.545 29.9H147.149V38.18ZM198.718 4.6V47.84C198.718 52.44 199.454 56.3347 200.926 59.524C202.46 62.652 204.545 65.1973 207.182 67.16C209.82 69.0613 212.825 70.4413 216.198 71.3C219.633 72.22 223.252 72.68 227.054 72.68C230.857 72.68 234.445 72.22 237.818 71.3C241.253 70.4413 244.289 69.0613 246.926 67.16C249.564 65.1973 251.618 62.652 253.09 59.524C254.624 56.3347 255.39 52.44 255.39 47.84V4.6H235.15V46C235.15 48.576 234.476 50.692 233.126 52.348C231.838 53.9427 229.814 54.74 227.054 54.74C224.294 54.74 222.24 53.9427 220.89 52.348C219.602 50.692 218.958 48.576 218.958 46V4.6H198.718ZM289.071 42.688L304.619 63.02L320.167 42.688L323.479 69H345.099L333.139 1.38L304.619 36.156L276.099 1.38L264.139 69H285.759L289.071 42.688Z" fill="#2A3342"/>
</svg>
