<svg width="23" height="23" viewBox="0 0 23 23" fill="none" xmlns="http://www.w3.org/2000/svg">
<path d="M21.5625 17.25C21.5625 17.6312 21.411 17.9969 21.1415 18.2665C20.8719 18.536 20.5062 18.6875 20.125 18.6875H2.875C2.49375 18.6875 2.12812 18.536 1.85853 18.2665C1.58895 17.9969 1.4375 17.6312 1.4375 17.25V8.625C1.4375 8.24375 1.58895 7.87812 1.85853 7.60853C2.12812 7.33895 2.49375 7.1875 2.875 7.1875H4.55975C5.7029 7.18687 6.79904 6.73239 7.60725 5.92394L8.80037 4.73369C9.06919 4.46479 9.43359 4.31334 9.81381 4.3125H13.1833C13.5645 4.31258 13.9301 4.46409 14.1996 4.73369L15.3899 5.92394C15.7904 6.32459 16.266 6.6424 16.7893 6.8592C17.3127 7.07601 17.8737 7.18757 18.4403 7.1875H20.125C20.5062 7.1875 20.8719 7.33895 21.1415 7.60853C21.411 7.87812 21.5625 8.24375 21.5625 8.625V17.25ZM2.875 5.75C2.1125 5.75 1.38124 6.0529 0.842068 6.59207C0.302901 7.13124 0 7.8625 0 8.625L0 17.25C0 18.0125 0.302901 18.7438 0.842068 19.2829C1.38124 19.8221 2.1125 20.125 2.875 20.125H20.125C20.8875 20.125 21.6188 19.8221 22.1579 19.2829C22.6971 18.7438 23 18.0125 23 17.25V8.625C23 7.8625 22.6971 7.13124 22.1579 6.59207C21.6188 6.0529 20.8875 5.75 20.125 5.75H18.4403C17.6778 5.74984 16.9467 5.44683 16.4076 4.90762L15.2174 3.71737C14.6783 3.17817 13.9472 2.87516 13.1847 2.875H9.81525C9.05282 2.87516 8.32167 3.17817 7.78263 3.71737L6.59237 4.90762C6.05333 5.44683 5.32219 5.74984 4.55975 5.75H2.875Z" fill="white"/>
<path d="M11.5 15.8125C10.5469 15.8125 9.63279 15.4339 8.95884 14.7599C8.28488 14.086 7.90625 13.1719 7.90625 12.2188C7.90625 11.2656 8.28488 10.3515 8.95884 9.67759C9.63279 9.00363 10.5469 8.625 11.5 8.625C12.4531 8.625 13.3672 9.00363 14.0412 9.67759C14.7151 10.3515 15.0938 11.2656 15.0938 12.2188C15.0938 13.1719 14.7151 14.086 14.0412 14.7599C13.3672 15.4339 12.4531 15.8125 11.5 15.8125ZM11.5 17.25C12.8344 17.25 14.1141 16.7199 15.0576 15.7764C16.0012 14.8328 16.5312 13.5531 16.5312 12.2188C16.5312 10.8844 16.0012 9.60466 15.0576 8.66112C14.1141 7.71758 12.8344 7.1875 11.5 7.1875C10.1656 7.1875 8.88591 7.71758 7.94237 8.66112C6.99883 9.60466 6.46875 10.8844 6.46875 12.2188C6.46875 13.5531 6.99883 14.8328 7.94237 15.7764C8.88591 16.7199 10.1656 17.25 11.5 17.25ZM4.3125 9.34375C4.3125 9.53437 4.23677 9.71719 4.10198 9.85198C3.96719 9.98677 3.78437 10.0625 3.59375 10.0625C3.40313 10.0625 3.22031 9.98677 3.08552 9.85198C2.95073 9.71719 2.875 9.53437 2.875 9.34375C2.875 9.15313 2.95073 8.97031 3.08552 8.83552C3.22031 8.70073 3.40313 8.625 3.59375 8.625C3.78437 8.625 3.96719 8.70073 4.10198 8.83552C4.23677 8.97031 4.3125 9.15313 4.3125 9.34375Z" fill="white"/>
</svg>
