<svg width="23" height="23" viewBox="0 0 23 23" fill="none" xmlns="http://www.w3.org/2000/svg">
<path d="M16.2917 2.875H3.83333C3.30406 2.875 2.875 3.30406 2.875 3.83333V16.2917C2.875 16.8209 3.30406 17.25 3.83333 17.25H16.2917C16.8209 17.25 17.25 16.8209 17.25 16.2917V3.83333C17.25 3.30406 16.8209 2.875 16.2917 2.875Z" stroke="white" stroke-width="1.5" stroke-linejoin="round"/>
<path d="M20.125 5.75V18.6875C20.125 19.0687 19.9735 19.4344 19.704 19.704C19.4344 19.9735 19.0687 20.125 18.6875 20.125H5.75M2.875 11.9792L6.5435 8.71796C6.7203 8.56081 6.94898 8.47461 7.18552 8.47594C7.42207 8.47726 7.64976 8.56603 7.82479 8.72515L12.4583 12.9375" stroke="white" stroke-width="1.5" stroke-linecap="round" stroke-linejoin="round"/>
<path d="M10.5417 11.0205L12.8345 9.10961C13.0002 8.97156 13.2077 8.89348 13.4234 8.888C13.6391 8.88253 13.8502 8.94997 14.0228 9.07942L17.25 11.4997M2.875 9.10386V12.9372M17.25 9.10386V12.9372" stroke="white" stroke-width="1.5" stroke-linecap="round" stroke-linejoin="round"/>
</svg>
